<svg width="131" height="116" viewBox="0 0 131 116" fill="none" xmlns="http://www.w3.org/2000/svg">
<mask id="path-1-inside-1_0_1" fill="white">
<path d="M20.7114 30.4547C20.7114 24.9319 25.1886 20.4547 30.7114 20.4547H120.711C126.234 20.4547 130.711 24.9319 130.711 30.4547V105.455C130.711 110.978 126.234 115.455 120.711 115.455H30.7114C25.1886 115.455 20.7114 110.978 20.7114 105.455V30.4547Z"/>
</mask>
<path d="M20.7114 30.4547C20.7114 24.9319 25.1886 20.4547 30.7114 20.4547H120.711C126.234 20.4547 130.711 24.9319 130.711 30.4547V105.455C130.711 110.978 126.234 115.455 120.711 115.455H30.7114C25.1886 115.455 20.7114 110.978 20.7114 105.455V30.4547Z" fill="#92B388"/>
<path d="M20.7114 20.4547H130.711H20.7114ZM130.711 105.455C130.711 112.082 125.339 117.455 118.711 117.455H29.7114C23.084 117.455 17.7114 112.082 17.7114 105.455H23.7114C23.7114 109.873 26.8454 113.455 30.7114 113.455H120.711C126.234 113.455 130.711 109.873 130.711 105.455ZM29.7114 117.455C23.084 117.455 17.7114 112.082 17.7114 105.455V33.4547C17.7114 26.275 23.5317 20.4547 30.7114 20.4547C26.8454 20.4547 23.7114 24.9319 23.7114 30.4547V105.455C23.7114 109.873 26.8454 113.455 30.7114 113.455L29.7114 117.455ZM130.711 20.4547V115.455V20.4547Z" fill="#C6542D" mask="url(#path-1-inside-1_0_1)"/>
<rect x="0.711426" y="0.454712" width="40" height="40" rx="20" fill="black" fill-opacity="0.69"/>
<path d="M19.5894 20.9427C19.5894 21.7547 19.5241 22.478 19.3934 23.1127C19.2721 23.7474 19.0761 24.2887 18.8054 24.7367C18.5441 25.1754 18.1941 25.5114 17.7554 25.7447C17.3261 25.978 16.8081 26.0947 16.2014 26.0947C15.4361 26.0947 14.8061 25.8894 14.3114 25.4787C13.8168 25.068 13.4481 24.48 13.2054 23.7147C12.9628 22.94 12.8414 22.016 12.8414 20.9427C12.8414 19.86 12.9488 18.936 13.1634 18.1707C13.3874 17.4054 13.7468 16.822 14.2414 16.4207C14.7361 16.01 15.3894 15.8047 16.2014 15.8047C16.9668 15.8047 17.5968 16.01 18.0914 16.4207C18.5954 16.822 18.9688 17.4054 19.2114 18.1707C19.4634 18.936 19.5894 19.86 19.5894 20.9427ZM14.3254 20.9427C14.3254 21.8107 14.3861 22.534 14.5074 23.1127C14.6288 23.6914 14.8248 24.1254 15.0954 24.4147C15.3754 24.704 15.7441 24.8487 16.2014 24.8487C16.6588 24.8487 17.0228 24.7087 17.2934 24.4287C17.5734 24.1394 17.7741 23.7054 17.8954 23.1267C18.0261 22.5387 18.0914 21.8107 18.0914 20.9427C18.0914 20.0747 18.0261 19.356 17.8954 18.7867C17.7741 18.208 17.5734 17.774 17.2934 17.4847C17.0228 17.1954 16.6588 17.0507 16.2014 17.0507C15.7441 17.0507 15.3754 17.1954 15.0954 17.4847C14.8248 17.774 14.6288 18.208 14.5074 18.7867C14.3861 19.356 14.3254 20.0747 14.3254 20.9427ZM27.5871 25.9547H20.8671V24.8067L23.4431 22.1887C23.9471 21.6754 24.3671 21.232 24.7031 20.8587C25.0391 20.476 25.2911 20.112 25.4591 19.7667C25.6271 19.412 25.7111 19.0294 25.7111 18.6187C25.7111 18.1054 25.5618 17.7227 25.2631 17.4707C24.9645 17.2094 24.5771 17.0787 24.1011 17.0787C23.6438 17.0787 23.2331 17.1674 22.8691 17.3447C22.5051 17.5127 22.1271 17.7507 21.7351 18.0587L20.9371 17.0647C21.2078 16.8314 21.4971 16.6214 21.8051 16.4347C22.1225 16.248 22.4725 16.0987 22.8551 15.9867C23.2471 15.8747 23.6765 15.8187 24.1431 15.8187C24.7778 15.8187 25.3238 15.9307 25.7811 16.1547C26.2385 16.3694 26.5885 16.6774 26.8311 17.0787C27.0831 17.48 27.2091 17.9514 27.2091 18.4927C27.2091 19.0247 27.1018 19.5194 26.8871 19.9767C26.6725 20.434 26.3691 20.8867 25.9771 21.3347C25.5851 21.7734 25.1231 22.2494 24.5911 22.7627L22.7291 24.5687V24.6387H27.5871V25.9547Z" fill="white"/>
<g clip-path="url(#clip0_0_1)">
<path d="M55.0472 67.9451C55.0451 62.3943 55.0423 55.0369 55.0405 50.3402C55.0404 50.1217 55.0833 49.9054 55.1669 49.7035C55.2504 49.5016 55.3729 49.3182 55.5274 49.1637C55.6818 49.0092 55.8652 48.8867 56.0671 48.8032C56.269 48.7196 56.4853 48.6766 56.7038 48.6768C63.8708 48.6745 84.638 48.6675 93.135 48.6644C93.3537 48.6643 93.5702 48.7073 93.7722 48.7909C93.9742 48.8745 94.1578 48.9971 94.3124 49.1517C94.467 49.3063 94.5896 49.4899 94.6732 49.6919C94.7569 49.894 94.7998 50.1105 94.7997 50.3291C94.7997 56.6297 94.8023 66.8626 94.8048 73.382C96.1209 75.2314 98.9443 79.1236 100.325 81.4814C100.462 81.7158 100.534 81.9825 100.533 82.254C100.533 82.4941 100.528 82.7857 100.528 83.0864C100.528 83.3925 100.406 83.6859 100.189 83.9022C99.9727 84.1185 99.6791 84.2401 99.373 84.2401H50.2812C50.1548 84.2402 50.0295 84.2153 49.9127 84.1669C49.7958 84.1186 49.6896 84.0476 49.6002 83.9582C49.5107 83.8688 49.4397 83.7627 49.3913 83.6458C49.3429 83.529 49.318 83.4038 49.3179 83.2773C49.3179 81.7916 49.3125 83.7133 49.3125 82.2559C49.3117 81.9834 49.3835 81.7156 49.5206 81.4801C50.9162 79.0967 53.7512 75.0819 55.0487 73.2603C55.0488 71.9159 55.0482 70.0619 55.0472 67.9451Z" fill="white"/>
<path d="M92.0756 74.0294C92.2378 74.0294 92.3976 74.0686 92.5413 74.1437C92.685 74.2188 92.8085 74.3275 92.9011 74.4606C93.5273 75.3547 94.2005 76.3433 94.799 77.3067C94.8449 77.3801 94.8703 77.4643 94.8726 77.5508C94.875 77.6373 94.8541 77.7228 94.8122 77.7985C94.7704 77.8741 94.709 77.9372 94.6345 77.9812C94.56 78.0252 94.4751 78.0484 94.3886 78.0485H55.4592C55.373 78.0486 55.2883 78.0258 55.2139 77.9823C55.1395 77.9387 55.078 77.8761 55.0359 77.8009C54.9937 77.7257 54.9725 77.6406 54.9742 77.5544C54.976 77.4682 55.0007 77.384 55.0459 77.3106C55.6457 76.3447 56.3208 75.3534 56.9485 74.4567C57.0411 74.3243 57.1643 74.2163 57.3077 74.1417C57.451 74.0672 57.6103 74.0284 57.7719 74.0286C64.955 74.0286 84.8923 74.0286 92.0756 74.0286" fill="#D9D9D9"/>
<path d="M57.2856 50.8035C57.2879 56.5339 57.2948 71.8667 57.2948 71.8667C63.2513 71.8645 86.7791 71.8566 92.5602 71.855C92.5577 65.6582 92.5535 55.9962 92.5511 50.7926C92.5511 50.7934 62.4856 50.8024 57.2856 50.8035Z" fill="white"/>
<path d="M94.5401 81.8075H56.8509C56.34 81.8075 55.8279 81.7981 55.3169 81.8075C55.2951 81.8075 55.2733 81.8075 55.2514 81.8075C54.7571 81.8075 54.7563 82.5759 55.2514 82.5759H92.9406C93.4515 82.5759 93.9636 82.5855 94.4745 82.5759C94.4964 82.5759 94.5182 82.5759 94.5401 82.5759C95.0344 82.5759 95.0352 81.8075 94.5401 81.8075Z" fill="#656464"/>
<path d="M55.4313 67.9451L55.4274 57.7869L55.4255 52.8903C55.4255 52.173 55.4253 51.4557 55.4247 50.7384C55.4247 50.4219 55.4025 50.1074 55.5368 49.8116C55.6662 49.5297 55.8923 49.3036 56.1742 49.1742C56.5698 48.9932 57.0667 49.0622 57.4925 49.0622H58.7753L61.8213 49.0612L69.2838 49.0586L77.6612 49.0559L85.7384 49.053L92.3279 49.0487C92.8221 49.0487 93.3702 48.9716 93.8101 49.2408C94.0655 49.3975 94.2571 49.6396 94.3511 49.9241C94.4207 50.2246 94.4427 50.5342 94.4162 50.8415C94.4162 52.2714 94.4162 53.7013 94.4162 55.1313C94.4162 58.3966 94.4169 61.6615 94.4183 64.9259L94.4198 69.6977C94.4198 70.4289 94.4198 71.1598 94.4198 71.8906V72.9195C94.4198 73.0722 94.4089 73.2296 94.4198 73.3818C94.4525 73.5474 94.5318 73.7003 94.6482 73.8226C96.3052 76.145 97.9923 78.4549 99.5064 80.8747C99.6714 81.1386 99.8425 81.4029 99.9923 81.675C100.214 82.0752 100.146 82.5456 100.143 82.9864C100.156 83.1367 100.127 83.2875 100.059 83.4224C99.9919 83.5572 99.8886 83.6708 99.7607 83.7508C99.5901 83.8362 99.3992 83.8726 99.2091 83.8559H50.7404C50.4935 83.8559 50.1861 83.902 49.9706 83.7658C49.5906 83.5257 49.7275 83.0525 49.7009 82.6754C49.6722 82.2674 49.0446 82.1251 48.9463 82.5733C48.9364 82.6616 48.931 82.7504 48.9303 82.8393H49.6987C49.6491 82.5003 49.6759 82.1545 49.7771 81.8272C49.9568 81.3765 50.2893 80.9483 50.547 80.539C51.1437 79.5929 51.7646 78.6621 52.3932 77.7369C53.0155 76.8212 53.6455 75.9109 54.2835 75.006C54.5514 74.6247 54.8204 74.2441 55.0903 73.8641C55.2256 73.7149 55.337 73.5457 55.4206 73.3624C55.4912 73.1082 55.434 72.7598 55.434 72.4981L55.4321 67.9456C55.4321 67.4513 54.6638 67.4505 54.6638 67.9456C54.6646 69.717 54.6654 71.4884 54.666 73.2598L54.7184 73.066C52.9096 75.6059 51.0888 78.1548 49.4682 80.8206C49.2167 81.2327 48.9755 81.6252 48.9348 82.1194C48.9117 82.3586 48.9099 82.5993 48.9295 82.8389C48.9295 82.9407 48.97 83.0385 49.042 83.1105C49.1141 83.1825 49.2118 83.223 49.3137 83.223C49.4156 83.223 49.5133 83.1825 49.5853 83.1105C49.6574 83.0385 49.6979 82.9407 49.6979 82.8389C49.7054 82.7739 49.731 82.5754 49.6871 82.7771L48.9324 82.675C48.9711 83.2257 48.8813 83.7314 49.2846 84.182C49.6345 84.5732 50.1028 84.6238 50.5915 84.6238H98.8085C99.1385 84.6238 99.4968 84.6569 99.8153 84.5597C100.176 84.4485 100.485 84.2108 100.685 83.8902C100.916 83.5188 100.912 83.1169 100.915 82.6945C100.92 82.193 100.908 81.7371 100.658 81.2872C100.496 80.9955 100.314 80.713 100.136 80.4305C99.7382 79.796 99.3247 79.1711 98.9055 78.5505C98.0216 77.2416 97.11 75.9517 96.193 74.6658C95.8415 74.1729 95.4897 73.6803 95.1377 73.1879L95.1902 73.3818C95.1891 70.3844 95.1881 67.3869 95.1871 64.3894C95.1862 61.1753 95.1855 57.9615 95.1852 54.7477C95.1852 53.349 95.1852 51.9501 95.1852 50.5511C95.1852 49.8404 94.9902 49.1865 94.4122 48.7299C93.8864 48.3142 93.3031 48.2804 92.6632 48.2804L86.2989 48.2826L78.3971 48.2854L70.1011 48.2882L62.5546 48.2906L56.8829 48.2924C56.2267 48.2924 55.611 48.4774 55.1669 48.9885C54.6681 49.5624 54.6562 50.221 54.6564 50.9413C54.657 52.4507 54.6576 53.96 54.6582 55.4693C54.6594 58.854 54.6608 62.2386 54.6622 65.623C54.6622 66.3972 54.6622 67.1714 54.6622 67.9456C54.6633 68.4396 55.4316 68.4404 55.4313 67.9451Z" fill="#656464"/>
<path d="M56.9016 50.8035C56.9016 52.2228 56.9022 53.642 56.9034 55.0613C56.9042 56.8486 56.905 58.636 56.9056 60.4235L56.908 65.7331L56.91 69.9213C56.91 70.5593 56.8851 71.2031 56.91 71.8408C56.91 71.8498 56.91 71.8587 56.91 71.8677C56.9114 71.9691 56.9523 72.066 57.0241 72.1377C57.0958 72.2095 57.1927 72.2504 57.2941 72.2518L62.5413 72.2499L70.2114 72.2474L78.7677 72.2445L86.5854 72.2419L92.117 72.2402H92.5596C92.661 72.2387 92.7579 72.1978 92.8296 72.126C92.9014 72.0543 92.9423 71.9574 92.9438 71.856C92.9427 69.0602 92.9415 66.2639 92.9402 63.4672L92.9364 54.7988C92.9364 53.4636 92.9358 52.1285 92.9346 50.7936C92.9332 50.6921 92.8923 50.5952 92.8206 50.5235C92.7488 50.4518 92.6519 50.4108 92.5505 50.4094H91.7431L89.523 50.4102L86.1969 50.4113L82.072 50.4126L77.4542 50.4141L72.6503 50.4157L67.9666 50.4171L63.7096 50.4184L60.1857 50.4193H57.7015H57.2853C56.7909 50.4193 56.7901 51.1877 57.2853 51.1877H59.4675L62.7649 51.1867L66.8703 51.1854L71.4776 51.184L76.2797 51.1824L80.9714 51.1809L85.2452 51.1795L88.7955 51.1784H91.3156C91.7077 51.1784 92.1071 51.2003 92.4988 51.1784C92.5156 51.1774 92.5329 51.1784 92.5497 51.1784L92.1655 50.7942L92.1689 58.4734L92.1727 67.3395L92.1746 71.8566L92.5588 71.4725L87.3947 71.4739L79.767 71.4765L71.2131 71.4794L63.3576 71.4819L57.7482 71.484H57.2949L57.6791 71.8682C57.6784 71.3477 57.6784 70.8274 57.6791 70.3072C57.6784 68.9849 57.6778 67.6626 57.6773 66.3401L57.6749 61.1121C57.6741 59.3056 57.6733 57.4992 57.6727 55.6928L57.6708 51.2402V50.8035C57.6698 50.3092 56.9015 50.3084 56.9016 50.8035Z" fill="#656464"/>
<path d="M85.6626 78.7606C85.1757 78.4718 84.7452 78.0972 84.392 77.6549C83.805 76.9223 83.2837 76.1395 82.8339 75.3156C82.6269 74.9475 82.5424 74.5571 82.8129 74.2318C82.9357 74.0866 83.0945 73.9762 83.2734 73.9116C83.4522 73.847 83.6449 73.8305 83.8322 73.8637L84.1589 73.9626C83.6588 72.6669 82.8353 70.5352 82.3144 69.1809C82.1356 68.7158 82.1779 68.0462 82.8209 67.7989C82.9512 67.7429 83.0918 67.7148 83.2336 67.7164C83.3754 67.7179 83.5154 67.7491 83.6444 67.8078C83.7735 67.8666 83.8889 67.9517 83.9832 68.0577C84.0774 68.1636 84.1485 68.2881 84.1919 68.4232L85.6397 72.1892L85.6728 72.0277C85.7157 71.8107 85.8294 71.614 85.9962 71.4686C86.163 71.3232 86.3733 71.2374 86.5942 71.2245C86.7804 71.203 86.9682 71.2502 87.1221 71.3572C87.2761 71.4642 87.3858 71.6238 87.4305 71.8059C87.4422 71.6053 87.525 71.4155 87.664 71.2705C87.8031 71.1255 87.9893 71.0349 88.1892 71.015C88.6429 70.9479 89.1184 71.1365 89.2244 71.5411C89.2823 71.2067 89.5176 71.08 89.8221 70.9873C90.2222 70.8658 90.7921 71.2957 90.9349 71.6671C91.2195 72.4071 91.4471 73.0025 91.7688 73.8379C91.8841 74.1628 91.9817 74.4937 92.0611 74.8292C92.4187 76.8491 91.3131 77.6502 90.8066 78.0829C90.0586 78.6065 89.2072 78.964 88.3096 79.1313C87.5603 79.2661 86.6295 79.314 85.6626 78.7606Z" fill="white"/>
<path d="M84.9059 74.8377C84.3231 73.3187 83.7375 71.8007 83.1488 70.2836C82.9917 69.8756 82.8234 69.4699 82.6771 69.0579C82.5699 68.7553 82.5455 68.3877 82.8622 68.2023C82.9394 68.1536 83.0261 68.1218 83.1165 68.1089C83.2069 68.096 83.299 68.1024 83.3868 68.1276C83.4746 68.1527 83.5561 68.1962 83.6259 68.255C83.6958 68.3138 83.7524 68.3867 83.7921 68.469C83.9506 68.812 84.0884 69.1642 84.205 69.5236L85.2809 72.3221C85.3105 72.4187 85.3759 72.5004 85.4638 72.5503C85.5517 72.6002 85.6553 72.6146 85.7535 72.5905C85.8513 72.5628 85.9343 72.4977 85.9845 72.4092C86.0347 72.3207 86.0481 72.2161 86.0217 72.1179L84.984 69.4185C84.8225 68.9988 84.6816 68.5613 84.4912 68.154C84.3758 67.9008 84.1877 67.6878 83.9507 67.5421C83.7137 67.3964 83.4386 67.3246 83.1607 67.336C82.8741 67.3441 82.5972 67.4419 82.3691 67.6157C82.141 67.7895 81.9733 68.0305 81.8894 68.3047C81.7583 68.7923 81.9243 69.2299 82.0975 69.6791C82.4766 70.6638 82.8562 71.6483 83.2366 72.6325C83.546 73.4354 83.8558 74.2384 84.1659 75.0415C84.1955 75.1381 84.2609 75.2198 84.3488 75.2696C84.4367 75.3195 84.5403 75.3339 84.6384 75.3097C84.7363 75.282 84.8193 75.2169 84.8695 75.1284C84.9197 75.04 84.9331 74.9353 84.9067 74.8371L84.9059 74.8377Z" fill="#656464"/>
<path d="M86.0429 72.1304C86.0639 72.0083 86.1202 71.895 86.2047 71.8043C86.2892 71.7137 86.3984 71.6497 86.5187 71.6202C86.7571 71.5705 87.0028 71.6599 87.0598 71.9084C87.1588 72.3405 87.802 72.2298 87.8143 71.8062C87.8274 71.3531 88.7155 71.1927 88.8536 71.6436C88.9588 71.9868 89.5123 72.031 89.5944 71.6436C89.6078 71.591 89.6321 71.5419 89.6658 71.4994C89.6995 71.4569 89.7419 71.4221 89.79 71.3971C89.8382 71.3722 89.8911 71.3577 89.9452 71.3547C89.9994 71.3516 90.0536 71.3601 90.1042 71.3795C90.2307 71.4312 90.3442 71.5103 90.4366 71.611C90.5289 71.7118 90.5978 71.8318 90.6382 71.9623C90.9308 72.7237 91.2662 73.4829 91.5075 74.2615C91.7071 74.8141 91.7806 75.4044 91.7225 75.9891C91.6869 76.2543 91.6066 76.5115 91.4851 76.7499C91.4297 76.8561 91.3672 76.9585 91.2982 77.0564C91.2836 77.0771 91.2689 77.0976 91.2537 77.1179C91.2113 77.1746 91.3083 77.052 91.234 77.1424C91.1963 77.1882 91.1575 77.233 91.1176 77.277C90.9863 77.4178 90.8462 77.5502 90.6984 77.6735C90.5163 77.825 90.3192 77.9575 90.1102 78.069C89.4497 78.4458 88.7237 78.6937 87.9707 78.7996C88.0237 78.7922 87.8915 78.8087 87.8684 78.8111C87.798 78.8183 87.7276 78.8242 87.6571 78.8282C87.5254 78.8359 87.3932 78.8378 87.2614 78.8329C86.978 78.8234 86.6973 78.7735 86.428 78.6846C85.7149 78.4556 85.1346 77.9519 84.6636 77.3839C84.4886 77.1728 84.3898 77.0396 84.2178 76.7978C83.9802 76.4637 83.7563 76.1197 83.5432 75.7697C83.4075 75.5465 83.2711 75.3215 83.1485 75.0915C83.0666 74.9373 82.9769 74.7339 83.0525 74.56C83.1236 74.4323 83.2379 74.3342 83.3749 74.2831C83.4356 74.2606 83.498 74.2426 83.5615 74.2295C83.5974 74.226 83.6335 74.2246 83.6695 74.2253C83.7603 74.2229 83.6761 74.2201 83.7296 74.234C84.2083 74.3592 84.4126 73.6184 83.9338 73.493C83.7364 73.45 83.5322 73.4497 83.3346 73.4921C83.1371 73.5345 82.951 73.6186 82.7887 73.7389C82.5816 73.8788 82.4235 74.0801 82.3369 74.3146C82.2502 74.549 82.2392 74.8047 82.3054 75.0457C82.4324 75.5337 82.7744 75.995 83.0405 76.417C83.251 76.7506 83.4715 77.0779 83.706 77.395C84.1901 78.0493 84.7335 78.6664 85.4455 79.0797C86.0838 79.4476 86.8127 79.6284 87.5489 79.6015C88.9782 79.5535 90.4916 78.9707 91.5202 77.9653C91.9675 77.5389 92.2819 76.9922 92.4257 76.3912C92.5698 75.6502 92.5201 74.8846 92.2816 74.1683C92.1318 73.6605 91.921 73.1702 91.7313 72.6762L91.4509 71.9457C91.3794 71.7066 91.2772 71.4778 91.1467 71.2651C90.8746 70.8915 90.4175 70.5659 89.9368 70.584C89.688 70.5899 89.4478 70.6766 89.2525 70.8308C89.0571 70.985 88.9172 71.1986 88.8536 71.4392H89.5944C89.4143 70.8514 88.8038 70.5643 88.2178 70.6277C87.5936 70.6951 87.0654 71.1559 87.0466 71.8062L87.8012 71.7041C87.6595 71.0863 87.0284 70.7695 86.4315 70.8593C86.1586 70.9047 85.9055 71.0304 85.7044 71.2204C85.5033 71.4105 85.3635 71.6561 85.3027 71.926C85.1916 72.4071 85.9322 72.6125 86.0435 72.1302L86.0429 72.1304Z" fill="#656464"/>
<path d="M74.9228 53.4901C73.219 53.4763 71.5563 54.0128 70.182 55.0201C68.8929 55.9938 67.9418 57.3474 67.4626 58.8901C66.5182 61.9261 67.4306 65.5723 69.9793 67.5531C72.5124 69.522 76.363 69.7166 79.1254 68.102C81.9158 66.4708 83.1099 63.1009 82.6381 59.9927C82.394 58.4016 81.6587 56.9266 80.5351 55.774C79.379 54.6065 77.8774 53.8426 76.253 53.5956C75.8128 53.5278 75.3682 53.4925 74.9228 53.4901C74.4284 53.4885 74.4278 54.2569 74.9228 54.2585C76.4695 54.2481 77.9787 54.7341 79.2286 55.6451C80.374 56.51 81.2182 57.7135 81.6413 59.085C82.4897 61.8096 81.742 65.0953 79.4982 66.9191C78.4169 67.798 77.014 68.2725 75.6214 68.3757C74.1404 68.4858 72.6244 68.2433 71.3156 67.521C70.1044 66.8483 69.1387 65.8075 68.5583 64.5495C67.9334 63.1737 67.7242 61.6453 67.9564 60.1523C68.1765 58.7126 68.8374 57.3766 69.8481 56.328C70.9052 55.2605 72.2795 54.5638 73.7654 54.342C74.1484 54.2851 74.5353 54.2573 74.9225 54.2589C75.4171 54.2569 75.4181 53.4885 74.9228 53.4901Z" fill="#D9D9D9"/>
<path d="M71.3473 62.1979C72.0544 62.9059 72.7471 63.6279 73.4538 64.3362C73.6392 64.5158 73.8872 64.6163 74.1454 64.6163C74.4035 64.6163 74.6516 64.5158 74.837 64.3362C76.2946 62.9055 77.7388 61.4609 79.1693 60.0022C79.2601 59.9114 79.3322 59.8036 79.3813 59.6849C79.4305 59.5663 79.4558 59.4391 79.4558 59.3107C79.4558 59.1822 79.4305 59.0551 79.3813 58.9364C79.3322 58.8177 79.2601 58.7099 79.1693 58.6191C79.0785 58.5283 78.9707 58.4562 78.852 58.4071C78.7334 58.3579 78.6062 58.3326 78.4778 58.3326C78.3493 58.3326 78.2221 58.3579 78.1035 58.4071C77.9848 58.4562 77.877 58.5283 77.7862 58.6191C76.3587 60.08 74.9146 61.5246 73.454 62.9529H74.8371C74.1304 62.2446 73.4376 61.5227 72.7306 60.8147C72.6398 60.7239 72.532 60.6519 72.4133 60.6027C72.2947 60.5536 72.1675 60.5283 72.0391 60.5283C71.9106 60.5283 71.7834 60.5536 71.6648 60.6027C71.5461 60.6519 71.4383 60.7239 71.3475 60.8147C71.2567 60.9056 71.1846 61.0134 71.1355 61.132C71.0863 61.2507 71.061 61.3779 71.061 61.5063C71.061 61.6347 71.0863 61.7619 71.1355 61.8806C71.1846 61.9992 71.2565 62.1071 71.3473 62.1979Z" fill="black"/>
</g>
<defs>
<clipPath id="clip0_0_1">
<rect width="52" height="52" fill="white" transform="translate(48.9155 40.4547)"/>
</clipPath>
</defs>
</svg>
