<svg width="43" height="41" viewBox="0 0 43 41" fill="none" xmlns="http://www.w3.org/2000/svg">
<path d="M41.2556 11.1581L38.8952 14.2157L38.4019 18.0478L34.5702 18.5408L31.5126 20.9012L28.455 18.5408L24.6233 18.0478L24.1299 14.2157L21.7695 11.1581L24.1299 8.10095L24.6233 4.26883L28.455 3.77587L31.5126 1.4151L34.5702 3.77587L38.4019 4.26883L38.8952 8.10095L41.2556 11.1581Z" stroke="#DF5C46" stroke-width="2" stroke-miterlimit="10"/>
<path d="M36.8132 17.7353V29.2505L31.513 25.6991L26.2129 29.2505V17.7353" stroke="#DF5C46" stroke-width="2" stroke-miterlimit="10"/>
<path d="M23.6322 20.9819C22.0305 23.2424 19.3948 24.7029 16.44 24.7029C11.8417 24.7029 8.01712 21.1661 7.65742 16.582L6.62305 3.38327H22.5339" stroke="#DF5C46" stroke-width="2" stroke-miterlimit="10"/>
<path d="M7.41659 16.6047H5.20872C4.12881 16.6047 3.21934 15.7968 3.09234 14.7244L1.75926 8.40948C1.60887 7.14199 2.59938 6.0274 3.87564 6.0274H6.82128" stroke="#DF5C46" stroke-width="2" stroke-miterlimit="10"/>
<path d="M18.6113 24.2692C18.6113 24.2692 19.0742 29.6241 21.8506 32.0037" stroke="#DF5C46" stroke-width="2" stroke-miterlimit="10"/>
<path d="M14.4229 24.2692C14.4229 24.2692 13.96 29.624 11.1836 32.0036" stroke="#DF5C46" stroke-width="2" stroke-miterlimit="10"/>
<path d="M24.7149 36.2895H8.32031V33.8765C8.32031 32.6894 9.20806 31.7274 10.3034 31.7274H22.7314C23.8268 31.7274 24.7145 32.6894 24.7145 33.8765V36.2895H24.7149Z" stroke="#DF5C46" stroke-width="2" stroke-miterlimit="10"/>
<path d="M26.5884 39.5849H6.44727V38.4386C6.44727 37.2515 7.33501 36.2895 8.43038 36.2895H24.6053C25.7006 36.2895 26.5884 37.2515 26.5884 38.4386V39.5849V39.5849Z" stroke="#DF5C46" stroke-width="2" stroke-miterlimit="10"/>
<path d="M6.44679 39.5848H26.5879V38.4385C26.5879 37.2514 25.7001 36.2894 24.6048 36.2894H8.4299C7.33453 36.2894 6.44679 37.2514 6.44679 38.4385V39.5848V39.5848Z" stroke="#DF5C46" stroke-width="2" stroke-miterlimit="10"/>
<path d="M27.3809 13.2332L29.8929 15.0843L35.9086 7.41583" stroke="#DF5C46" stroke-width="2" stroke-miterlimit="10"/>
</svg>
