<svg width="51" height="51" viewBox="0 0 51 51" fill="none" xmlns="http://www.w3.org/2000/svg">
<g clip-path="url(#clip0_715_3793)">
<path d="M15.8328 37.2286C15.6185 36.855 15.142 36.7264 14.7686 36.9405C14.395 37.1549 14.2661 37.6313 14.4805 38.0047C16.4795 41.4875 16.778 43.0341 16.778 43.646C16.778 46.5407 14.4231 48.8955 11.5285 48.8955C8.63389 48.8955 6.279 46.5407 6.279 43.646C6.279 41.404 9.63262 36.0934 11.5268 33.3566C11.9051 33.9046 12.4207 34.6678 12.9807 35.5422C13.2128 35.9048 13.6952 36.0105 14.0576 35.7783C14.4202 35.5461 14.5259 35.0639 14.2937 34.7013C13.1432 32.9047 12.199 31.6006 12.1595 31.546C11.8534 31.1239 11.2033 31.1239 10.8972 31.546C10.265 32.4176 4.71973 40.1638 4.71973 43.646C4.71973 47.4004 7.77412 50.4547 11.5284 50.4547C15.2827 50.4547 18.3371 47.4003 18.3371 43.646C18.3374 42.2639 17.5182 40.1647 15.8328 37.2286Z" fill="#4D4D4D"/>
<path d="M46.2481 12.9287H37.4206C36.8099 12.2064 36.0844 11.6165 35.2815 11.1728V5.96409H36.5945C37.2299 7.0803 38.4297 7.83518 39.8032 7.83518C41.8381 7.83518 43.4935 6.17981 43.4935 4.14495C43.4935 2.11008 41.838 0.454712 39.8032 0.454712C38.5167 0.454712 37.3824 1.11692 36.7217 2.1179H26.4605C25.7999 1.11692 24.6656 0.454712 23.3791 0.454712C21.3442 0.454712 19.6889 2.11008 19.6889 4.14495C19.6889 6.17981 21.3442 7.83518 23.3791 7.83518C24.7527 7.83518 25.9525 7.0803 26.5878 5.96409H27.9009V11.1728C27.0981 11.6165 26.3725 12.2063 25.7617 12.9287H23.1712C22.7406 12.9287 22.3916 13.2777 22.3916 13.7083C22.3916 14.139 22.7406 14.4879 23.1712 14.4879H26.1353C26.3783 14.4879 26.6075 14.3745 26.755 14.1814C27.9172 12.6585 29.6799 11.7852 31.5911 11.7852C33.5023 11.7852 35.2651 12.6584 36.4273 14.1814C36.5747 14.3745 36.804 14.4879 37.047 14.4879H45.4684V21.2447H37.0471C36.804 21.2447 36.5748 21.358 36.4273 21.5512C35.2651 23.074 33.5024 23.9474 31.5912 23.9474C29.68 23.9474 27.9172 23.0741 26.7551 21.5512C26.6076 21.358 26.3783 21.2447 26.1354 21.2447H15.2711C14.8405 21.2447 14.4915 21.5936 14.4915 22.0242V24.571H7.73457V17.8662C7.73457 16.0033 9.2502 14.4878 11.113 14.4878H19.0132C19.4438 14.4878 19.7928 14.1389 19.7928 13.7082C19.7928 13.2776 19.4438 12.9286 19.0132 12.9286H11.113C8.39043 12.9286 6.17539 15.1437 6.17539 17.8662V24.571H4.25225C3.82168 24.571 3.47266 24.9199 3.47266 25.3506V28.8849C3.47266 29.3156 3.82168 29.6645 4.25225 29.6645H17.35C17.7806 29.6645 18.1296 29.3156 18.1296 28.8849V25.3506C18.1296 24.9199 17.7806 24.571 17.35 24.571H16.0506V22.8038H25.7617C27.2181 24.5264 29.3211 25.5066 31.5911 25.5066C33.8611 25.5066 35.9642 24.5264 37.4205 22.8038H46.2481C46.6786 22.8038 47.0276 22.4549 47.0276 22.0242V13.7082C47.0277 13.2777 46.6787 12.9287 46.2481 12.9287ZM39.8032 2.01399C40.9782 2.01399 41.9342 2.96995 41.9342 4.14495C41.9342 5.31995 40.9782 6.2759 39.8032 6.2759C38.6281 6.2759 37.6723 5.31995 37.6723 4.14495C37.6723 2.96995 38.6281 2.01399 39.8032 2.01399ZM23.3791 6.2759C22.204 6.2759 21.2481 5.31995 21.2481 4.14495C21.2481 2.96995 22.2041 2.01399 23.3791 2.01399C24.5541 2.01399 25.5101 2.96995 25.5101 4.14495C25.5101 5.31995 24.5541 6.2759 23.3791 6.2759ZM27.0592 4.40481C27.0652 4.31887 27.0693 4.23235 27.0693 4.14495C27.0693 3.98645 27.0581 3.83049 27.0387 3.67717H36.1437C36.1241 3.83049 36.113 3.98645 36.113 4.14495C36.113 4.23235 36.1172 4.31887 36.1231 4.40481H27.0592ZM33.7222 10.5263C33.0398 10.3297 32.3245 10.226 31.5912 10.226C30.8579 10.226 30.1426 10.3297 29.4603 10.5263V5.96409H33.7222V10.5263ZM16.5704 26.1304V28.1054H5.03193V26.1304H16.5704Z" fill="#4D4D4D"/>
<path d="M13.6691 38.4705C13.4548 38.0969 12.9782 37.9683 12.6049 38.1824C12.2313 38.3969 12.1024 38.8733 12.3168 39.2467C14.2112 42.547 14.2813 43.6122 14.2833 43.646C14.2833 45.165 13.0476 46.4007 11.5286 46.4007C11.098 46.4007 10.749 46.7496 10.749 47.1803C10.749 47.611 11.098 47.9599 11.5286 47.9599C13.9073 47.9599 15.8426 46.0246 15.8426 43.6459C15.8426 43.3201 15.6858 41.984 13.6691 38.4705Z" fill="#4D4D4D"/>
</g>
<defs>
<clipPath id="clip0_715_3793">
<rect width="50" height="50" fill="white" transform="translate(0.25 0.454712)"/>
</clipPath>
</defs>
</svg>
