<svg width="51" height="51" viewBox="0 0 51 51" fill="none" xmlns="http://www.w3.org/2000/svg">
<g clip-path="url(#clip0_715_3840)">
<path d="M38.1348 22.58C38.1348 15.4752 32.3546 9.69495 25.2497 9.69495C22.5718 9.69495 20.004 10.5089 17.8239 12.0488C17.4766 12.2942 17.3939 12.7746 17.6393 13.122C17.8848 13.4694 18.3651 13.552 18.7125 13.3067C20.6313 11.9514 22.8918 11.235 25.2498 11.235C31.5055 11.235 36.5947 16.3243 36.5947 22.5799C36.5947 27.0545 33.9529 31.1238 29.8644 32.9466C29.5867 33.0704 29.4079 33.3459 29.4079 33.6499V35.9782H28.4899V25.5419H29.8668C30.8313 25.5419 31.678 24.96 32.0235 24.0595C32.3691 23.159 32.1291 22.1601 31.4121 21.5149L30.8053 20.9687C30.1176 20.3496 29.1652 20.199 28.32 20.5754C27.4748 20.9519 26.9498 21.7604 26.9498 22.6857V24.0019H23.5496V22.6857C23.5496 21.7604 23.0245 20.9519 22.1794 20.5754C21.3342 20.1989 20.3819 20.3496 19.6941 20.9687L19.0874 21.5149C18.3705 22.1602 18.1305 23.159 18.476 24.0595C18.8216 24.96 19.6682 25.5419 20.6327 25.5419H22.0096V35.9783H21.0915V33.65C21.0915 33.346 20.9127 33.0704 20.6351 32.9467C16.5465 31.1239 13.9047 27.0546 13.9047 22.58C13.9047 19.9606 14.7717 17.5005 16.412 15.4657C16.6788 15.1346 16.6268 14.6498 16.2958 14.383C15.9647 14.1163 15.48 14.1683 15.2131 14.4992C13.3764 16.7779 12.3647 19.6477 12.3647 22.58C12.3647 27.4935 15.169 31.9762 19.5516 34.1389V35.9783H17.8575C17.4322 35.9783 17.0875 36.3231 17.0875 36.7484V45.0646C17.0875 48.0367 19.5055 50.4547 22.4776 50.4547H28.0218C30.9939 50.4547 33.4119 48.0367 33.4119 45.0646V42.9085C33.4119 42.4832 33.0672 42.1385 32.6419 42.1385C32.2166 42.1385 31.8719 42.4832 31.8719 42.9085V44.2946H18.6276V41.6251H29.7673C30.1926 41.6251 30.5373 41.2804 30.5373 40.8551C30.5373 40.4298 30.1926 40.0851 29.7673 40.0851H18.6276V37.5184H31.872V38.8018C31.872 39.2271 32.2167 39.5718 32.642 39.5718C33.0673 39.5718 33.412 39.2271 33.412 38.8018V36.7484C33.412 36.3231 33.0673 35.9783 32.642 35.9783H30.9479V34.1389C35.3305 31.9761 38.1348 27.4933 38.1348 22.58ZM28.4899 22.6856C28.4899 22.2216 28.8395 22.0299 28.9467 21.9822C29.0539 21.9345 29.4303 21.8029 29.775 22.1131L30.3818 22.6593C30.7468 22.9878 30.6301 23.3915 30.5856 23.5075C30.5412 23.6235 30.3578 24.0017 29.8668 24.0017H28.4899V22.6856ZM22.0097 24.0019H20.6328C19.9385 24.0019 19.5987 23.1265 20.1177 22.6595L20.7244 22.1133C21.2149 21.6718 22.0097 22.0319 22.0097 22.6857V24.0019ZM31.7945 45.8346C31.4367 47.5899 29.8812 48.9147 28.0219 48.9147H22.4777C20.6184 48.9147 19.0629 47.5899 18.7052 45.8346H31.7945ZM26.9499 35.9783H23.5497V25.5419H26.9499V35.9783Z" fill="#4D4D4D"/>
<path d="M25.25 0.454712C24.8247 0.454712 24.48 0.799439 24.48 1.22473V5.53684C24.48 5.96213 24.8247 6.30686 25.25 6.30686C25.6753 6.30686 26.02 5.96213 26.02 5.53684V1.22473C26.02 0.799439 25.6753 0.454712 25.25 0.454712Z" fill="#4D4D4D"/>
<path d="M17.2927 7.46272L15.1367 3.72834C14.9241 3.36008 14.4531 3.23381 14.0848 3.44651C13.7166 3.6591 13.5904 4.1301 13.803 4.49836L15.9589 8.23274C16.1852 8.62473 16.7174 8.73625 17.0828 8.4676C17.3947 8.2383 17.4861 7.79778 17.2927 7.46272Z" fill="#4D4D4D"/>
<path d="M10.6976 13.4943L6.96323 11.3382C6.59487 11.1255 6.12388 11.2518 5.91138 11.62C5.69878 11.9883 5.82495 12.4593 6.19321 12.6719L9.92759 14.828C10.3204 15.0548 10.8366 14.8838 11.0182 14.4695C11.1737 14.1149 11.0326 13.6875 10.6976 13.4943Z" fill="#4D4D4D"/>
<path d="M8.00156 22.0153H3.68945C3.26416 22.0153 2.91943 22.36 2.91943 22.7853C2.91943 23.2106 3.26416 23.5553 3.68945 23.5553H8.00156C8.42686 23.5553 8.77158 23.2106 8.77158 22.7853C8.77158 22.3601 8.42676 22.0153 8.00156 22.0153Z" fill="#4D4D4D"/>
<path d="M10.9795 31.0246C10.7669 30.6564 10.2959 30.5301 9.92766 30.7427L6.19329 32.8988C5.85833 33.0921 5.71721 33.5194 5.87268 33.874C6.05432 34.2884 6.57053 34.4595 6.96331 34.2325L10.6977 32.0765C11.0659 31.8639 11.1921 31.3929 10.9795 31.0246Z" fill="#4D4D4D"/>
<path d="M44.307 32.8988L40.5726 30.7427C40.2042 30.53 39.7333 30.6563 39.5208 31.0245C39.3082 31.3928 39.4343 31.8638 39.8026 32.0764L43.537 34.2324C43.9297 34.4593 44.446 34.2883 44.6276 33.874C44.7832 33.5194 44.642 33.0921 44.307 32.8988Z" fill="#4D4D4D"/>
<path d="M46.8106 22.0153H42.4985C42.0732 22.0153 41.7285 22.36 41.7285 22.7853C41.7285 23.2106 42.0732 23.5553 42.4985 23.5553H46.8106C47.2359 23.5553 47.5807 23.2106 47.5807 22.7853C47.5807 22.3601 47.2359 22.0153 46.8106 22.0153Z" fill="#4D4D4D"/>
<path d="M44.5888 11.62C44.3762 11.2518 43.9052 11.1256 43.537 11.3382L39.8026 13.4943C39.4343 13.7069 39.3082 14.1779 39.5208 14.5461C39.6633 14.7931 39.9222 14.9313 40.1883 14.9313C40.3189 14.9313 40.4514 14.898 40.5726 14.828L44.307 12.6719C44.6753 12.4592 44.8015 11.9883 44.5888 11.62Z" fill="#4D4D4D"/>
<path d="M36.4152 3.44651C36.0469 3.23381 35.5759 3.36008 35.3633 3.72834L33.2073 7.46272C32.9947 7.83098 33.1208 8.30198 33.4891 8.51457C33.8529 8.72463 34.3313 8.59592 34.541 8.23274L36.697 4.49836C36.9096 4.1301 36.7834 3.6591 36.4152 3.44651Z" fill="#4D4D4D"/>
</g>
<defs>
<clipPath id="clip0_715_3840">
<rect width="50" height="50" fill="white" transform="translate(0.25 0.454712)"/>
</clipPath>
</defs>
</svg>
