<svg width="76" height="59" viewBox="0 0 76 59" fill="none" xmlns="http://www.w3.org/2000/svg">
<path d="M7.23364 56.1911C6.89858 48.1915 8.54418 40.3526 12.0351 33.744C15.5525 27.0317 20.9653 21.8922 27.1767 19.0857C32.9203 16.4975 40.2044 15.3341 46.1145 19.0204C48.9569 20.805 51.2419 23.6208 52.5454 27.1299C53.7867 30.498 54.1738 34.2908 53.6476 37.817C52.5228 45.2298 47.4597 50.7681 41.556 52.8298C38.543 53.8696 35.1517 54.3148 32.0667 52.8655C28.7157 51.3051 26.8179 47.4329 25.6009 43.6613C23.313 36.5467 23.3112 28.5484 25.5147 21.6779C27.7445 14.7036 32.3254 9.28568 38.0598 6.34888C43.7197 3.47293 50.2476 3.11977 56.2451 5.69353C62.0173 8.15021 67.0796 13.1601 70.3612 19.3798C71.1607 20.8627 71.8114 22.4674 72.3806 24.084C72.8875 25.5597 71.0304 26.5307 70.5164 25.0061C68.4457 18.8096 64.4629 13.4921 59.6029 10.1524C54.5583 6.68967 48.7752 5.58433 43.275 6.98723C37.7676 8.34117 32.7878 12.1676 29.6769 17.6709C26.5659 23.1742 25.3911 30.2444 26.255 37.017C26.7073 40.4004 27.6367 43.914 29.1878 46.837C30.0352 48.363 31.1058 49.7064 32.5056 50.4518C33.8095 51.1113 35.2193 51.3554 36.627 51.2999C42.2172 51.0836 47.8443 47.4126 50.4088 41.5892C52.846 36.0343 52.1868 28.382 48.1675 23.6698C43.8463 18.6017 37.0573 18.593 31.7752 20.064C25.7664 21.6912 20.2637 25.644 16.3159 31.1194C12.4017 36.54 9.99438 43.4403 9.39249 50.7268C9.2685 52.4446 9.19243 54.2054 9.27945 55.9424C9.2908 56.5906 9.05038 57.2256 8.43877 57.3149C7.94235 57.3374 7.28576 56.8333 7.23364 56.1911Z" fill="#CCCCCC"/>
</svg>
