<svg width="131" height="116" viewBox="0 0 131 116" fill="none" xmlns="http://www.w3.org/2000/svg">
<mask id="path-1-inside-1_715_3480" fill="white">
<path d="M20.2114 30.4547C20.2114 24.9319 24.6886 20.4547 30.2114 20.4547H120.211C125.734 20.4547 130.211 24.9319 130.211 30.4547V105.455C130.211 110.978 125.734 115.455 120.211 115.455H30.2114C24.6886 115.455 20.2114 110.978 20.2114 105.455V30.4547Z"/>
</mask>
<path d="M20.2114 30.4547C20.2114 24.9319 24.6886 20.4547 30.2114 20.4547H120.211C125.734 20.4547 130.211 24.9319 130.211 30.4547V105.455C130.211 110.978 125.734 115.455 120.211 115.455H30.2114C24.6886 115.455 20.2114 110.978 20.2114 105.455V30.4547Z" fill="#92B388"/>
<path d="M20.2114 20.4547H130.211H20.2114ZM130.211 105.455C130.211 112.082 124.839 117.455 118.211 117.455H29.2114C22.584 117.455 17.2114 112.082 17.2114 105.455H23.2114C23.2114 109.873 26.3454 113.455 30.2114 113.455H120.211C125.734 113.455 130.211 109.873 130.211 105.455ZM29.2114 117.455C22.584 117.455 17.2114 112.082 17.2114 105.455V33.4547C17.2114 26.275 23.0317 20.4547 30.2114 20.4547C26.3454 20.4547 23.2114 24.9319 23.2114 30.4547V105.455C23.2114 109.873 26.3454 113.455 30.2114 113.455L29.2114 117.455ZM130.211 20.4547V115.455V20.4547Z" fill="#C6542D" mask="url(#path-1-inside-1_715_3480)"/>
<rect x="0.211426" y="0.454712" width="40" height="40" rx="20" fill="black" fill-opacity="0.69"/>
<path d="M19.0894 20.9427C19.0894 21.7547 19.0241 22.478 18.8934 23.1127C18.7721 23.7474 18.5761 24.2887 18.3054 24.7367C18.0441 25.1754 17.6941 25.5114 17.2554 25.7447C16.8261 25.978 16.3081 26.0947 15.7014 26.0947C14.9361 26.0947 14.3061 25.8894 13.8114 25.4787C13.3168 25.068 12.9481 24.48 12.7054 23.7147C12.4628 22.94 12.3414 22.016 12.3414 20.9427C12.3414 19.86 12.4488 18.936 12.6634 18.1707C12.8874 17.4054 13.2468 16.822 13.7414 16.4207C14.2361 16.01 14.8894 15.8047 15.7014 15.8047C16.4668 15.8047 17.0968 16.01 17.5914 16.4207C18.0954 16.822 18.4688 17.4054 18.7114 18.1707C18.9634 18.936 19.0894 19.86 19.0894 20.9427ZM13.8254 20.9427C13.8254 21.8107 13.8861 22.534 14.0074 23.1127C14.1288 23.6914 14.3248 24.1254 14.5954 24.4147C14.8754 24.704 15.2441 24.8487 15.7014 24.8487C16.1588 24.8487 16.5228 24.7087 16.7934 24.4287C17.0734 24.1394 17.2741 23.7054 17.3954 23.1267C17.5261 22.5387 17.5914 21.8107 17.5914 20.9427C17.5914 20.0747 17.5261 19.356 17.3954 18.7867C17.2741 18.208 17.0734 17.774 16.7934 17.4847C16.5228 17.1954 16.1588 17.0507 15.7014 17.0507C15.2441 17.0507 14.8754 17.1954 14.5954 17.4847C14.3248 17.774 14.1288 18.208 14.0074 18.7867C13.8861 19.356 13.8254 20.0747 13.8254 20.9427ZM26.6951 18.2687C26.6951 18.7167 26.6065 19.1087 26.4291 19.4447C26.2611 19.7714 26.0185 20.0374 25.7011 20.2427C25.3838 20.448 25.0198 20.5974 24.6091 20.6907V20.7467C25.4118 20.84 26.0091 21.092 26.4011 21.5027C26.8025 21.904 27.0031 22.436 27.0031 23.0987C27.0031 23.6774 26.8631 24.1954 26.5831 24.6527C26.3125 25.1007 25.8878 25.4554 25.3091 25.7167C24.7398 25.9687 24.0071 26.0947 23.1111 26.0947C22.5791 26.0947 22.0845 26.0527 21.6271 25.9687C21.1698 25.8847 20.7358 25.7447 20.3251 25.5487V24.2047C20.7451 24.4194 21.1931 24.5827 21.6691 24.6947C22.1545 24.8067 22.6165 24.8627 23.0551 24.8627C23.9045 24.8627 24.5158 24.704 24.8891 24.3867C25.2625 24.06 25.4491 23.6074 25.4491 23.0287C25.4491 22.6554 25.3511 22.352 25.1551 22.1187C24.9591 21.876 24.6605 21.6987 24.2591 21.5867C23.8578 21.4654 23.3585 21.4047 22.7611 21.4047H21.8511V20.1867H22.7751C23.3445 20.1867 23.8065 20.1167 24.1611 19.9767C24.5158 19.8274 24.7771 19.622 24.9451 19.3607C25.1131 19.0994 25.1971 18.8007 25.1971 18.4647C25.1971 18.0167 25.0478 17.6714 24.7491 17.4287C24.4598 17.1767 24.0398 17.0507 23.4891 17.0507C23.1531 17.0507 22.8405 17.088 22.5511 17.1627C22.2711 17.2374 22.0145 17.3354 21.7811 17.4567C21.5478 17.578 21.3191 17.7134 21.0951 17.8627L20.3671 16.8407C20.7311 16.5607 21.1745 16.3227 21.6971 16.1267C22.2291 15.9214 22.8405 15.8187 23.5311 15.8187C24.5671 15.8187 25.3511 16.0474 25.8831 16.5047C26.4245 16.9527 26.6951 17.5407 26.6951 18.2687Z" fill="white"/>
<path d="M99.5851 72.1945H99.6232C95.5189 75.8904 90.9374 80.1168 86.6834 84.0854L86.5338 84.0854L85.4849 84.0854L81.6561 84.0855L69.7073 84.0856C62.1526 84.0857 54.2557 84.0857 50.9725 84.0855C55.2753 80.0775 59.8484 75.8658 63.9304 72.1945H63.9372H64.0039H64.0709H64.138H64.2054H64.2731H64.341H64.4091H64.4775H64.5461H64.6149H64.6839H64.7532H64.8227H64.8925H64.9625H65.0327H65.1031H65.1737H65.2446H65.3157H65.387H65.4585H65.5302H65.6022H65.6743H65.7467H65.8193H65.8921H65.9651H66.0383H66.1117H66.1854H66.2592H66.3332H66.4074H66.4819H66.5565H66.6313H66.7063H66.7815H66.8569H66.9325H67.0083H67.0843H67.1604H67.2368H67.3133H67.39H67.4669H67.544H67.6212H67.6987H67.7763H67.8541H67.932H68.0102H68.0885H68.1669H68.2456H68.3244H68.4034H68.4825H68.5618H68.6413H68.7209H68.8007H68.8807H68.9608H69.041H69.1215H69.202H69.2828H69.3636H69.4447H69.5258H69.6071H69.6886H69.7702H69.852H69.9339H70.0159H70.0981H70.1804H70.2629H70.3454H70.4282H70.511H70.594H70.6771H70.7604H70.8437H70.9272H71.0108H71.0946H71.1785H71.2624H71.3466H71.4308H71.5151H71.5996H71.6842H71.7689H71.8537H71.9386H72.0236H72.1087H72.1939H72.2793H72.3647H72.4503H72.5359H72.6217H72.7075H72.7935H72.8795H72.9656H73.0519H73.1382H73.2246H73.3111H73.3977H73.4844H73.5712H73.658H73.7449H73.832H73.9191H74.0062H74.0935H74.1808H74.2682H74.3557H74.4433H74.5309H74.6186H74.7064H74.7942H74.8821H74.9701H75.0581H75.1462H75.2343H75.3225H75.4108H75.4991H75.5875H75.676H75.7645H75.853H75.9416H76.0302H76.1189H76.2077H76.2965H76.3853H76.4742H76.5631H76.652H76.741H76.8301H76.9191H77.0082H77.0974H77.1866H77.2758H77.365H77.4543H77.5435H77.6329H77.7222H77.8116H77.9009H77.9904H78.0798H78.1692H78.2587H78.3482H78.4377H78.5272H78.6167H78.7062H78.7958H78.8853H78.9748H79.0644H79.154H79.2435H79.3331H79.4227H79.5122H79.6018H79.6914H79.7809H79.8705H79.96H80.0495H80.139H80.2286H80.3181H80.4075H80.497H80.5865H80.6759H80.7653H80.8547H80.9441H81.0334H81.1227H81.212H81.3013H81.3905H81.4797H81.5689H81.6581H81.7472H81.8363H81.9253H82.0143H82.1033H82.1922H82.2811H82.3699H82.4587H82.5475H82.6362H82.7249H82.8135H82.902H82.9905H83.079H83.1674H83.2557H83.344H83.4323H83.5204H83.6085H83.6966H83.7846H83.8725H83.9603H84.0481H84.1358H84.2235H84.311H84.3985H84.486H84.5733H84.6606H84.7478H84.8349H84.922H85.0089H85.0958H85.1826H85.2693H85.3559H85.4424H85.5289H85.6152H85.7015H85.7876H85.8737H85.9597H86.0456H86.1313H86.217H86.3026H86.3881H86.4734H86.5587H86.6438H86.7289H86.8138H86.8987H86.9834H87.068H87.1525H87.2369H87.3211H87.4053H87.4893H87.5732H87.657H87.7406H87.8242H87.9076H87.9908H88.074H88.157H88.2399H88.3227H88.4053H88.4878H88.5701H88.6523H88.7344H88.8163H88.8981H88.9798H89.0613H89.1427H89.2239H89.3049H89.3858H89.4666H89.5472H89.6277H89.708H89.7882H89.8681H89.948H90.0277H90.1072H90.1865H90.2657H90.3447H90.4236H90.5023H90.5808H90.6592H90.7373H90.8153H90.8932H90.9708H91.0483H91.1256H91.2027H91.2797H91.3565H91.433H91.5094H91.5856H91.6617H91.7375H91.8131H91.8886H91.9638H92.0389H92.1138H92.1885H92.2629H92.3372H92.4113H92.4852H92.5589H92.6323H92.7056H92.7787H92.8515H92.9242H92.9966H93.0688H93.1408H93.2126H93.2842H93.3556H93.4267H93.4976H93.5683H93.6388H93.7091H93.7791H93.8489H93.9185H93.9879H94.057H94.1259H94.1945H94.263H94.3311H94.3991H94.4668H94.5343H94.6015H94.6685H94.7353H94.8018H94.868H94.9341H94.9998H95.0653H95.1306H95.1956H95.2604H95.3249H95.3891H95.4531H95.5169H95.5803H95.6436H95.7065H95.7692H95.8316H95.8938H95.9557H96.0173H96.0786H96.1397H96.2005H96.2611H96.3213H96.3813H96.441H96.5004H96.5596H96.6184H96.677H96.7353H96.7933H96.851H96.9085H96.9656H97.0225H97.079H97.1353H97.1913H97.2469H97.3023H97.3574H97.4122H97.4666H97.5208H97.5747H97.6283H97.6815H97.7345H97.7871H97.8394H97.8915H97.9432H97.9945H98.0456H98.0964H98.1468H98.1969H98.2467H98.2962H98.3454H98.3942H98.4427H98.4909H98.5387H98.5863H98.6334H98.6803H98.7268H98.773H98.8189H98.8644H98.9095H98.9544H98.9989H99.043H99.0868H99.1303H99.1734H99.2161H99.2585H99.3006H99.3423H99.3837H99.4247H99.4653H99.5056H99.5455H99.5851Z" fill="white" stroke="black"/>
<path d="M50.5699 85.1193C55.1536 80.9133 59.7684 76.7452 64.4146 72.615L63.7992 72.8782H100.484L99.8682 71.3362C95.204 75.4494 90.5973 79.6333 86.012 83.8405C85.4329 84.3701 85.9034 85.3826 86.6274 85.3826C87.7451 85.3826 87.7469 83.5772 86.6274 83.5772H49.9557C48.8376 83.5772 48.8358 85.3826 49.9557 85.3826H85.2555C85.6863 85.3826 86.1358 85.4202 86.5655 85.3826C86.5857 85.3826 86.6067 85.3826 86.6274 85.3826V83.5772L87.2434 85.1193C91.8287 80.9121 96.4354 76.7282 101.1 72.615C101.691 72.0941 101.197 71.0729 100.484 71.0729H64.1717C63.896 71.0373 63.6162 71.0799 63.362 71.1963C63.0844 71.3978 62.8238 71.6235 62.583 71.871C58.1317 75.816 53.7178 79.8062 49.3414 83.8416C48.5013 84.6134 49.7342 85.8862 50.5699 85.1193Z" fill="white" fill-opacity="0.6"/>
<path d="M74.8209 51.4202C71.3301 51.4202 67.8606 53.3827 66.2559 56.6563C64.2691 60.7118 65.2738 64.9811 67.2636 68.7534C69.1286 72.2173 71.2832 75.499 73.7017 78.5598L74.0615 79.0245C74.1532 79.1426 74.2687 79.2378 74.3997 79.3032C74.5306 79.3686 74.6736 79.4025 74.8185 79.4025C74.9634 79.4025 75.1065 79.3686 75.2374 79.3032C75.3683 79.2378 75.4838 79.1426 75.5755 79.0245L75.9354 78.5598C78.3539 75.499 80.5085 72.2173 82.3735 68.7534C84.3643 64.9811 85.3691 60.7114 83.3811 56.6563C81.7815 53.3827 78.3422 51.4202 74.8209 51.4202Z" fill="white"/>
<path d="M74.8217 50.5103C69.9958 50.5451 65.5554 53.9249 64.5492 58.9973C63.4195 64.6924 66.7045 70.0358 69.673 74.4779C70.4399 75.6252 71.2414 76.7463 72.0644 77.8493C72.4156 78.3203 72.7713 78.7877 73.1314 79.2516C73.3579 79.6007 73.6551 79.8925 74.0016 80.106C74.2743 80.2474 74.5757 80.3164 74.8795 80.307C75.1834 80.2977 75.4804 80.2101 75.7448 80.0521C76.0559 79.8277 76.3254 79.5451 76.5398 79.2183C77.3521 78.1694 78.143 77.103 78.9124 76.019C80.5675 73.7249 82.0524 71.3 83.3539 68.7657C84.5653 66.3483 85.4362 63.6315 85.3185 60.867C85.2704 59.4146 84.9404 57.988 84.349 56.6749C83.7576 55.3619 82.9172 54.1904 81.8795 53.2324C79.9018 51.4836 77.4041 50.5211 74.8217 50.5126C73.7101 50.5046 73.709 52.3239 74.8217 52.3318C76.7547 52.3393 78.6383 52.9759 80.2144 54.1545C81.8835 55.4423 83.0311 57.3447 83.4288 59.4832C83.8837 61.785 83.4079 64.183 82.5565 66.3203C81.615 68.6827 80.2284 70.892 78.8537 72.9952C78.1717 74.039 77.4628 75.0624 76.7273 76.0652C76.3705 76.5527 76.0081 77.0355 75.6401 77.5139C75.4351 77.8122 75.214 78.098 74.9779 78.3697C74.8239 78.5273 74.8275 78.5289 74.676 78.3826C74.4705 78.1522 74.2805 77.907 74.1074 77.6488C73.3603 76.6777 72.6346 75.6891 71.9302 74.683C70.4624 72.5999 69.1279 70.4162 67.9356 68.1464C66.8444 66.041 66.0283 63.6986 66.0445 61.2725C66.0428 60.0164 66.2944 58.7743 66.7826 57.6283C67.2708 56.4822 67.9844 55.4584 68.8763 54.6245C70.5379 53.142 72.6455 52.3292 74.8232 52.3311C75.933 52.3216 75.9355 50.5023 74.8217 50.5103Z" fill="#585757" fill-opacity="0.38"/>
<path d="M74.8217 57.6131C74.3762 57.6037 73.9335 57.6889 73.5199 57.8635C73.1064 58.038 72.7304 58.2985 72.4144 58.6293C72.0984 58.9601 71.8488 59.3545 71.6805 59.789C71.5123 60.2235 71.4287 60.6892 71.4349 61.1584C71.4349 63.2968 72.8488 64.7697 74.8217 64.7697C76.8708 64.7697 78.2088 63.2832 78.2088 61.1584C78.2153 60.6891 78.132 60.2231 77.9638 59.7885C77.7956 59.3538 77.546 58.9592 77.2299 58.6283C76.9138 58.2974 76.5376 58.037 76.1239 57.8626C75.7101 57.6882 75.2672 57.6033 74.8217 57.6131Z" fill="white"/>
<path fill-rule="evenodd" clip-rule="evenodd" d="M75.5615 57.2518C75.4055 57.1909 75.2079 57.1909 74.8125 57.1909C74.4171 57.1909 74.2194 57.1909 74.0635 57.2518C73.8556 57.333 73.6904 57.4888 73.6043 57.6848C73.565 57.7743 73.5496 57.8783 73.5436 58.0301C73.5347 58.2532 73.4134 58.4597 73.2084 58.5713C73.0033 58.6829 72.753 58.6787 72.5437 58.5744C72.4012 58.5034 72.2979 58.464 72.1961 58.4513C71.973 58.4236 71.7473 58.4806 71.5688 58.6098C71.4349 58.7067 71.336 58.8681 71.1384 59.1909C70.9407 59.5137 70.8418 59.6751 70.8198 59.8329C70.7904 60.0432 70.8509 60.256 70.9879 60.4243C71.0504 60.5012 71.1383 60.5657 71.2747 60.6465C71.4752 60.7653 71.6042 60.9677 71.6042 61.1909C71.6042 61.4142 71.4752 61.6165 71.2747 61.7352C71.1383 61.8161 71.0504 61.8807 70.9878 61.9575C70.8508 62.1258 70.7904 62.3386 70.8198 62.5489C70.8418 62.7067 70.9406 62.8681 71.1383 63.1909C71.336 63.5137 71.4348 63.6752 71.5687 63.772C71.7473 63.9012 71.9729 63.9582 72.196 63.9305C72.2979 63.9178 72.4011 63.8784 72.5436 63.8074C72.7529 63.7031 73.0033 63.6989 73.2083 63.8105C73.4134 63.9222 73.5347 64.1286 73.5436 64.3518C73.5496 64.5035 73.565 64.6076 73.6043 64.6971C73.6904 64.8931 73.8556 65.0488 74.0635 65.13C74.2194 65.1909 74.4171 65.1909 74.8125 65.1909C75.2079 65.1909 75.4055 65.1909 75.5615 65.13C75.7694 65.0488 75.9346 64.8931 76.0207 64.6971C76.06 64.6076 76.0754 64.5035 76.0814 64.3517C76.0903 64.1286 76.2116 63.9222 76.4166 63.8105C76.6217 63.6989 76.872 63.7031 77.0814 63.8074C77.2238 63.8784 77.3271 63.9178 77.4289 63.9304C77.652 63.9582 77.8777 63.9012 78.0562 63.772C78.1901 63.6751 78.289 63.5137 78.4866 63.1909C78.6843 62.8681 78.7831 62.7067 78.8052 62.5489C78.8346 62.3386 78.7741 62.1258 78.6371 61.9575C78.5746 61.8806 78.4867 61.816 78.3503 61.7352C78.1498 61.6165 78.0208 61.4141 78.0208 61.1909C78.0208 60.9676 78.1498 60.7654 78.3503 60.6466C78.4867 60.5658 78.5746 60.5012 78.6372 60.4243C78.7741 60.256 78.8346 60.0433 78.8052 59.8329C78.7832 59.6751 78.6844 59.5137 78.4867 59.1909C78.289 58.8681 78.1902 58.7067 78.0562 58.6098C77.8777 58.4807 77.6521 58.4237 77.429 58.4514C77.3271 58.464 77.2238 58.5035 77.0814 58.5744C76.8721 58.6788 76.6217 58.6829 76.4167 58.5713C76.2116 58.4597 76.0903 58.2532 76.0814 58.0301C76.0754 57.8783 76.06 57.7742 76.0207 57.6848C75.9346 57.4888 75.7694 57.333 75.5615 57.2518ZM74.8125 62.3909C75.5154 62.3909 76.0853 61.8537 76.0853 61.1909C76.0853 60.5282 75.5154 59.9909 74.8125 59.9909C74.1095 59.9909 73.5397 60.5282 73.5397 61.1909C73.5397 61.8537 74.1095 62.3909 74.8125 62.3909Z" fill="black"/>
</svg>
