<svg width="21" height="21" viewBox="0 0 21 21" fill="none" xmlns="http://www.w3.org/2000/svg">
<path d="M16.6185 14.6667V10.3334C16.2018 10.4167 15.7852 10.5 15.3685 10.5H14.9518V15.5H6.61849V9.66669C6.61849 7.33335 8.45182 5.50002 10.7852 5.50002C10.8685 4.41669 11.3685 3.50002 12.0352 2.75002C11.7852 2.41669 11.2852 2.16669 10.7852 2.16669C9.86849 2.16669 9.11849 2.91669 9.11849 3.83335V4.08335C6.61849 4.83335 4.95182 7.08335 4.95182 9.66669V14.6667L3.28516 16.3334V17.1667H18.2852V16.3334L16.6185 14.6667ZM9.11849 18C9.11849 18.9167 9.86849 19.6667 10.7852 19.6667C11.7018 19.6667 12.4518 18.9167 12.4518 18H9.11849ZM18.2852 5.91669C18.2852 7.50002 16.9518 8.83335 15.3685 8.83335C13.7852 8.83335 12.4518 7.50002 12.4518 5.91669C12.4518 4.33335 13.7852 3.00002 15.3685 3.00002C16.9518 3.00002 18.2852 4.33335 18.2852 5.91669Z" fill="#F9F1D9"/>
</svg>
