<svg width="21" height="21" viewBox="0 0 21 21" fill="none" xmlns="http://www.w3.org/2000/svg">
<path d="M10.7858 3.83331C11.6699 3.83331 12.5177 4.1845 13.1428 4.80962C13.768 5.43474 14.1191 6.28259 14.1191 7.16665C14.1191 8.0507 13.768 8.89855 13.1428 9.52367C12.5177 10.1488 11.6699 10.5 10.7858 10.5C9.90175 10.5 9.05391 10.1488 8.42878 9.52367C7.80366 8.89855 7.45247 8.0507 7.45247 7.16665C7.45247 6.28259 7.80366 5.43474 8.42878 4.80962C9.05391 4.1845 9.90175 3.83331 10.7858 3.83331ZM10.7858 12.1666C14.4691 12.1666 17.4525 13.6583 17.4525 15.5V17.1666H4.11914V15.5C4.11914 13.6583 7.10247 12.1666 10.7858 12.1666Z" fill="#F9F1D9"/>
</svg>
