<svg width="50" height="50" viewBox="0 0 50 50" fill="none" xmlns="http://www.w3.org/2000/svg">
<path d="M48.6022 3.13639H47.9294V0.80719C47.9294 0.378381 47.5818 0.0308228 47.153 0.0308228H41.1489C40.72 0.0308228 40.3726 0.378479 40.3726 0.80719V3.13639H39.4927C39.0638 3.13639 38.7163 3.48405 38.7163 3.91276V6.39723C38.7163 6.82604 39.0639 7.1736 39.4927 7.1736H40.3726V9.5028C40.3726 9.9316 40.7201 10.2792 41.1489 10.2792C41.5778 10.2792 41.9253 9.93151 41.9253 9.5028V7.17369H46.3767V18.4055C46.3767 23.1147 42.5454 26.9459 37.8363 26.9459H31.9875V22.2875H38.0434C40.1839 22.2875 41.9254 20.5461 41.9254 18.4054V13.6435C41.9254 13.2147 41.5778 12.8672 41.149 12.8672C40.7201 12.8672 40.3727 13.2148 40.3727 13.6435V18.4054C40.3727 19.6898 39.3277 20.7346 38.0435 20.7346H31.9876V19.6477C31.9876 19.2189 31.64 18.8713 31.2112 18.8713H28.7268C28.2979 18.8713 27.9504 19.219 27.9504 19.6477V20.7346H26.1902V15.2481H27.0233C27.3623 16.4415 28.4611 17.3185 29.7616 17.3185C31.3313 17.3185 32.6084 16.0415 32.6084 14.4717C32.6084 12.902 31.3313 11.625 29.7616 11.625C28.4611 11.625 27.3622 12.502 27.0233 13.6954H23.8043C23.4653 12.502 22.3665 11.625 21.066 11.625C19.4964 11.625 18.2192 12.902 18.2192 14.4717C18.2192 16.0415 19.4964 17.3185 21.066 17.3185C22.3665 17.3185 23.4654 16.4415 23.8043 15.2481H24.6374V20.7346H22.8775V19.6477C22.8775 19.2189 22.53 18.8713 22.1012 18.8713H19.6167C19.1878 18.8713 18.8403 19.219 18.8403 19.6477V20.7346H12.3703C6.80488 20.7346 2.27715 25.2624 2.27715 30.8278V34.3474C2.27715 34.7762 2.62471 35.1238 3.05352 35.1238C3.48242 35.1238 3.82988 34.7761 3.82988 34.3474V30.8278C3.82988 26.1186 7.66113 22.2875 12.3702 22.2875H18.8402V26.9459H12.1632C10.0226 26.9459 8.28115 28.6873 8.28115 30.8279V42.6809H3.83008V38.4883C3.83008 38.0595 3.48252 37.712 3.05371 37.712C2.6248 37.712 2.27734 38.0596 2.27734 38.4883V42.6809H1.39746C0.968555 42.6809 0.621094 43.0286 0.621094 43.4573V45.9418C0.621094 46.3706 0.968652 46.7181 1.39746 46.7181H2.27734V49.0473C2.27734 49.4761 2.6249 49.8237 3.05371 49.8237H9.05781C9.48672 49.8237 9.83418 49.476 9.83418 49.0473V46.7181H10.507C10.9359 46.7181 11.2834 46.3705 11.2834 45.9418V43.4573C11.2834 43.0285 10.9358 42.6809 10.507 42.6809H9.83418V30.8279C9.83418 29.5435 10.8791 28.4987 12.1634 28.4987H18.8404V29.5856C18.8404 30.0144 19.188 30.362 19.6168 30.362H22.1013C22.5302 30.362 22.8776 30.0143 22.8776 29.5856V28.4987H27.9501V29.5856C27.9501 30.0144 28.2977 30.362 28.7265 30.362H31.2109C31.6398 30.362 31.9873 30.0143 31.9873 29.5856V28.4987H37.8361C43.4016 28.4987 47.9293 23.971 47.9293 18.4055V7.17369H48.6021C49.0311 7.17369 49.3785 6.82604 49.3785 6.39733V3.91285C49.3787 3.48405 49.0312 3.13639 48.6022 3.13639ZM29.7617 13.1778C30.4753 13.1778 31.0558 13.7583 31.0558 14.4718C31.0558 15.1854 30.4753 15.7658 29.7617 15.7658C29.0481 15.7658 28.4678 15.1853 28.4678 14.4718C28.4678 13.7584 29.0481 13.1778 29.7617 13.1778ZM21.066 15.7658C20.3524 15.7658 19.772 15.1853 19.772 14.4718C19.772 13.7584 20.3524 13.1778 21.066 13.1778C21.7796 13.1778 22.36 13.7583 22.36 14.4718C22.36 15.1854 21.7796 15.7658 21.066 15.7658ZM8.28135 48.271H3.83008V46.7181H8.28145L8.28135 48.271ZM9.73066 45.1654H2.17373V44.2338H9.73066V45.1654ZM21.3249 28.8093H20.3933V20.4243H21.3249V28.8093ZM27.9501 26.946H22.8776V22.2876H27.9501V26.946ZM30.4346 28.8093H29.5029V24.6168V20.4243H30.4346V28.8093ZM41.9253 1.58365H46.3767V3.13649H41.9253V1.58365ZM47.8259 5.62086H40.2689V4.68922H47.8259V5.62086Z" fill="white"/>
</svg>
