<svg width="131" height="116" viewBox="0 0 131 116" fill="none" xmlns="http://www.w3.org/2000/svg">
<mask id="path-1-inside-1_0_1" fill="white">
<path d="M20.2119 30.4547C20.2119 24.9319 24.6891 20.4547 30.2119 20.4547H120.212C125.735 20.4547 130.212 24.9319 130.212 30.4547V105.455C130.212 110.978 125.735 115.455 120.212 115.455H30.2119C24.6891 115.455 20.2119 110.978 20.2119 105.455V30.4547Z"/>
</mask>
<path d="M20.2119 30.4547C20.2119 24.9319 24.6891 20.4547 30.2119 20.4547H120.212C125.735 20.4547 130.212 24.9319 130.212 30.4547V105.455C130.212 110.978 125.735 115.455 120.212 115.455H30.2119C24.6891 115.455 20.2119 110.978 20.2119 105.455V30.4547Z" fill="#92B388"/>
<path d="M20.2119 20.4547H130.212H20.2119ZM130.212 105.455C130.212 112.082 124.839 117.455 118.212 117.455H29.2119C22.5845 117.455 17.2119 112.082 17.2119 105.455H23.2119C23.2119 109.873 26.3459 113.455 30.2119 113.455H120.212C125.735 113.455 130.212 109.873 130.212 105.455ZM29.2119 117.455C22.5845 117.455 17.2119 112.082 17.2119 105.455V33.4547C17.2119 26.275 23.0322 20.4547 30.2119 20.4547C26.3459 20.4547 23.2119 24.9319 23.2119 30.4547V105.455C23.2119 109.873 26.3459 113.455 30.2119 113.455L29.2119 117.455ZM130.212 20.4547V115.455V20.4547Z" fill="#C6542D" mask="url(#path-1-inside-1_0_1)"/>
<rect x="0.211914" y="0.454712" width="40" height="40" rx="20" fill="black" fill-opacity="0.69"/>
<path d="M19.0899 20.9427C19.0899 21.7547 19.0246 22.478 18.8939 23.1127C18.7726 23.7474 18.5766 24.2887 18.3059 24.7367C18.0446 25.1754 17.6946 25.5114 17.2559 25.7447C16.8266 25.978 16.3086 26.0947 15.7019 26.0947C14.9366 26.0947 14.3066 25.8894 13.8119 25.4787C13.3172 25.068 12.9486 24.48 12.7059 23.7147C12.4632 22.94 12.3419 22.016 12.3419 20.9427C12.3419 19.86 12.4492 18.936 12.6639 18.1707C12.8879 17.4054 13.2472 16.822 13.7419 16.4207C14.2366 16.01 14.8899 15.8047 15.7019 15.8047C16.4672 15.8047 17.0972 16.01 17.5919 16.4207C18.0959 16.822 18.4692 17.4054 18.7119 18.1707C18.9639 18.936 19.0899 19.86 19.0899 20.9427ZM13.8259 20.9427C13.8259 21.8107 13.8866 22.534 14.0079 23.1127C14.1292 23.6914 14.3252 24.1254 14.5959 24.4147C14.8759 24.704 15.2446 24.8487 15.7019 24.8487C16.1592 24.8487 16.5232 24.7087 16.7939 24.4287C17.0739 24.1394 17.2746 23.7054 17.3959 23.1267C17.5266 22.5387 17.5919 21.8107 17.5919 20.9427C17.5919 20.0747 17.5266 19.356 17.3959 18.7867C17.2746 18.208 17.0739 17.774 16.7939 17.4847C16.5232 17.1954 16.1592 17.0507 15.7019 17.0507C15.2446 17.0507 14.8759 17.1954 14.5959 17.4847C14.3252 17.774 14.1292 18.208 14.0079 18.7867C13.8866 19.356 13.8259 20.0747 13.8259 20.9427ZM24.9316 25.9547H23.4616V19.3187C23.4616 19.0854 23.4616 18.8707 23.4616 18.6747C23.471 18.4694 23.4803 18.2734 23.4896 18.0867C23.499 17.8907 23.5083 17.704 23.5176 17.5267C23.3963 17.648 23.2703 17.7647 23.1396 17.8767C23.009 17.9887 22.8596 18.1194 22.6916 18.2687L21.5996 19.1507L20.8436 18.1987L23.6996 15.9587H24.9316V25.9547Z" fill="white"/>
<path d="M73.3339 48.948L66.0827 48.9507C64.8777 48.9507 64.8758 50.8235 66.0827 50.8235L73.3323 50.8208C74.5376 50.8208 74.5396 48.948 73.3323 48.948H73.3339Z" fill="white"/>
<path d="M59.6493 57.8037L57.7163 57.8072C57.4067 57.8114 57.1104 57.9342 56.8886 58.1502C56.6692 58.3697 56.5459 58.6673 56.5459 58.9777C56.5459 59.2881 56.6692 59.5858 56.8886 59.8053C57.1108 60.0207 57.4068 60.1434 57.7163 60.1482L59.6493 60.1447C59.9589 60.1405 60.2552 60.0178 60.477 59.8017C60.6964 59.5822 60.8197 59.2846 60.8197 58.9742C60.8197 58.6638 60.6964 58.3662 60.477 58.1467C60.2548 57.9312 59.9588 57.8085 59.6493 57.8037Z" fill="#F3F3F3"/>
<path d="M66.8725 57.8037L64.9394 57.8072C64.6298 57.8114 64.3336 57.9342 64.1118 58.1502C63.8923 58.3697 63.769 58.6673 63.769 58.9777C63.769 59.2881 63.8923 59.5858 64.1118 59.8053C64.3339 60.0207 64.6299 60.1434 64.9394 60.1482L66.8725 60.1447C67.1821 60.1405 67.4783 60.0178 67.7001 59.8017C67.9196 59.5822 68.0429 59.2846 68.0429 58.9742C68.0429 58.6638 67.9196 58.3662 67.7001 58.1467C67.4779 57.9312 67.182 57.8085 66.8725 57.8037Z" fill="#656464"/>
<path d="M74.0956 57.8037L72.1626 57.8072C71.8529 57.8114 71.5567 57.9342 71.3349 58.1502C71.1155 58.3697 70.9922 58.6673 70.9922 58.9777C70.9922 59.2881 71.1155 59.5858 71.3349 59.8053C71.5571 60.0207 71.8531 60.1434 72.1626 60.1482L74.0956 60.1447C74.4052 60.1405 74.7014 60.0178 74.9233 59.8017C75.1427 59.5822 75.266 59.2846 75.266 58.9742C75.266 58.6638 75.1427 58.3662 74.9233 58.1467C74.7011 57.9312 74.4051 57.8085 74.0956 57.8037Z" fill="white"/>
<path d="M81.3188 57.8037L79.3861 57.8072C79.0763 57.8113 78.78 57.9341 78.5581 58.1502C78.3386 58.3697 78.2153 58.6673 78.2153 58.9777C78.2153 59.2881 78.3386 59.5858 78.5581 59.8053C78.7804 60.0208 79.0765 60.1434 79.3861 60.1482L81.3188 60.1447C81.6284 60.1405 81.9246 60.0178 82.1464 59.8017C82.3659 59.5822 82.4891 59.2846 82.4891 58.9742C82.4891 58.6638 82.3659 58.3662 82.1464 58.1467C81.9242 57.9312 81.6282 57.8085 81.3188 57.8037Z" fill="white"/>
<path d="M59.6495 64.7554L57.7165 64.7589C57.4069 64.7627 57.1106 64.8854 56.8888 65.1014C56.7801 65.2101 56.6939 65.3392 56.635 65.4812C56.5762 65.6232 56.5459 65.7755 56.5459 65.9292C56.5459 66.0829 56.5762 66.2351 56.635 66.3772C56.6939 66.5192 56.7801 66.6482 56.8888 66.7569C57.111 66.9724 57.407 67.095 57.7165 67.0999L59.6495 67.0964C59.9591 67.0922 60.2554 66.9694 60.4772 66.7534C60.5859 66.6447 60.6721 66.5157 60.731 66.3736C60.7898 66.2316 60.8201 66.0794 60.8201 65.9257C60.8201 65.7719 60.7898 65.6197 60.731 65.4777C60.6721 65.3357 60.5859 65.2066 60.4772 65.0979C60.2551 64.8824 59.959 64.7599 59.6495 64.7554Z" fill="#F3F3F3"/>
<path d="M66.8727 64.7554L64.9396 64.7589C64.63 64.7627 64.3337 64.8854 64.112 65.1014C64.0033 65.2101 63.917 65.3392 63.8582 65.4812C63.7993 65.6232 63.769 65.7755 63.769 65.9292C63.769 66.0829 63.7993 66.2351 63.8582 66.3772C63.917 66.5192 64.0033 66.6482 64.112 66.7569C64.3341 66.9724 64.6301 67.095 64.9396 67.0999L66.8727 67.0964C67.1823 67.0922 67.4785 66.9694 67.7003 66.7534C67.809 66.6447 67.8953 66.5157 67.9541 66.3736C68.013 66.2316 68.0432 66.0794 68.0432 65.9257C68.0432 65.7719 68.013 65.6197 67.9541 65.4777C67.8953 65.3357 67.809 65.2066 67.7003 65.0979C67.4782 64.8824 67.1822 64.7599 66.8727 64.7554Z" fill="white"/>
<path d="M74.0958 64.7554L72.1627 64.7589C71.8531 64.7627 71.5569 64.8854 71.3351 65.1014C71.2264 65.2101 71.1402 65.3392 71.0813 65.4812C71.0225 65.6232 70.9922 65.7755 70.9922 65.9292C70.9922 66.0829 71.0225 66.2351 71.0813 66.3772C71.1402 66.5192 71.2264 66.6482 71.3351 66.7569C71.5573 66.9724 71.8533 67.095 72.1627 67.0999L74.0958 67.0964C74.4054 67.0922 74.7016 66.9694 74.9235 66.7534C75.0322 66.6447 75.1184 66.5157 75.1773 66.3736C75.2361 66.2316 75.2664 66.0794 75.2664 65.9257C75.2664 65.7719 75.2361 65.6197 75.1773 65.4777C75.1184 65.3357 75.0322 65.2066 74.9235 65.0979C74.7014 64.8824 74.4053 64.7599 74.0958 64.7554Z" fill="white"/>
<path d="M81.319 64.7554L79.3863 64.7589C79.0766 64.7629 78.7802 64.8855 78.5583 65.1014C78.4495 65.2101 78.3633 65.3392 78.3045 65.4812C78.2456 65.6232 78.2153 65.7755 78.2153 65.9292C78.2153 66.0829 78.2456 66.2351 78.3045 66.3772C78.3633 66.5192 78.4495 66.6482 78.5583 66.7569C78.7806 66.9724 79.0767 67.0951 79.3863 67.0999L81.319 67.0964C81.6286 67.0922 81.9248 66.9694 82.1466 66.7534C82.2553 66.6447 82.3416 66.5157 82.4004 66.3736C82.4592 66.2316 82.4895 66.0794 82.4895 65.9257C82.4895 65.7719 82.4592 65.6197 82.4004 65.4777C82.3416 65.3357 82.2553 65.2066 82.1466 65.0979C81.9245 64.8824 81.6284 64.7599 81.319 64.7554Z" fill="white"/>
<path d="M59.6495 71.7053L57.7165 71.7088C57.4069 71.713 57.1106 71.8358 56.8888 72.0518C56.7801 72.1605 56.6939 72.2895 56.635 72.4315C56.5762 72.5736 56.5459 72.7258 56.5459 72.8795C56.5459 73.0333 56.5762 73.1855 56.635 73.3275C56.6939 73.4695 56.7801 73.5986 56.8888 73.7073C57.1109 73.9228 57.407 74.0453 57.7165 74.0498L59.6495 74.0463C59.9591 74.0425 60.2554 73.9198 60.4772 73.7037C60.5859 73.5951 60.6721 73.466 60.731 73.324C60.7898 73.182 60.8201 73.0297 60.8201 72.876C60.8201 72.7223 60.7898 72.5701 60.731 72.428C60.6721 72.286 60.5859 72.157 60.4772 72.0483C60.255 71.8328 59.959 71.7101 59.6495 71.7053Z" fill="#F3F3F3"/>
<path d="M66.8727 71.7053L64.9396 71.7088C64.63 71.713 64.3338 71.8358 64.112 72.0518C64.0033 72.1605 63.917 72.2895 63.8582 72.4315C63.7993 72.5736 63.769 72.7258 63.769 72.8795C63.769 73.0333 63.7993 73.1855 63.8582 73.3275C63.917 73.4695 64.0033 73.5986 64.112 73.7073C64.3341 73.9228 64.6301 74.0453 64.9396 74.0498L66.8727 74.0463C67.1823 74.0425 67.4786 73.9198 67.7003 73.7037C67.809 73.5951 67.8953 73.466 67.9541 73.324C68.013 73.182 68.0432 73.0297 68.0432 72.876C68.0432 72.7223 68.013 72.5701 67.9541 72.428C67.8953 72.286 67.809 72.157 67.7003 72.0483C67.4781 71.8328 67.1822 71.7101 66.8727 71.7053Z" fill="white"/>
<path d="M74.0958 71.7053L72.1627 71.7088C71.8531 71.713 71.5569 71.8358 71.3351 72.0518C71.2264 72.1605 71.1402 72.2895 71.0813 72.4315C71.0225 72.5736 70.9922 72.7258 70.9922 72.8795C70.9922 73.0333 71.0225 73.1855 71.0813 73.3275C71.1402 73.4695 71.2264 73.5986 71.3351 73.7073C71.5572 73.9228 71.8533 74.0453 72.1627 74.0498L74.0958 74.0463C74.4054 74.0425 74.7017 73.9198 74.9235 73.7037C75.0322 73.5951 75.1184 73.466 75.1773 73.324C75.2361 73.182 75.2664 73.0297 75.2664 72.876C75.2664 72.7223 75.2361 72.5701 75.1773 72.428C75.1184 72.286 75.0322 72.157 74.9235 72.0483C74.7013 71.8328 74.4053 71.7101 74.0958 71.7053Z" fill="white"/>
<path d="M81.319 71.7053L79.3863 71.7088C79.0765 71.7129 78.7802 71.8357 78.5583 72.0518C78.4495 72.1605 78.3633 72.2895 78.3045 72.4315C78.2456 72.5736 78.2153 72.7258 78.2153 72.8795C78.2153 73.0333 78.2456 73.1855 78.3045 73.3275C78.3633 73.4695 78.4495 73.5986 78.5583 73.7073C78.7805 73.9228 79.0767 74.0453 79.3863 74.0498L81.319 74.0463C81.6286 74.0425 81.9249 73.9198 82.1466 73.7037C82.2553 73.5951 82.3416 73.466 82.4004 73.324C82.4592 73.182 82.4895 73.0297 82.4895 72.876C82.4895 72.7223 82.4592 72.5701 82.4004 72.428C82.3416 72.286 82.2553 72.157 82.1466 72.0483C81.9244 71.8328 81.6284 71.7101 81.319 71.7053Z" fill="white"/>
<path d="M57.7094 48.955C55.959 48.955 54.2084 48.955 52.4576 48.955C51.5504 48.955 50.6924 49.0361 49.9268 49.5792C49.4995 49.8814 49.145 50.2752 48.8893 50.7317C48.6335 51.1883 48.4828 51.6962 48.4483 52.2183C48.3808 53.0794 48.4401 53.9674 48.4405 54.8324V57.633C48.4405 59.6541 48.4414 61.675 48.4432 63.6958C48.4448 67.4962 48.4469 71.297 48.4495 75.0979V77.263C48.4495 78.1213 48.4405 78.9496 48.8428 79.7382C49.0745 80.1819 49.3997 80.57 49.7959 80.8759C50.1921 81.1818 50.65 81.3981 51.138 81.5099C52.004 81.6304 52.8802 81.6596 53.7523 81.5969L78.0134 81.5879L83.7342 81.5852H86.228C87.1972 81.5852 88.106 81.5212 88.9153 80.9239C89.3379 80.6139 89.6859 80.2134 89.9339 79.7516C90.1819 79.2899 90.3235 78.7786 90.3485 78.2551C90.4063 77.2087 90.3513 76.1444 90.3509 75.0968C90.3509 72.8229 90.3498 70.5491 90.3478 68.2755C90.3459 63.8068 90.3441 59.3382 90.3423 54.8695C90.3881 53.9157 90.3773 52.9601 90.3099 52.0076C90.2484 51.4894 90.0716 50.9916 89.7926 50.5507C89.5135 50.1097 89.1392 49.7369 88.6972 49.4595C87.9745 49.0614 87.1515 48.8823 86.3286 48.9441H83.9382H81.7777C80.5723 48.9441 80.5704 50.8168 81.7777 50.8168C83.2344 50.8168 84.6912 50.8168 86.148 50.8168C86.7462 50.8168 87.3541 50.7556 87.8579 51.1461C88.4919 51.637 88.4697 52.3385 88.4701 53.0661C88.4716 57.1369 88.4733 61.2076 88.4752 65.2783C88.4752 67.4871 88.4761 69.6959 88.4779 71.9044C88.4779 73.9747 88.5317 76.0523 88.4806 78.1217C88.4785 78.451 88.3755 78.7718 88.1853 79.0407C87.9952 79.3095 87.7271 79.5136 87.4173 79.6254C86.7778 79.8521 85.9252 79.7132 85.2521 79.7136H80.188L56.9235 79.7241C55.2913 79.7241 53.6583 79.7366 52.0257 79.7265C51.7001 79.7428 51.377 79.6621 51.0974 79.4946C50.8177 79.327 50.5942 79.0802 50.4551 78.7854C50.2085 78.2263 50.3252 77.483 50.3248 76.8837C50.3222 73.5619 50.3201 70.2399 50.3185 66.9178C50.3165 63.1035 50.3148 59.2894 50.3135 55.4754V52.9932C50.3135 52.294 50.3174 51.6276 50.9234 51.1594C51.4607 50.7423 52.133 50.8289 52.7718 50.8289H55.3588H57.7102C58.9151 50.8289 58.9175 48.9562 57.7102 48.9562L57.7094 48.955Z" fill="white"/>
<path d="M77.0156 47.8911C77.0156 49.1334 77.0156 50.3758 77.0156 51.6183C77.0156 51.7413 77.0398 51.8631 77.0869 51.9767C77.134 52.0903 77.203 52.1935 77.2899 52.2805C77.3769 52.3674 77.4801 52.4364 77.5937 52.4835C77.7074 52.5305 77.8291 52.5547 77.9521 52.5547C78.0751 52.5547 78.1969 52.5305 78.3105 52.4835C78.4241 52.4364 78.5274 52.3674 78.6143 52.2805C78.7013 52.1935 78.7703 52.0903 78.8173 51.9767C78.8644 51.8631 78.8886 51.7413 78.8886 51.6183C78.8886 50.3761 78.8886 49.1336 78.8886 47.8911C78.8886 47.7681 78.8644 47.6464 78.8173 47.5328C78.7703 47.4192 78.7013 47.3159 78.6143 47.229C78.5274 47.142 78.4241 47.073 78.3105 47.026C78.1969 46.9789 78.0751 46.9547 77.9521 46.9547C77.8291 46.9547 77.7074 46.9789 77.5937 47.026C77.4801 47.073 77.3769 47.142 77.2899 47.229C77.203 47.3159 77.134 47.4192 77.0869 47.5328C77.0398 47.6464 77.0156 47.7681 77.0156 47.8911Z" fill="white"/>
<path d="M60.439 47.8911C60.439 49.1334 60.4396 50.3758 60.4409 51.6183C60.4409 51.8667 60.5396 52.1049 60.7152 52.2805C60.8908 52.4561 61.129 52.5547 61.3774 52.5547C61.6258 52.5547 61.864 52.4561 62.0396 52.2805C62.2152 52.1049 62.3139 51.8667 62.3139 51.6183C62.3139 50.3761 62.3139 49.1336 62.3139 47.8911C62.3139 47.6428 62.2152 47.4046 62.0396 47.229C61.864 47.0534 61.6258 46.9547 61.3774 46.9547C61.129 46.9547 60.8908 47.0534 60.7152 47.229C60.5396 47.4046 60.4409 47.6428 60.4409 47.8911H60.439Z" fill="white"/>
<path d="M86.9587 62.8604C79.551 62.8604 74.4331 68.5958 74.4331 75.3101C74.4331 82.8208 79.6619 87.9932 86.961 87.9932C94.5404 87.9932 99.4894 82.7724 99.4894 75.3101C99.487 68.5505 94.3398 62.8604 86.9587 62.8604Z" fill="white" fill-opacity="0.88"/>
<path d="M86.9588 61.924C84.0211 61.9023 81.1549 62.8298 78.7871 64.5685C76.5712 66.2449 74.9353 68.5723 74.1085 71.2247C72.4782 76.4459 74.0539 82.7213 78.4339 86.131C82.7703 89.5063 89.3207 89.8668 94.0812 87.1524C98.9704 84.3651 101.055 78.5239 100.246 73.1209C99.8167 70.3661 98.5264 67.8178 96.5602 65.8408C94.594 63.8638 92.0527 62.5594 89.3 62.1144C88.5253 61.9931 87.7428 61.9292 86.9588 61.9232C85.7534 61.9174 85.7519 63.7902 86.9588 63.796C89.5168 63.7773 92.0126 64.5847 94.0749 66.098C95.9512 67.5272 97.3311 69.5095 98.0199 71.7651C99.3997 76.2559 98.1623 81.6456 94.4737 84.6378C90.8678 87.564 85.092 87.8481 81.044 85.6234C76.8243 83.305 74.8054 78.3351 75.477 73.6289C75.7961 71.2031 76.8951 68.9466 78.6083 67.1996C80.3216 65.4526 82.5563 64.3097 84.9757 63.9431C85.6318 63.8421 86.2949 63.7932 86.9588 63.7968C88.1633 63.7902 88.1661 61.9174 86.9588 61.924Z" fill="white"/>
<path d="M86.9658 76.3656H91.2456C91.4939 76.3656 91.7321 76.2669 91.9078 76.0913C92.0834 75.9157 92.1821 75.6775 92.1821 75.4292C92.1821 75.1808 92.0834 74.9427 91.9078 74.7671C91.7321 74.5915 91.4939 74.4928 91.2456 74.4928H86.9658C86.7174 74.4928 86.4792 74.5915 86.3036 74.7671C86.128 74.9427 86.0293 75.1808 86.0293 75.4292C86.0293 75.6775 86.128 75.9157 86.3036 76.0913C86.4792 76.2669 86.7174 76.3656 86.9658 76.3656Z" fill="black"/>
<path d="M86.0293 68.9437C86.0293 71.1026 86.0293 73.2623 86.0293 75.4228C86.0293 75.6711 86.128 75.9093 86.3036 76.0849C86.4792 76.2605 86.7174 76.3592 86.9658 76.3592C87.2142 76.3592 87.4524 76.2605 87.628 76.0849C87.8036 75.9093 87.9023 75.6711 87.9023 75.4228C87.8989 73.2639 87.8989 71.1042 87.9023 68.9437C87.9023 68.6954 87.8036 68.4572 87.628 68.2816C87.4524 68.106 87.2142 68.0073 86.9658 68.0073C86.7174 68.0073 86.4792 68.106 86.3036 68.2816C86.128 68.4572 86.0293 68.6954 86.0293 68.9437Z" fill="black"/>
</svg>
