<svg width="51" height="46" viewBox="0 0 51 46" fill="none" xmlns="http://www.w3.org/2000/svg">
<path d="M49.4737 0.454712C45.4637 0.454712 43.3173 2.65608 41.7499 4.26361C40.3394 5.71019 39.4075 6.66586 37.3617 6.66586C35.3157 6.66586 34.384 5.71019 32.9733 4.26341C31.6181 2.87356 29.9315 1.14378 27.0469 0.613306C26.6252 0.536157 26.2206 0.814869 26.1429 1.23645C26.0654 1.65823 26.3444 2.06292 26.7661 2.14046C29.1647 2.58147 30.5974 4.05091 31.8616 5.3474C33.2748 6.79672 34.5069 8.05971 36.8962 8.20443V17.8375C36.8962 18.2663 37.2438 18.6138 37.6725 18.6138C38.1012 18.6138 38.4489 18.2662 38.4489 17.8375V8.13773C40.4408 7.82875 41.5767 6.66537 42.8619 5.3473C44.2659 3.90736 45.8425 2.29065 48.6975 2.04055V34.7319C45.181 34.9941 43.213 37.0112 41.7503 38.5114C40.6165 39.6741 39.7914 40.5195 38.449 40.8066V21.9784C38.449 21.5496 38.1013 21.202 37.6726 21.202C37.2439 21.202 36.8963 21.5497 36.8963 21.9784V40.8956C35.1659 40.7588 34.2722 39.8437 32.9735 38.5116C31.4062 36.9043 29.2598 34.7029 25.2498 34.7029C21.2397 34.7029 19.0934 36.9044 17.5262 38.5117C16.2278 39.8436 15.3342 40.7587 13.6042 40.8956V34.4008C13.6042 33.972 13.2566 33.6244 12.8279 33.6244C12.399 33.6244 12.0515 33.9721 12.0515 34.4008V40.8066C10.709 40.5197 9.8841 39.6745 8.75011 38.5115C7.28732 37.0113 5.31944 34.9941 1.80293 34.732V16.1812C1.80293 15.7524 1.45528 15.4048 1.02656 15.4048C0.597852 15.4048 0.25 15.7525 0.25 16.1812V38.5847C0.25 39.0135 0.597657 39.361 1.02637 39.361C3.07217 39.361 4.00391 40.3166 5.41446 41.7634C6.98165 43.3707 9.12795 45.5722 13.138 45.5722C17.1481 45.5722 19.2944 43.3707 20.8616 41.7634C22.272 40.3167 23.2037 39.361 25.2496 39.361C27.2955 39.361 28.2273 40.3167 29.6379 41.7635C31.2051 43.3708 33.3515 45.5722 37.3616 45.5722C41.3718 45.5722 43.5182 43.3708 45.0853 41.7635C46.4959 40.3168 47.4277 39.361 49.4736 39.361C49.9024 39.361 50.25 39.0134 50.25 38.5847V1.23108C50.2501 0.802369 49.9024 0.454712 49.4737 0.454712ZM48.6973 37.8479C46.509 38.079 45.3242 39.2943 43.9735 40.6796C42.4471 42.2451 40.717 44.0195 37.3616 44.0195C34.0062 44.0195 32.2761 42.2451 30.7495 40.6794C29.2474 39.1388 27.9501 37.8084 25.2495 37.8084C22.549 37.8084 21.2516 39.139 19.7496 40.6795C18.2233 42.2451 16.4932 44.0195 13.1379 44.0195C9.78254 44.0195 8.05246 42.2451 6.52599 40.6793C5.1756 39.2943 3.99044 38.0791 1.80264 37.8479V36.2889C4.65753 36.539 6.234 38.1557 7.6382 39.5959C9.14025 41.1363 10.4375 42.4668 13.1379 42.4668C15.8384 42.4668 17.1358 41.1362 18.6377 39.5957C20.1641 38.0301 21.8942 36.2557 25.2495 36.2557C28.6048 36.2557 30.335 38.0301 31.8614 39.5956C33.3635 41.1363 34.6609 42.4668 37.3615 42.4668C40.0621 42.4668 41.3595 41.1362 42.8615 39.5958C44.2655 38.1559 45.8423 36.5391 48.6973 36.289V37.8479Z" fill="#4D4D4D"/>
<path d="M24.3573 1.23635C24.2797 0.814576 23.8751 0.535962 23.4534 0.613013C20.5681 1.14329 18.8813 2.87327 17.5259 4.26341C16.1155 5.71009 15.1838 6.66576 13.1379 6.66576C11.0921 6.66576 10.1604 5.71019 8.74982 4.26341C7.18283 2.65618 5.03653 0.454712 1.02637 0.454712C0.597559 0.454712 0.25 0.802369 0.25 1.23108V11.2123C0.25 11.6411 0.597657 11.9886 1.02637 11.9886C1.45508 11.9886 1.80274 11.641 1.80274 11.2123V2.04075C4.65763 2.29085 6.23419 3.90755 7.6383 5.34779C8.92326 6.66566 10.0592 7.82904 12.0513 8.13793V30.2599C12.0513 30.6888 12.3989 31.0363 12.8277 31.0363C13.2564 31.0363 13.604 30.6887 13.604 30.2599V8.20453C15.993 8.05971 17.2249 6.79662 18.6378 5.34749C19.902 4.05081 21.3349 2.58118 23.734 2.14036C24.1557 2.06282 24.4348 1.65813 24.3573 1.23635Z" fill="#4D4D4D"/>
</svg>
