<svg width="19" height="19" viewBox="0 0 19 19" fill="none" xmlns="http://www.w3.org/2000/svg">
<path d="M17.8327 18.0607L16.166 16.394M9.08268 17.2274C10.1223 17.2274 11.1518 17.0226 12.1123 16.6248C13.0728 16.2269 13.9455 15.6438 14.6806 14.9086C15.4157 14.1735 15.9989 13.3008 16.3967 12.3403C16.7946 11.3798 16.9993 10.3503 16.9993 9.31071C16.9993 8.27108 16.7946 7.24163 16.3967 6.28113C15.9989 5.32064 15.4157 4.44791 14.6806 3.71278C13.9455 2.97765 13.0728 2.39451 12.1123 1.99666C11.1518 1.59881 10.1223 1.39404 9.08268 1.39404C6.98305 1.39404 4.96942 2.22812 3.48475 3.71278C2.00009 5.19744 1.16602 7.21108 1.16602 9.31071C1.16602 11.4103 2.00009 13.424 3.48475 14.9086C4.96942 16.3933 6.98305 17.2274 9.08268 17.2274Z" stroke="white" stroke-width="1.5" stroke-linecap="round" stroke-linejoin="round"/>
</svg>
