<svg width="51" height="51" viewBox="0 0 51 51" fill="none" xmlns="http://www.w3.org/2000/svg">
<g clip-path="url(#clip0_715_3807)">
<path d="M9.09681 41.6568C8.48119 41.0411 7.66253 40.7021 6.79183 40.7021C5.92112 40.7021 5.10257 41.0411 4.48694 41.6568C3.21594 42.9278 3.21594 44.9958 4.48694 46.2668C5.10257 46.8825 5.92122 47.2215 6.79183 47.2215C7.66253 47.2215 8.48119 46.8825 9.09681 46.2668C9.71254 45.6511 10.0515 44.8325 10.0515 43.9618C10.0515 43.0911 9.71254 42.2726 9.09681 41.6568ZM7.99925 45.1691C7.33353 45.8349 6.25042 45.835 5.5846 45.1691C4.91887 44.5033 4.91887 43.4202 5.5846 42.7544C5.91751 42.4215 6.35472 42.2551 6.79193 42.2551C7.22923 42.2551 7.66644 42.4215 7.99925 42.7544C8.66498 43.4201 8.66498 44.5034 7.99925 45.1691Z" fill="#4D4D4D"/>
<path d="M34.6261 16.0787C34.3229 15.7755 33.8315 15.7755 33.5285 16.0787L27.821 21.7862C27.5384 22.0687 27.5196 22.5355 27.7797 22.8392C28.0699 23.1781 28.6028 23.1995 28.9185 22.8838L34.6261 17.1762C34.9291 16.8731 34.9291 16.3817 34.6261 16.0787Z" fill="#4D4D4D"/>
<path d="M37.1143 13.5907C36.8111 13.2876 36.3197 13.2876 36.0167 13.5907L35.285 14.3224C34.9818 14.6256 34.9818 15.117 35.285 15.42C35.4364 15.5715 35.6352 15.6473 35.8337 15.6473C36.0323 15.6473 36.231 15.5716 36.3824 15.42L37.1142 14.6882C37.4174 14.3852 37.4174 13.8937 37.1143 13.5907Z" fill="#4D4D4D"/>
<path d="M36.4447 27.3427C36.3137 27.2117 36.1401 27.1318 35.9554 27.1177L32.1503 26.8249C31.9247 26.8077 31.7022 26.8897 31.542 27.05L30.7737 27.8183L30.1749 27.2195L39.2964 16.9373C42.2762 17.8692 45.5512 17.0806 47.7796 14.8523C49.8157 12.8162 50.6667 9.91693 50.0559 7.09681C49.9286 6.50872 49.1754 6.28519 48.7486 6.71224L43.9747 11.4863C43.6757 11.7853 43.1761 11.7853 42.877 11.4863L39.2184 7.82767C38.9194 7.52865 38.9194 7.02913 39.2184 6.73001L43.9925 1.95608C44.4193 1.52932 44.1961 0.77619 43.6079 0.648748C40.7877 0.0379073 37.8885 0.888886 35.8524 2.92512C33.6241 5.15344 32.8352 8.42826 33.7674 11.4083L23.4852 20.5298L18.5413 15.586C18.2382 15.2829 17.7468 15.2829 17.4438 15.586C17.1406 15.8891 17.1406 16.3805 17.4438 16.6835L29.6763 28.916L28.725 29.8673L9.74942 10.8917L10.7007 9.94047L15.1877 14.4275C15.5033 14.7431 16.0363 14.7219 16.3266 14.383C16.5867 14.0792 16.5679 13.6124 16.2853 13.3299L11.3573 8.40208L9.51397 4.00608C9.44317 3.83733 9.31495 3.69895 9.15196 3.61545L3.15185 0.542107C2.85195 0.388396 2.4874 0.445916 2.24931 0.6841L0.493058 2.44035C0.254874 2.67854 0.197549 3.04319 0.351065 3.34289L3.42431 9.343C3.50781 9.50599 3.64619 9.63412 3.81494 9.70502L8.21085 11.5485L20.1504 23.4881L2.11181 39.49C0.981633 40.4757 0.30419 41.9006 0.253116 43.3993C0.202042 44.8981 0.780852 46.3657 1.84121 47.4261L3.27871 48.8636C4.2958 49.8808 5.6877 50.4547 7.12237 50.4547C7.18321 50.4547 7.24444 50.4536 7.30557 50.4516C8.8043 50.4005 10.2292 49.723 11.2105 48.5977L18.9887 39.8296C19.2732 39.5089 19.2438 39.0184 18.9232 38.734C18.6027 38.4495 18.112 38.4789 17.8276 38.7995L10.0449 47.5726C9.33057 48.3917 8.33887 48.8632 7.25264 48.9002C6.16494 48.9372 5.14482 48.5344 4.37646 47.7659L2.93896 46.3284C2.1704 45.5599 1.76767 44.5385 1.80468 43.4523C1.84169 42.366 2.31328 41.3743 3.1372 40.6557L21.2502 24.5876L22.055 25.3924L7.05723 38.4725C6.56953 38.8978 6.81006 39.7242 7.44717 39.8241C8.32686 39.9621 9.12501 40.3681 9.75528 40.9982C10.3663 41.6093 10.7682 42.3818 10.9171 43.232C11.0274 43.861 11.8455 44.0908 12.2665 43.6083L25.3125 28.6499L26.1173 29.4547L20.0308 36.3159C19.7726 36.607 19.7731 37.0595 20.0335 37.3491C20.3391 37.6891 20.8885 37.688 21.192 37.346L27.217 30.5542L27.6277 30.9648L26.8593 31.7332C26.6992 31.8933 26.6168 32.1155 26.6342 32.3415L26.927 36.1466C26.9412 36.3312 27.021 36.5049 27.1521 36.6358L39.7669 49.2506C40.4999 49.9836 41.4743 50.3871 42.5108 50.3871C43.5473 50.3871 44.5219 49.9835 45.2549 49.2506L49.0599 45.4455C49.793 44.7125 50.1965 43.7381 50.1965 42.7015C50.1965 41.6648 49.7929 40.6904 49.0599 39.9575L36.4447 27.3427ZM4.67676 8.38314L1.99033 3.13821L2.94726 2.18127L8.19219 4.8677L9.78351 8.66253L8.47159 9.97455L4.67676 8.38314ZM12.004 41.5477C11.4273 40.2993 10.3934 39.2779 9.13731 38.718L23.155 26.4926L24.2122 27.5499L12.004 41.5477ZM29.0754 26.12L24.5847 21.6293L35.0303 12.3629C35.3827 12.1849 35.5475 11.7564 35.4044 11.3884C34.4139 8.8433 35.0207 5.95208 36.95 4.02268C38.2425 2.7301 39.9618 2.02297 41.7456 2.00764L38.1208 5.63245C37.213 6.54017 37.213 8.01742 38.1208 8.92523L41.7794 12.5838C42.6871 13.4915 44.1643 13.4915 45.0721 12.5838L48.697 8.95902C48.6816 10.7427 47.9746 12.4621 46.6819 13.7546C44.7526 15.684 41.8616 16.2907 39.3162 15.3002C38.9482 15.157 38.5196 15.3218 38.3417 15.6743L29.0754 26.12ZM28.209 32.5784L32.3873 28.4002L34.1538 28.536L28.3449 34.345L28.209 32.5784ZM47.9619 44.348L44.1568 48.153C43.717 48.5929 43.1323 48.835 42.5104 48.835C41.8885 48.835 41.3038 48.5928 40.864 48.153L28.7981 36.0869L35.8959 28.989L47.962 41.0552C48.4018 41.495 48.6439 42.0797 48.6439 42.7016C48.6438 43.3235 48.4016 43.9082 47.9619 44.348Z" fill="#4D4D4D"/>
<path d="M45.884 42.0507L36.3715 32.5382C35.9316 32.0983 35.347 31.8562 34.7251 31.8562C34.1032 31.8562 33.5184 32.0984 33.0787 32.5382L32.347 33.2699C31.9071 33.7098 31.665 34.2944 31.665 34.9163C31.665 35.5382 31.9072 36.1229 32.347 36.5627L41.8595 46.0752C42.2993 46.5151 42.884 46.7571 43.5059 46.7571C44.1279 46.7571 44.7126 46.515 45.1523 46.0752L45.884 45.3435C46.3239 44.9036 46.5659 44.319 46.5659 43.6971C46.566 43.0751 46.3239 42.4904 45.884 42.0507ZM44.7865 44.2458L44.0547 44.9775C43.908 45.1242 43.7132 45.2049 43.5059 45.2049C43.2987 45.2049 43.1036 45.1241 42.9572 44.9775L33.4446 35.465C33.298 35.3183 33.2173 35.1235 33.2173 34.9163C33.2173 34.7091 33.298 34.514 33.4446 34.3675L34.1764 33.6357C34.3231 33.489 34.5179 33.4084 34.7252 33.4084C34.9324 33.4084 35.1274 33.4891 35.2739 33.6357L44.7865 43.1482C44.9331 43.2949 45.0138 43.4897 45.0138 43.697C45.0138 43.9043 44.933 44.0993 44.7865 44.2458Z" fill="#4D4D4D"/>
<path d="M36.2983 35.3919L36.0056 35.0991C35.7024 34.796 35.211 34.796 34.908 35.0991C34.6049 35.4022 34.6049 35.8936 34.908 36.1967L35.2008 36.4894C35.3522 36.6409 35.551 36.7168 35.7495 36.7168C35.948 36.7168 36.1468 36.641 36.2982 36.4894C36.6015 36.1863 36.6015 35.6948 36.2983 35.3919Z" fill="#4D4D4D"/>
<path d="M38.6401 37.7335L38.3474 37.4407C38.0442 37.1376 37.5528 37.1376 37.2498 37.4407C36.9467 37.7438 36.9467 38.2353 37.2498 38.5383L37.5426 38.8311C37.694 38.9825 37.8928 39.0584 38.0913 39.0584C38.2898 39.0584 38.4886 38.9826 38.64 38.8311C38.9433 38.5279 38.9433 38.0364 38.6401 37.7335Z" fill="#4D4D4D"/>
<path d="M40.9814 40.075L40.6887 39.7822C40.3856 39.4791 39.8941 39.4791 39.5911 39.7822C39.288 40.0853 39.288 40.5767 39.5911 40.8798L39.8839 41.1725C40.0354 41.324 40.2341 41.3999 40.4326 41.3999C40.6312 41.3999 40.8299 41.3241 40.9814 41.1725C41.2846 40.8694 41.2846 40.3779 40.9814 40.075Z" fill="#4D4D4D"/>
<path d="M43.3232 42.4166L43.0305 42.1238C42.7273 41.8207 42.2359 41.8207 41.9329 42.1238C41.6298 42.427 41.6298 42.9184 41.9329 43.2214L42.2257 43.5142C42.3772 43.6656 42.5759 43.7415 42.7744 43.7415C42.973 43.7415 43.1717 43.6657 43.3231 43.5142C43.6264 43.211 43.6264 42.7195 43.3232 42.4166Z" fill="#4D4D4D"/>
</g>
<defs>
<clipPath id="clip0_715_3807">
<rect width="50" height="50" fill="white" transform="translate(0.25 0.454712)"/>
</clipPath>
</defs>
</svg>
