<svg width="21" height="21" viewBox="0 0 21 21" fill="none" xmlns="http://www.w3.org/2000/svg">
<path d="M6.20074 0.95874L2.48874 7.45474H1.06874C0.91504 7.45491 0.763441 7.49047 0.625696 7.55867C0.487951 7.62687 0.367762 7.72588 0.274445 7.84801C0.181129 7.97014 0.11719 8.11213 0.087588 8.26295C0.0579855 8.41378 0.0635138 8.5694 0.103744 8.71774L2.90274 18.9807C3.01876 19.4038 3.2704 19.7771 3.61904 20.0434C3.96768 20.3097 4.39406 20.4542 4.83274 20.4547H15.3057C16.2037 20.4547 16.9977 19.8497 17.2357 18.9797L20.0347 8.71674C20.0755 8.56834 20.0813 8.41254 20.0518 8.26151C20.0223 8.11048 19.9583 7.96832 19.8648 7.84613C19.7712 7.72393 19.6507 7.62503 19.5126 7.55713C19.3745 7.48924 19.2226 7.45419 19.0687 7.45474H17.6487L13.9367 0.95874L12.2007 1.95074L15.3457 7.45474H4.79174L7.93674 1.95074L6.20074 0.95874ZM12.0687 11.4547H14.0687V16.4547H12.0687V11.4547ZM6.06874 11.4547H8.06874V16.4547H6.06874V11.4547Z" fill="#F9F1D9"/>
</svg>
