<svg width="51" height="51" viewBox="0 0 51 51" fill="none" xmlns="http://www.w3.org/2000/svg">
<g clip-path="url(#clip0_715_3886)">
<path d="M32.656 21.1549C32.3881 20.8224 31.9011 20.7703 31.5688 21.0383C31.0682 21.442 30.5158 21.4857 30.3016 21.4857C29.6585 21.4857 29.2012 21.1729 29.0344 21.0385C28.7019 20.7701 28.2154 20.8225 27.9472 21.155C27.6792 21.4875 27.7313 21.9741 28.0637 22.2422C28.4295 22.5371 29.2067 23.0322 30.3016 23.0322C30.7717 23.0322 31.6872 22.9296 32.5396 22.2423C32.8719 21.974 32.9241 21.4874 32.656 21.1549Z" fill="#4D4D4D"/>
<path d="M35.044 17.5681H34.5286C34.1016 17.5681 33.7554 17.9142 33.7554 18.3412C33.7554 18.7683 34.1016 19.1145 34.5286 19.1145H35.044C35.4711 19.1145 35.8172 18.7684 35.8172 18.3412C35.8172 17.9141 35.471 17.5681 35.044 17.5681Z" fill="#4D4D4D"/>
<path d="M26.0747 17.5681H25.5593C25.1322 17.5681 24.7861 17.9142 24.7861 18.3412C24.7861 18.7683 25.1323 19.1145 25.5593 19.1145H26.0747C26.5018 19.1145 26.8479 18.7684 26.8479 18.3412C26.8479 17.9141 26.5018 17.5681 26.0747 17.5681Z" fill="#4D4D4D"/>
<path d="M47.5179 33.4444H46.6416V31.9033C48.5748 31.0703 49.8375 29.1785 49.8375 27.0308C49.8375 24.7468 48.3827 22.724 46.2175 21.9976C45.7245 21.8317 45.1983 22.2116 45.1983 22.7306V26.8762H43.8581V22.7306C43.8581 22.2115 43.332 21.832 42.839 21.9976C40.798 22.6823 39.3889 24.5189 39.2337 26.6403H33.7084C36.0637 25.9078 38.0963 24.4366 39.535 22.4992C39.5708 22.4593 39.6027 22.4159 39.6298 22.3693C40.0094 21.8429 40.3457 21.2831 40.6332 20.6955C41.0098 20.8749 41.421 20.9701 41.8477 20.9701C43.4109 20.9701 44.6827 19.6983 44.6827 18.1351C44.6827 16.5719 43.411 15.3 41.8478 15.3C41.8285 15.3 41.8092 15.3011 41.7899 15.3015C41.7889 15.2666 41.7876 15.2318 41.7862 15.197H43.0849C43.5119 15.197 43.8581 14.8509 43.8581 14.4238V12.3619C43.8581 11.9348 43.5119 11.5887 43.0849 11.5887H41.6187C40.8367 7.16731 37.4805 3.56135 33.1364 2.45715V1.22795C33.1364 0.800806 32.7902 0.454712 32.3632 0.454712H28.2395C27.8124 0.454712 27.4662 0.800806 27.4662 1.22795V2.45725C23.1221 3.56145 19.7659 7.16751 18.984 11.5888H17.5178C17.0907 11.5888 16.7445 11.9349 16.7445 12.362V14.4239C16.7445 14.851 17.0907 15.1971 17.5178 15.1971H18.8164C18.815 15.232 18.8138 15.2668 18.8127 15.3016C18.7935 15.3012 18.7741 15.3001 18.7549 15.3001C17.1916 15.3001 15.9198 16.572 15.9198 18.1352C15.9198 19.6984 17.1916 20.9702 18.7549 20.9702C19.1814 20.9702 19.5927 20.875 19.9693 20.6956C20.2568 21.2833 20.5932 21.843 20.9728 22.3694C20.9999 22.416 21.0317 22.4595 21.0676 22.4993C22.5062 24.4367 24.539 25.908 26.8941 26.6404H15.1157C15.7654 25.4175 16.2292 24.2193 16.2292 23.2899C16.2292 20.1349 13.6625 17.5682 10.5075 17.5682C7.35254 17.5682 4.78584 20.1349 4.78584 23.2899C4.78584 24.2193 5.24971 25.4175 5.89932 26.6404H1.43535C1.0083 26.6404 0.662109 26.9865 0.662109 27.4136V45.1455C0.662109 45.5727 1.0083 45.9188 1.43535 45.9188H3.90957C4.33662 45.9188 4.68271 45.5727 4.68271 45.1455C4.68271 44.7184 4.33652 44.3723 3.90957 44.3723H2.20859V28.1867H6.80244C7.58408 29.4252 8.43887 30.5797 9.06211 31.3826H4.11582C3.68877 31.3826 3.34258 31.7287 3.34258 32.1559V35.6611C3.34258 36.0882 3.68877 36.4343 4.11582 36.4343H16.3323V38.8054H10.5076C10.0806 38.8054 9.73438 39.1515 9.73438 39.5786V42.4653C9.73438 42.8924 10.0806 43.2384 10.5076 43.2384C10.9347 43.2384 11.2809 42.8923 11.2809 42.4653V40.3519H17.1056C17.5326 40.3519 17.8788 40.0058 17.8788 39.5786V35.6612C17.8788 35.234 17.5326 34.8879 17.1056 34.8879H4.88897V32.9291H20.1982C20.6253 32.9291 20.9715 32.583 20.9715 32.156C20.9715 31.7288 20.6253 31.3827 20.1982 31.3827H11.953C12.5764 30.5798 13.4311 29.4253 14.2127 28.1868H22.1055V44.3724H8.0333C7.60625 44.3724 7.26006 44.7185 7.26006 45.1456C7.26006 45.5728 7.60625 45.9189 8.0333 45.9189H17.2675L17.2601 49.6802C17.2593 50.1018 17.6117 50.4549 18.0333 50.4549H36.0745C36.5016 50.4549 36.8477 50.1088 36.8477 49.6818C36.8477 49.2546 36.5015 48.9085 36.0745 48.9085H18.808L18.8139 45.9189H41.8992V48.9085H40.1981C39.7711 48.9085 39.4249 49.2546 39.4249 49.6818C39.4249 50.1089 39.7711 50.4549 40.1981 50.4549H42.6724C43.0994 50.4549 43.4456 50.1088 43.4456 49.6818V43.8571H47.5178C48.7969 43.8571 49.8374 42.8164 49.8374 41.5374V35.7642C49.8374 34.485 48.7969 33.4444 47.5179 33.4444ZM10.5075 30.7216C8.69111 28.4191 6.33223 24.8926 6.33223 23.2898C6.33223 20.9875 8.20518 19.1145 10.5075 19.1145C12.8098 19.1145 14.6828 20.9874 14.6828 23.2898C14.6828 24.8927 12.3239 28.4191 10.5075 30.7216ZM42.3116 23.9892V27.6493C42.3116 28.0765 42.6578 28.4226 43.0848 28.4226H45.9714C46.3984 28.4226 46.7446 28.0765 46.7446 27.6493V23.9892C47.699 24.684 48.291 25.8041 48.291 27.0308C48.291 28.6919 47.2258 30.1369 45.6402 30.6267C45.3162 30.7268 45.0952 31.0263 45.0952 31.3655V33.4445H43.9612V31.3655C43.9612 31.0263 43.7402 30.7268 43.4162 30.6267C41.8307 30.137 40.7654 28.6919 40.7654 27.0308C40.7652 25.8042 41.3572 24.684 42.3116 23.9892ZM34.5833 28.1866H39.344C39.658 29.6157 40.5459 30.8432 41.7997 31.5887H31.9051L34.5833 28.1866ZM30.3014 31.1258L27.9876 28.1866H32.6152L30.3014 31.1258ZM39.7344 18.8234V15.7071C39.9054 15.6406 40.0762 15.573 40.2461 15.5029C40.2469 15.5555 40.2498 15.6083 40.2498 15.6609C40.2498 16.7659 40.0685 17.8293 39.7344 18.8234ZM41.8477 16.8465C42.5584 16.8465 43.1364 17.4245 43.1364 18.1352C43.1364 18.8458 42.5584 19.4239 41.8478 19.4239C41.6241 19.4239 41.41 19.3668 41.2187 19.2593C41.473 18.4893 41.6486 17.6838 41.7347 16.8521C41.7722 16.8489 41.8098 16.8465 41.8477 16.8465ZM29.0127 2.0011H31.59V5.14543C31.59 5.57258 31.9362 5.91858 32.3633 5.91858C32.7903 5.91858 33.1365 5.57249 33.1365 5.14543V4.06067C36.6234 5.09817 39.3094 8.01497 40.0452 11.5887H33.1365V8.44436C33.1365 8.01721 32.7903 7.67112 32.3633 7.67112C31.9362 7.67112 31.59 8.01721 31.59 8.44436V11.5887H29.0127V2.0011ZM27.4663 4.06067V11.5887H20.5576C21.2935 8.01497 23.9794 5.09817 27.4663 4.06067ZM18.755 19.4238C18.0443 19.4238 17.4663 18.8457 17.4663 18.1351C17.4663 17.4244 18.0443 16.8464 18.755 16.8464C18.7928 16.8464 18.8305 16.8488 18.868 16.852C18.9539 17.6837 19.1295 18.4892 19.384 19.2591C19.1928 19.3668 18.9786 19.4238 18.755 19.4238ZM20.8684 18.8234C20.5343 17.8293 20.3529 16.7659 20.3529 15.6609C20.3529 15.6083 20.356 15.5555 20.3566 15.5029C20.5267 15.573 20.6973 15.6406 20.8684 15.7071V18.8234ZM18.291 13.6506V13.1352H42.3116V13.6506H18.291ZM36.2347 15.197C34.3074 15.6754 32.3236 15.9187 30.3014 15.9187C28.2793 15.9187 26.2954 15.6755 24.3682 15.197H36.2347ZM22.4147 21.7175V16.2535C24.9532 17.0582 27.5957 17.465 30.3014 17.465C33.0072 17.465 35.6497 17.0581 38.188 16.2535V21.7175C36.3676 24.0823 33.5097 25.6094 30.3014 25.6094C27.0931 25.6093 24.2352 24.0823 22.4147 21.7175ZM23.6519 28.1866H26.0193L28.6976 31.5887H23.6518L23.6519 28.1866ZM23.6519 33.1351H42.4147V33.4444H42.157C40.8779 33.4444 39.8374 34.485 39.8374 35.764V35.9186H23.6519V33.1351ZM23.6519 37.4651H39.8374V40.0424H23.6519V37.4651ZM41.8993 44.3722H23.6519V41.5887H39.8388C39.8645 42.7573 40.7579 43.7153 41.8993 43.8421V44.3722ZM48.291 41.5372C48.291 41.9636 47.9442 42.3104 47.5179 42.3104H42.157C41.7481 42.3104 41.4131 41.991 41.3864 41.5887H43.0849C43.5119 41.5887 43.8581 41.2426 43.8581 40.8155C43.8581 40.3883 43.5119 40.0422 43.0849 40.0422H41.3838V39.5268H43.0849C43.5119 39.5268 43.8581 39.1807 43.8581 38.7535C43.8581 38.3264 43.5119 37.9803 43.0849 37.9803H41.3838V37.4649H43.0849C43.5119 37.4649 43.8581 37.1188 43.8581 36.6916C43.8581 36.2645 43.5119 35.9184 43.0849 35.9184H41.3838V35.7638C41.3838 35.3374 41.7306 34.9906 42.1569 34.9906H47.5178C47.9441 34.9906 48.2909 35.3373 48.2909 35.7638L48.291 41.5372Z" fill="#4D4D4D"/>
<path d="M10.5075 20.2486C8.83057 20.2486 7.46631 21.6128 7.46631 23.2898C7.46631 24.9667 8.83066 26.331 10.5075 26.331C12.1844 26.331 13.5487 24.9667 13.5487 23.2898C13.5487 21.6128 12.1845 20.2486 10.5075 20.2486ZM10.5075 24.7846C9.6833 24.7846 9.0127 24.114 9.0127 23.2898C9.0127 22.4655 9.6833 21.7949 10.5075 21.7949C11.3317 21.7949 12.0023 22.4655 12.0023 23.2898C12.0023 24.114 11.3317 24.7846 10.5075 24.7846Z" fill="#4D4D4D"/>
</g>
<defs>
<clipPath id="clip0_715_3886">
<rect width="50" height="50" fill="white" transform="translate(0.25 0.454712)"/>
</clipPath>
</defs>
</svg>
