<svg width="125" height="54" viewBox="0 0 125 54" fill="none" xmlns="http://www.w3.org/2000/svg">
<path d="M34.299 13.8938V36.4757C34.299 36.6874 34.3949 36.8671 34.5173 36.8856C35.2119 36.9843 35.9836 36.9843 36.7943 36.8856C37.456 36.7978 38.2633 36.6358 39.2601 36.3886C39.2238 36.7337 39.2059 37.1065 39.2059 37.5091C39.2059 37.8517 39.2264 38.2682 39.2651 38.7192H31.4199V13.8983C31.5694 13.9208 31.7622 13.9613 32.0007 14.017C32.3488 14.1192 32.7061 14.1217 32.919 14.0243L33.6247 14.0189C33.8933 13.9561 34.1154 13.9124 34.299 13.8938ZM43.703 15.1287C43.2845 15.2288 43.0058 15.2308 42.8047 15.134H42.099C41.8496 15.0757 41.6592 15.0384 41.5159 15.0147V38.719H44.247V15.0093C44.0898 15.03 43.911 15.0689 43.703 15.1287ZM46.4082 14.992C46.4345 15.3284 46.4477 15.6648 46.4477 15.9936C46.4477 16.4262 46.4352 16.8081 46.412 17.1345H46.8682C48.1605 16.8545 49.2458 16.7114 50.0778 16.7114C50.2111 16.7114 50.3183 16.8952 50.3183 17.1211V38.7192H52.9677V17.1211C52.9677 16.895 53.0753 16.7114 53.2077 16.7114C53.8133 16.7114 54.6797 16.8068 55.7847 16.9938C56.0643 17.0629 56.3609 17.1066 56.6701 17.1266C56.6388 16.799 56.6388 16.4235 56.6713 16.0036C56.6372 15.6687 56.6388 15.3286 56.6775 14.9922H46.4082V14.992ZM58.8511 14.992V38.7192H66.3335C66.297 38.2918 66.2776 37.9012 66.2776 37.5784C66.2776 37.209 66.2943 36.8631 66.3244 36.5464C65.8151 36.6791 65.2478 36.7851 64.6392 36.8565C63.9314 36.9541 62.9565 37.0014 61.7398 37.0014C61.6076 37.0014 61.5005 36.8169 61.5005 36.5892V27.419C61.5005 27.1935 61.6076 27.0091 61.7398 27.0091H63.7421C64.4093 27.0759 64.9454 27.1432 65.4825 27.2094L65.8789 27.2565C65.8673 27.1658 65.8543 27.0634 65.8398 26.9549L65.8325 25.3046C65.8325 25.2582 65.8364 25.2131 65.8458 25.1733C65.8509 25.1415 65.8566 25.1083 65.8624 25.0778C65.1572 25.2277 64.5126 25.2907 63.7422 25.2907H61.7399C61.6077 25.2907 61.5007 25.1062 61.5007 24.8801V17.1211C61.5007 16.895 61.6077 16.7114 61.7399 16.7114C63.2168 16.7114 64.7677 16.8759 66.3525 17.2021C66.3026 16.8279 66.2776 16.4685 66.2776 16.1343C66.2776 15.7365 66.3025 15.353 66.3534 14.992H58.8511ZM77.5982 31.4292C77.5408 28.4969 76.2257 25.8949 73.6815 23.7148C71.796 22.0507 70.881 20.4336 70.881 18.7767C70.881 16.1045 71.7945 14.6372 73.5236 14.5305C74.7001 14.5305 75.6052 15.6103 76.2183 17.7448C76.2823 17.3693 76.3719 16.8893 76.488 16.2856C76.6297 15.6462 76.7497 15.1098 76.8502 14.6667C75.9461 13.7441 74.8559 13.2293 73.6084 13.1392C70.4696 13.4236 68.8864 15.9005 68.7777 20.7097C68.7777 23.9498 69.9763 26.552 72.3411 28.435C74.318 29.9737 75.3193 31.7375 75.3193 33.6712C75.1939 36.3888 74.2485 37.8123 72.5069 37.9194C70.784 37.8168 69.7061 36.4274 69.2969 33.7886H69.2663C69.156 35.2225 68.9804 36.6385 68.7446 38.0004C69.7928 38.6801 70.8811 39.0714 71.9815 39.1624C75.4574 39.1617 77.3764 36.3408 77.5982 31.4292ZM82.1742 28.0142C82.1327 28.019 82.0723 28.0372 82.022 28.1221C81.9783 28.1971 81.9527 28.299 81.9527 28.4037V38.719H79.203V14.9881H84.1565C86.9926 14.9881 88.398 16.8452 88.4503 20.661C88.4709 22.7376 88.1374 24.3904 87.4607 25.5712C86.5288 27.1976 84.8979 28.022 82.6133 28.022C82.4727 28.022 82.3326 28.0185 82.1742 28.0142ZM82.1494 26.818C82.2552 26.8444 82.3693 26.8585 82.4847 26.8585C82.8226 26.8585 83.2125 26.7466 83.642 26.5272C84.8898 25.9156 85.5828 24.1772 85.6994 21.3343C85.5828 18.1293 84.8471 16.3464 83.4972 16.0354H82.1826C82.0562 16.0354 81.9527 16.2124 81.9527 16.4287V26.4315C81.9527 26.6257 82.0363 26.7916 82.1494 26.818ZM99.4492 14.9881V38.719H106.944C106.908 38.2879 106.889 37.8905 106.889 37.5598C106.889 37.1838 106.905 36.8307 106.938 36.5096C106.422 36.6449 105.851 36.7532 105.241 36.8248C104.527 36.9209 103.582 36.967 102.348 36.967C102.221 36.967 102.118 36.7898 102.118 36.576V27.4165C102.118 27.2015 102.221 27.0245 102.348 27.0245H104.568C105.402 27.1107 106.161 27.1924 106.856 27.2738C106.844 27.1764 106.83 27.067 106.813 26.9474L106.806 25.3046C106.806 25.2596 106.809 25.217 106.818 25.1793C106.826 25.1376 106.833 25.0963 106.841 25.0592C106.147 25.1998 105.384 25.2728 104.568 25.2728H102.348C102.221 25.2728 102.118 25.0963 102.118 24.8815V17.1325C102.118 16.9162 102.221 16.7404 102.348 16.7404C103.828 16.7404 105.381 16.9077 106.967 17.2348C106.914 16.852 106.889 16.4872 106.889 16.1476C106.889 15.7397 106.914 15.353 106.969 14.9883H99.4492V14.9881ZM113.433 38.7192H108.87V14.9881L114.739 14.9861C118.697 15.4478 120.726 19.099 120.942 26.1271C120.675 34.0254 118.149 38.2622 113.433 38.7192ZM117.863 26.1488C117.863 19.6263 116.152 16.3159 112.783 16.3159H111.764C111.64 16.3159 111.536 16.4937 111.536 16.7099V36.9987C111.536 37.2129 111.64 37.3908 111.764 37.3908H112.664C114.387 37.3908 115.701 36.4268 116.571 34.5306C117.427 32.6589 117.863 29.8395 117.863 26.1488ZM89.9849 14.9881V38.719H97.4787C97.443 38.2879 97.4227 37.8905 97.4227 37.5598C97.4227 37.1838 97.4392 36.8307 97.4716 36.5096C96.9544 36.6449 96.3848 36.7532 95.7759 36.8248C95.0623 36.9209 94.1149 36.967 92.8806 36.967C92.7552 36.967 92.6515 36.7898 92.6515 36.576V27.4165C92.6515 27.2015 92.7552 27.0245 92.8806 27.0245H95.1018C95.937 27.1107 96.6946 27.1924 97.39 27.2738C97.378 27.1764 97.3636 27.067 97.3471 26.9474L97.3397 25.3046C97.3397 25.2596 97.3443 25.217 97.3524 25.1793C97.3597 25.1376 97.3671 25.0963 97.3729 25.0592C96.6821 25.1998 95.9191 25.2728 95.1018 25.2728H92.8806C92.7552 25.2728 92.6515 25.0963 92.6515 24.8815V17.1325C92.6515 16.9162 92.7552 16.7404 92.8806 16.7404C94.3603 16.7404 95.9142 16.9077 97.4999 17.2348C97.4489 16.852 97.4228 16.4872 97.4228 16.1476C97.4228 15.7397 97.4501 15.353 97.5012 14.9883H89.9849V14.9881Z" fill="#002D73"/>
<path d="M26.205 26.4871L19.3745 14.7876L16.4655 21.1138L19.602 26.4869C19.8914 26.9832 19.8914 27.7937 19.602 28.2896L18.6948 29.8432C18.6948 29.8432 19.3066 31.4119 19.3347 31.5063C19.4758 31.9914 19.5099 33.1302 19.1093 33.6497L11.9752 43.0326C11.9736 46.1813 11.9711 52.6553 11.974 52.6581C11.9752 52.6589 26.2052 28.2894 26.2052 28.2894C26.4944 27.7932 26.4944 26.9834 26.205 26.4871Z" fill="#3E8EDE"/>
<path d="M10.3409 27.9593C10.0526 27.4657 10.0526 26.6559 10.3409 26.1595L11.2493 24.6032L10.6283 23.0744C10.3321 22.356 10.4254 21.3346 10.8337 20.7998L17.9691 11.4162L17.974 1.79667L17.9699 1.79275L17.9663 1.78418L3.73859 26.1595C3.44901 26.6559 3.44901 27.4657 3.73922 27.9616L10.5683 39.6613L13.4782 33.3351L10.3409 27.9593Z" fill="#002D73"/>
<path d="M21.5653 7.4826C21.6998 7.4826 21.8306 7.62304 21.8908 7.83165C21.9994 8.21514 21.8427 8.55704 21.7565 8.74531L15.5043 22.3401C15.4408 22.4772 15.4355 22.7723 15.4939 22.914C15.5276 22.9979 18.8693 31.3026 18.9842 31.5847C19.1484 31.99 19.1329 33.0335 18.8055 33.4586L8.75302 46.6792C8.61187 46.8646 8.50718 46.9654 8.36073 46.9678C8.23458 46.9533 8.10812 46.8109 8.05323 46.6217C7.94312 46.2386 8.10812 45.8746 8.18729 45.7001L14.4378 32.1111C14.5019 31.9641 14.5082 31.6837 14.4505 31.534L10.9615 22.9385C10.7085 22.3223 10.7871 21.4482 11.1366 20.9903L21.1909 7.76794C21.3421 7.56522 21.4506 7.4826 21.5653 7.4826ZM21.5653 7.43799C21.4447 7.43799 21.3314 7.52311 21.1749 7.73243L11.1206 20.9546C10.7595 21.4279 10.6787 22.3273 10.9401 22.964L14.4291 31.5594C14.4804 31.6928 14.474 31.9534 14.4169 32.0844L8.16677 45.6726C8.08427 45.8546 7.91281 46.2343 8.02989 46.6416C8.08875 46.8448 8.22364 46.9968 8.35896 47.0124C8.51562 47.0101 8.62771 46.9 8.76875 46.7147L18.8214 33.4941C19.169 33.043 19.1702 31.9659 19.0056 31.5594C18.8895 31.2738 15.5153 22.8887 15.5153 22.8887C15.4635 22.7629 15.4684 22.4893 15.5247 22.3678L21.7769 8.77279C21.8588 8.59398 22.0308 8.22406 21.9143 7.81202C21.8497 7.58878 21.7104 7.43799 21.5653 7.43799Z" fill="#3E8EDE"/>
<path d="M18.645 31.7175C18.726 31.9277 18.799 32.7236 18.5952 32.9866L8.54122 46.209C8.45653 46.32 8.40236 46.3737 8.3782 46.3703C8.34351 46.3737 8.36862 46.2683 8.46091 46.0643L14.7105 32.4791C14.8686 32.1286 14.8792 31.5542 14.7341 31.1966L11.2455 22.5957C11.2455 22.5959 18.5642 31.5064 18.645 31.7175Z" fill="#FFCE00"/>
<path d="M18.645 31.7177L15.2094 23.2517C15.0636 22.8928 15.0752 22.317 15.2314 21.9754L21.482 8.38185C21.5749 8.17931 21.599 8.07812 21.5655 8.07812C21.5407 8.07812 21.4856 8.12773 21.4025 8.24087L11.3482 21.4617C11.1465 21.7275 11.0988 22.2393 11.2455 22.5961L18.645 31.7177Z" fill="#FFDE6E"/>
</svg>
