<svg width="140" height="43" viewBox="0 0 140 43" fill="none" xmlns="http://www.w3.org/2000/svg">
<g clip-path="url(#clip0_1438_6088)">
<g clip-path="url(#clip1_1438_6088)">
<g clip-path="url(#clip2_1438_6088)">
<path d="M133.964 42.1593H5.69992C2.87813 42.1593 0.569336 39.8468 0.569336 37.0203V6.18553C0.569336 3.35899 2.87808 1.04639 5.69992 1.04639H133.964C136.786 1.04639 139.095 3.35899 139.095 6.18553V37.0202C139.095 39.8468 136.786 42.1593 133.964 42.1593Z" fill="black"/>
<path d="M133.964 1.04639H5.69992C2.87813 1.04639 0.569336 3.35899 0.569336 6.18553V37.0202C0.569336 39.8468 2.87808 42.1593 5.69992 42.1593H133.964C136.786 42.1593 139.095 39.8468 139.095 37.0203V6.18553C139.095 3.35899 136.786 1.04639 133.964 1.04639ZM133.964 1.86862C136.341 1.86862 138.274 3.80549 138.274 6.18553V37.0202C138.274 39.4008 136.341 41.3376 133.964 41.3376H5.69992C3.32387 41.3376 1.39024 39.4007 1.39024 37.0203V6.18553C1.39024 3.80549 3.32382 1.86867 5.69992 1.86867L133.964 1.86862Z" fill="#A6A6A6"/>
<path d="M28.3876 21.4465C28.3996 20.5058 28.6476 19.5835 29.1085 18.7653C29.5693 17.9472 30.2279 17.2597 31.0232 16.767C30.518 16.0399 29.8515 15.4415 29.0766 15.0194C28.3018 14.5972 27.4399 14.363 26.5594 14.3352C24.6814 14.1365 22.8606 15.4678 21.9035 15.4678C20.928 15.4678 19.4544 14.355 17.8676 14.3878C16.8413 14.4214 15.841 14.7221 14.9644 15.2608C14.0877 15.7997 13.3644 16.558 12.8651 17.4622C10.702 21.236 12.3155 26.7821 14.3875 29.8326C15.4241 31.3262 16.6356 32.9947 18.221 32.9356C19.7723 32.8707 20.3518 31.9387 22.2242 31.9387C24.0795 31.9387 24.6231 32.9356 26.2405 32.8979C27.9052 32.8707 28.9541 31.3976 29.9543 29.8897C30.6992 28.8254 31.2724 27.649 31.6525 26.4044C30.6855 25.9921 29.8602 25.3023 29.2796 24.4206C28.699 23.539 28.3888 22.5046 28.3876 21.4465ZM25.3325 12.3291C26.2401 11.2312 26.6873 9.81987 26.579 8.39502C25.1924 8.5418 23.9115 9.20966 22.9916 10.2655C22.5418 10.7813 22.1974 11.3814 21.9778 12.0314C21.7584 12.6814 21.6681 13.3687 21.7123 14.0539C22.406 14.061 23.0922 13.9095 23.7193 13.6108C24.3463 13.312 24.8978 12.8738 25.3325 12.3291ZM46.9996 29.3042H41.9087L40.6862 32.9418H38.5298L43.3519 19.4834H45.5922L50.4142 32.9418H48.2212L46.9996 29.3042ZM42.436 27.6256H46.4713L44.4821 21.722H44.4264L42.436 27.6256ZM60.828 28.0363C60.828 31.0854 59.2084 33.0445 56.7643 33.0445C56.1453 33.0771 55.5295 32.9334 54.9877 32.6298C54.4459 32.3262 53.9998 31.8749 53.7007 31.3277H53.6544V36.1878H51.6556V23.1295H53.5902V24.7616H53.6271C53.94 24.2171 54.3936 23.7681 54.9395 23.4627C55.4855 23.1573 56.1034 23.0066 56.7276 23.027C59.1989 23.027 60.828 24.9957 60.828 28.0363ZM58.7736 28.0363C58.7736 26.0497 57.7547 24.7436 56.2003 24.7436C54.6731 24.7436 53.646 26.0772 53.646 28.0362C53.646 30.0133 54.6731 31.3374 56.2003 31.3374C57.7547 31.3374 58.7736 30.041 58.7736 28.0363ZM71.5459 28.0363C71.5459 31.0854 69.9258 33.0445 67.4817 33.0445C66.8626 33.0771 66.2469 32.9334 65.7051 32.6298C65.1632 32.3262 64.7172 31.8749 64.4179 31.3277H64.3718V36.1878H62.373V23.1295H64.3076V24.7616H64.3445C64.6574 24.2171 65.111 23.7681 65.6569 23.4627C66.2029 23.1573 66.8208 23.0066 67.4449 23.027C69.9164 23.027 71.5459 24.9957 71.5459 28.0363ZM69.491 28.0363C69.491 26.0497 68.4721 24.7436 66.9177 24.7436C65.3905 24.7436 64.3633 26.0772 64.3633 28.0362C64.3633 30.0133 65.3905 31.3374 66.9177 31.3374C68.4721 31.3374 69.491 30.041 69.491 28.0363ZM78.6282 29.192C78.7763 30.5266 80.0629 31.403 81.8211 31.403C83.5058 31.403 84.7178 30.5265 84.7178 29.3232C84.7178 28.2785 83.9869 27.6531 82.256 27.2244L80.5251 26.8043C78.0726 26.2074 76.934 25.0516 76.934 23.1761C76.934 20.854 78.9423 19.2591 81.7928 19.2591C84.6161 19.2591 86.5507 20.854 86.6159 23.1761H84.5982C84.4775 21.8331 83.3755 21.0222 81.7655 21.0222C80.1553 21.0222 79.0536 21.8426 79.0536 23.0363C79.0536 23.988 79.7572 24.5477 81.4787 24.9763L82.9502 25.3405C85.6905 25.9935 86.8279 27.1028 86.8279 29.0712C86.8279 31.5891 84.8387 33.1661 81.673 33.1661C78.711 33.1661 76.7113 31.6261 76.5821 29.192H78.6282ZM91.1437 20.8076V23.1295H92.9955V24.7246H91.1437V30.1339C91.1437 30.9743 91.5144 31.3659 92.3284 31.3659C92.5483 31.362 92.7677 31.3465 92.9859 31.3193V32.9048C92.6199 32.9737 92.248 33.0048 91.8758 32.9978C89.9044 32.9978 89.1355 32.2517 89.1355 30.3488V24.7246H87.7197V23.1295H89.1355V20.8076H91.1437ZM94.0667 28.0363C94.0667 24.9489 95.8712 23.0089 98.6851 23.0089C101.508 23.0089 103.304 24.9489 103.304 28.0363C103.304 31.132 101.518 33.0635 98.6849 33.0635C95.8533 33.0635 94.0667 31.132 94.0667 28.0363ZM101.268 28.0363C101.268 25.9184 100.305 24.6684 98.6849 24.6684C97.0654 24.6684 96.1022 25.9278 96.1022 28.0363C96.1022 30.1626 97.0654 31.403 98.6849 31.403C100.305 31.403 101.268 30.1626 101.268 28.0363ZM104.952 23.1295H106.858V24.7997H106.905C107.034 24.2781 107.337 23.8171 107.764 23.4942C108.19 23.1715 108.714 23.0063 109.247 23.027C109.477 23.0261 109.707 23.0514 109.932 23.1021V24.986C109.641 24.8965 109.338 24.8553 109.034 24.8642C108.743 24.8524 108.454 24.904 108.185 25.0155C107.916 25.127 107.675 25.2957 107.477 25.5102C107.279 25.7247 107.13 25.9797 107.039 26.258C106.948 26.5362 106.918 26.8308 106.951 27.1218V32.9418H104.952V23.1295ZM119.147 30.0598C118.878 31.8411 117.157 33.0635 114.954 33.0635C112.122 33.0635 110.363 31.1511 110.363 28.0827C110.363 25.005 112.131 23.0089 114.87 23.0089C117.564 23.0089 119.258 24.8738 119.258 27.8489V28.539H112.381V28.6606C112.349 29.0217 112.394 29.3855 112.513 29.7279C112.631 30.0702 112.821 30.3832 113.068 30.646C113.316 30.909 113.616 31.1157 113.95 31.2526C114.283 31.3894 114.641 31.4533 115.001 31.4401C115.473 31.4846 115.947 31.3744 116.352 31.1257C116.757 30.877 117.072 30.5032 117.249 30.0598H119.147ZM112.391 27.1313H117.259C117.277 26.8067 117.228 26.4816 117.115 26.1769C117.003 25.8721 116.829 25.5941 116.605 25.3603C116.38 25.1264 116.11 24.9418 115.812 24.818C115.514 24.6943 115.193 24.6339 114.87 24.641C114.545 24.6389 114.222 24.7019 113.921 24.8264C113.62 24.9507 113.346 25.1339 113.115 25.3655C112.885 25.5969 112.702 25.8722 112.578 26.1754C112.453 26.4785 112.39 26.8034 112.391 27.1313ZM42.186 9.35318C42.6051 9.32288 43.0256 9.38667 43.4172 9.53995C43.8088 9.69324 44.1618 9.9322 44.4506 10.2396C44.7395 10.547 44.9571 10.9152 45.0877 11.3176C45.2182 11.7199 45.2585 12.1465 45.2056 12.5665C45.2056 14.6324 44.0975 15.82 42.186 15.82H39.8679V9.35308L42.186 9.35318ZM40.8647 14.9054H42.0747C42.3741 14.9234 42.6738 14.8739 42.9518 14.7606C43.2299 14.6472 43.4793 14.4728 43.6821 14.25C43.8848 14.0271 44.0357 13.7616 44.1236 13.4727C44.2118 13.1837 44.2347 12.8786 44.191 12.5796C44.2315 12.2818 44.2063 11.9785 44.1169 11.6917C44.0275 11.4049 43.8763 11.1415 43.6739 10.9205C43.4716 10.6995 43.2234 10.5263 42.9469 10.4133C42.6705 10.3003 42.3726 10.2504 42.0747 10.267H40.8647V14.9054ZM46.3316 13.3777C46.3011 13.057 46.3376 12.7334 46.4384 12.4277C46.5394 12.122 46.7026 11.8409 46.9176 11.6025C47.1327 11.3641 47.3948 11.1736 47.6872 11.0432C47.9796 10.9129 48.2958 10.8456 48.6155 10.8456C48.9352 10.8456 49.2514 10.9129 49.5438 11.0432C49.8362 11.1736 50.0982 11.3641 50.3134 11.6025C50.5283 11.8409 50.6916 12.122 50.7924 12.4277C50.8934 12.7334 50.9298 13.057 50.8993 13.3777C50.9304 13.6988 50.8946 14.0229 50.794 14.3292C50.6933 14.6354 50.5303 14.917 50.3151 15.156C50.1 15.395 49.8377 15.586 49.5449 15.7166C49.2523 15.8473 48.9357 15.9148 48.6155 15.9148C48.2953 15.9148 47.9787 15.8473 47.686 15.7166C47.3932 15.586 47.131 15.395 46.9158 15.156C46.7007 14.917 46.5376 14.6354 46.437 14.3292C46.3364 14.0229 46.3004 13.6988 46.3316 13.3777ZM49.9163 13.3777C49.9163 12.3198 49.4447 11.7012 48.6171 11.7012C47.7863 11.7012 47.3189 12.3198 47.3189 13.3777C47.3189 14.4441 47.7864 15.0579 48.6171 15.0579C49.4447 15.0579 49.9163 14.4397 49.9163 13.3777ZM56.9713 15.8198H55.9796L54.9787 12.2256H54.9031L53.9065 15.8198H52.9245L51.5895 10.9396H52.5589L53.4265 14.6635H53.4979L54.4937 10.9396H55.4105L56.4063 14.6635H56.4818L57.3452 10.9396H58.301L56.9713 15.8198ZM59.4237 10.9397H60.3438V11.715H60.4152C60.5364 11.4365 60.7408 11.2031 60.9998 11.0472C61.2589 10.8913 61.5598 10.8208 61.8605 10.8454C62.0961 10.8276 62.3328 10.8634 62.5528 10.9502C62.7729 11.037 62.9708 11.1726 63.1317 11.3469C63.2927 11.5212 63.4127 11.7298 63.4829 11.9572C63.553 12.1846 63.5714 12.425 63.5368 12.6606V15.8198H62.5809V12.9024C62.5809 12.1182 62.2428 11.7282 61.536 11.7282C61.3759 11.7207 61.2163 11.7481 61.0677 11.8087C60.9193 11.8692 60.7855 11.9613 60.6757 12.0788C60.5658 12.1962 60.4826 12.3362 60.4314 12.4892C60.3803 12.6421 60.3626 12.8044 60.3795 12.9649V15.8198H59.4237V10.9397ZM65.0597 9.03456H66.0154V15.8198H65.0597V9.03456ZM67.3441 13.3777C67.3137 13.057 67.3501 12.7333 67.451 12.4276C67.552 12.1218 67.7152 11.8407 67.9303 11.6023C68.1453 11.3638 68.4075 11.1733 68.6999 11.0429C68.9924 10.9126 69.3085 10.8452 69.6283 10.8452C69.9481 10.8452 70.2644 10.9126 70.5568 11.0429C70.8492 11.1733 71.1113 11.3638 71.3264 11.6023C71.5414 11.8407 71.7047 12.1218 71.8056 12.4276C71.9066 12.7333 71.943 13.057 71.9125 13.3777C71.9435 13.6988 71.9074 14.0228 71.8068 14.3289C71.7061 14.6351 71.5428 14.9167 71.3277 15.1555C71.1126 15.3943 70.8503 15.5852 70.5577 15.7158C70.265 15.8464 69.9484 15.9139 69.6283 15.9139C69.3083 15.9139 68.9916 15.8464 68.699 15.7158C68.4063 15.5852 68.144 15.3943 67.9289 15.1555C67.7138 14.9167 67.5506 14.6351 67.45 14.3289C67.3492 14.0228 67.3132 13.6988 67.3441 13.3777ZM70.9288 13.3777C70.9288 12.3198 70.4573 11.7012 69.6296 11.7012C68.7988 11.7012 68.3315 12.3198 68.3315 13.3777C68.3315 14.4441 68.799 15.0579 69.6296 15.0579C70.4573 15.0579 70.9288 14.4397 70.9288 13.3777ZM72.9187 14.4397C72.9187 13.5613 73.5678 13.0548 74.72 12.9829L76.0318 12.9066V12.4854C76.0318 11.97 75.6936 11.679 75.0403 11.679C74.5068 11.679 74.137 11.8763 74.031 12.2214H73.1057C73.2032 11.3831 73.9858 10.8456 75.0844 10.8456C76.2986 10.8456 76.9834 11.4546 76.9834 12.4854V15.8198H76.0632V15.1341H75.9876C75.8342 15.38 75.6186 15.5806 75.3631 15.7153C75.1075 15.8498 74.8211 15.9137 74.5331 15.9003C74.3297 15.9216 74.1243 15.8998 73.9298 15.8362C73.7355 15.7725 73.5564 15.6686 73.4043 15.531C73.2522 15.3933 73.1304 15.2251 73.0467 15.0373C72.9631 14.8493 72.9195 14.6458 72.9187 14.4397ZM76.0318 14.0228V13.6147L74.8492 13.6909C74.1821 13.7359 73.8797 13.9646 73.8797 14.3947C73.8797 14.834 74.2578 15.0897 74.7778 15.0897C74.93 15.1052 75.0839 15.0897 75.2302 15.044C75.3766 14.9984 75.5123 14.9237 75.6292 14.8241C75.7462 14.7246 75.8421 14.6023 75.9112 14.4646C75.9805 14.327 76.0214 14.1767 76.0318 14.0228ZM78.2395 13.3777C78.2395 11.8356 79.0262 10.8588 80.2498 10.8588C80.5525 10.8447 80.853 10.9178 81.1159 11.0694C81.379 11.221 81.5937 11.4449 81.735 11.715H81.8064V9.03444H82.7621V15.8198H81.8463V15.0486H81.7707C81.6184 15.3169 81.3963 15.538 81.1282 15.6881C80.8601 15.8382 80.5564 15.9115 80.2499 15.9002C79.0179 15.9002 78.2395 14.9234 78.2395 13.3777ZM79.2269 13.3777C79.2269 14.4127 79.7111 15.0356 80.5208 15.0356C81.3263 15.0356 81.8242 14.4038 81.8242 13.3819C81.8242 12.3648 81.3212 11.724 80.5208 11.724C79.7163 11.724 79.2269 12.351 79.2269 13.3777ZM86.7166 13.3777C86.6861 13.057 86.7226 12.7334 86.8235 12.4277C86.9245 12.122 87.0877 11.8409 87.3027 11.6025C87.5177 11.3641 87.7799 11.1736 88.0722 11.0432C88.3646 10.9129 88.6807 10.8456 89.0005 10.8456C89.3202 10.8456 89.6365 10.9129 89.9287 11.0432C90.2211 11.1736 90.4833 11.3641 90.6983 11.6025C90.9134 11.8409 91.0766 12.122 91.1775 12.4277C91.2785 12.7334 91.3148 13.057 91.2843 13.3777C91.3155 13.6988 91.2796 14.0229 91.179 14.3292C91.0783 14.6354 90.9152 14.917 90.7002 15.156C90.4851 15.395 90.2227 15.586 89.93 15.7166C89.6372 15.8473 89.3206 15.9148 89.0005 15.9148C88.6804 15.9148 88.3637 15.8473 88.071 15.7166C87.7783 15.586 87.516 15.395 87.3009 15.156C87.0858 14.917 86.9227 14.6354 86.8221 14.3292C86.7215 14.0229 86.6855 13.6988 86.7166 13.3777ZM90.3013 13.3777C90.3013 12.3198 89.8298 11.7012 89.0021 11.7012C88.1713 11.7012 87.704 12.3198 87.704 13.3777C87.704 14.4441 88.1714 15.0579 89.0021 15.0579C89.8298 15.0579 90.3013 14.4397 90.3013 13.3777ZM92.5668 10.9397H93.4869V11.715H93.5583C93.6795 11.4365 93.8839 11.2031 94.143 11.0472C94.402 10.8913 94.7029 10.8208 95.0036 10.8454C95.2392 10.8276 95.4759 10.8634 95.696 10.9502C95.916 11.037 96.1139 11.1726 96.2748 11.3469C96.4358 11.5212 96.5558 11.7298 96.626 11.9572C96.6961 12.1846 96.7145 12.425 96.6799 12.6606V15.8198H95.7242V12.9024C95.7242 12.1182 95.3859 11.7282 94.6791 11.7282C94.519 11.7207 94.3594 11.7481 94.2108 11.8087C94.0624 11.8692 93.9286 11.9613 93.8188 12.0788C93.7091 12.1962 93.6256 12.3362 93.5745 12.4892C93.5234 12.6421 93.5057 12.8044 93.5226 12.9649V15.8198H92.5669L92.5668 10.9397ZM102.081 9.72471V10.962H103.13V11.7732H102.081V14.2825C102.081 14.7937 102.29 15.0176 102.765 15.0176C102.887 15.0173 103.009 15.0097 103.13 14.9953V15.7977C102.958 15.8286 102.784 15.8451 102.61 15.8469C101.547 15.8469 101.124 15.4701 101.124 14.5293V11.7732H100.355V10.9618H101.124V9.72481L102.081 9.72471ZM104.435 9.03456H105.383V11.724H105.458C105.585 11.4429 105.795 11.2081 106.06 11.0517C106.324 10.8952 106.63 10.8247 106.935 10.8497C107.17 10.8368 107.404 10.8762 107.621 10.9652C107.839 11.0541 108.034 11.1903 108.194 11.3641C108.353 11.5379 108.472 11.7449 108.543 11.9705C108.614 12.1961 108.634 12.4346 108.603 12.6691V15.8198H107.646V12.9066C107.646 12.1271 107.286 11.7324 106.611 11.7324C106.446 11.7188 106.281 11.7416 106.126 11.7991C105.972 11.8566 105.832 11.9475 105.715 12.0653C105.599 12.1832 105.51 12.3252 105.454 12.4814C105.398 12.6376 105.377 12.8042 105.391 12.9696V15.8198H104.435V9.03456ZM114.176 14.5021C114.046 14.9482 113.765 15.334 113.381 15.5921C112.998 15.8502 112.536 15.9642 112.077 15.9141C111.758 15.9226 111.441 15.861 111.148 15.7336C110.855 15.6063 110.593 15.4161 110.38 15.1764C110.167 14.9368 110.009 14.6533 109.916 14.3458C109.822 14.0381 109.797 13.7138 109.84 13.3951C109.798 13.0756 109.824 12.7505 109.917 12.4419C110.01 12.1334 110.168 11.8486 110.379 11.6068C110.591 11.3651 110.852 11.172 111.144 11.0406C111.436 10.9092 111.753 10.8427 112.073 10.8454C113.421 10.8454 114.234 11.7732 114.234 13.3056V13.6418H110.814V13.6957C110.799 13.8747 110.821 14.055 110.88 14.2249C110.938 14.3947 111.031 14.5506 111.152 14.6822C111.273 14.8137 111.421 14.9184 111.585 14.9893C111.749 15.0601 111.925 15.0958 112.104 15.0938C112.332 15.1214 112.564 15.08 112.769 14.9745C112.974 14.8692 113.144 14.7047 113.256 14.5021H114.176ZM110.814 12.9295H113.26C113.272 12.7657 113.25 12.6011 113.195 12.4465C113.14 12.2918 113.054 12.1504 112.942 12.0313C112.83 11.9123 112.694 11.8182 112.543 11.7551C112.393 11.6921 112.231 11.6615 112.068 11.6652C111.903 11.6631 111.739 11.6944 111.586 11.7572C111.433 11.82 111.293 11.913 111.176 12.0309C111.06 12.1487 110.967 12.2889 110.905 12.4432C110.843 12.5975 110.812 12.7629 110.814 12.9295Z" fill="white"/>
</g>
</g>
</g>
<defs>
<clipPath id="clip0_1438_6088">
<rect width="139" height="42.08" fill="white" transform="translate(0.0996094 0.0795898)"/>
</clipPath>
<clipPath id="clip1_1438_6088">
<rect width="139" height="42.08" fill="white" transform="translate(0.0996094 0.0795898)"/>
</clipPath>
<clipPath id="clip2_1438_6088">
<rect width="138.992" height="42.08" fill="white" transform="translate(0.103516 0.0795898)"/>
</clipPath>
</defs>
</svg>
