<svg width="37" height="37" viewBox="0 0 37 37" fill="none" xmlns="http://www.w3.org/2000/svg">
<rect x="1.0874" y="0.937988" width="35" height="35" rx="17.5" fill="#EFEFEF" fill-opacity="0.9"/>
<rect x="1.0874" y="0.937988" width="35" height="35" rx="17.5" stroke="#E0E0E0"/>
<path d="M25.6541 26.438C23.8022 26.438 21.9726 26.0341 20.1652 25.2264C18.3578 24.4187 16.7133 23.2744 15.2318 21.7935C13.7504 20.3121 12.6061 18.6676 11.799 16.8602C10.9918 15.0528 10.588 13.2232 10.5874 11.3713C10.5874 11.1047 10.6763 10.8824 10.8541 10.7047C11.0318 10.5269 11.2541 10.438 11.5207 10.438H15.1207C15.3281 10.438 15.5133 10.5085 15.6763 10.6495C15.8393 10.7906 15.9356 10.9571 15.9652 11.1491L16.543 14.2602C16.5726 14.4972 16.5652 14.6972 16.5207 14.8602C16.4763 15.0232 16.3948 15.1639 16.2763 15.2824L14.1207 17.4602C14.417 18.0084 14.7687 18.5378 15.1758 19.0487C15.583 19.5595 16.0313 20.0522 16.5207 20.5269C16.98 20.9861 17.4615 21.4122 17.9652 21.8051C18.4689 22.198 19.0022 22.5571 19.5652 22.8824L21.6541 20.7935C21.7874 20.6602 21.9616 20.5601 22.1767 20.4931C22.3918 20.4261 22.6028 20.4078 22.8096 20.438L25.8763 21.0602C26.0837 21.1195 26.2541 21.227 26.3874 21.3829C26.5207 21.5387 26.5874 21.7127 26.5874 21.9047V25.5047C26.5874 25.7713 26.4985 25.9935 26.3207 26.1713C26.143 26.3491 25.9207 26.438 25.6541 26.438Z" fill="#C6542D"/>
</svg>
