<svg width="37" height="37" viewBox="0 0 37 37" fill="none" xmlns="http://www.w3.org/2000/svg">
<rect x="1.0874" y="0.772949" width="35" height="35" rx="17.5" fill="#EFEFEF" fill-opacity="0.9"/>
<rect x="1.0874" y="0.772949" width="35" height="35" rx="17.5" stroke="#E0E0E0"/>
<path d="M18.5874 16.7729C17.9244 16.7729 17.2885 16.5096 16.8196 16.0407C16.3508 15.5719 16.0874 14.936 16.0874 14.2729C16.0874 13.6099 16.3508 12.974 16.8196 12.5052C17.2885 12.0363 17.9244 11.7729 18.5874 11.7729C19.2504 11.7729 19.8863 12.0363 20.3552 12.5052C20.824 12.974 21.0874 13.6099 21.0874 14.2729C21.0874 14.6013 21.0227 14.9263 20.8971 15.2297C20.7715 15.533 20.5873 15.8086 20.3552 16.0407C20.123 16.2729 19.8474 16.457 19.5441 16.5826C19.2408 16.7083 18.9157 16.7729 18.5874 16.7729ZM18.5874 7.27295C16.7309 7.27295 14.9504 8.01045 13.6377 9.3232C12.3249 10.636 11.5874 12.4164 11.5874 14.2729C11.5874 19.5229 18.5874 27.2729 18.5874 27.2729C18.5874 27.2729 25.5874 19.5229 25.5874 14.2729C25.5874 12.4164 24.8499 10.636 23.5371 9.3232C22.2244 8.01045 20.4439 7.27295 18.5874 7.27295Z" fill="#C6542D"/>
</svg>
