<svg width="140" height="43" viewBox="0 0 140 43" fill="none" xmlns="http://www.w3.org/2000/svg">
<g clip-path="url(#clip0_1438_6064)">
<g clip-path="url(#clip1_1438_6064)">
<path d="M133.499 42.0544H5.23459C2.41279 42.0544 0.104004 39.7417 0.104004 36.9152V6.08055C0.104004 3.25401 2.41276 0.941406 5.23459 0.941406H133.499C136.321 0.941406 138.63 3.25401 138.63 6.08055V36.9152C138.63 39.7417 136.321 42.0544 133.499 42.0544Z" fill="black"/>
<path d="M133.499 0.941406H5.23459C2.41279 0.941406 0.104004 3.25401 0.104004 6.08055V36.9152C0.104004 39.7417 2.41276 42.0544 5.23459 42.0544H133.499C136.321 42.0544 138.63 39.7417 138.63 36.9152V6.08055C138.63 3.25401 136.321 0.941406 133.499 0.941406ZM133.499 1.76364C135.876 1.76364 137.809 3.70051 137.809 6.08055V36.9152C137.809 39.2957 135.876 41.2325 133.499 41.2325H5.23459C2.85854 41.2325 0.924904 39.2957 0.924904 36.9152V6.08055C0.924904 3.70051 2.8585 1.76369 5.23459 1.76369L133.499 1.76364Z" fill="#A6A6A6"/>
<path d="M48.7606 11.4694C48.7606 12.3305 48.5059 13.0162 47.9961 13.5278C47.4169 14.136 46.662 14.4404 45.7341 14.4404C44.8456 14.4404 44.0899 14.1321 43.4687 13.5145C42.8463 12.8975 42.5356 12.1322 42.5356 11.2192C42.5356 10.3058 42.8463 9.541 43.4687 8.92341C44.0899 8.30636 44.8456 7.99756 45.7341 7.99756C46.1751 7.99756 46.5973 8.08394 46.998 8.2562C47.3988 8.42887 47.7203 8.65807 47.9608 8.94511L47.4196 9.48751C47.0121 8.99971 46.4509 8.75601 45.7341 8.75601C45.0861 8.75601 44.5256 8.9841 44.0527 9.44058C43.5797 9.89752 43.3432 10.4901 43.3432 11.2192C43.3432 11.9483 43.5797 12.5409 44.0527 12.9978C44.5256 13.4544 45.0861 13.6823 45.7341 13.6823C46.4217 13.6823 46.9948 13.4531 47.4538 12.9939C47.7517 12.6946 47.9238 12.2788 47.97 11.7447H45.7341V11.004H48.7176C48.7464 11.1651 48.7606 11.3196 48.7606 11.4694Z" fill="white"/>
<path d="M48.7605 11.4696H48.6579C48.6571 12.3111 48.4118 12.9648 47.9235 13.4553L47.9224 13.4562C47.3616 14.0435 46.6403 14.3366 45.7341 14.3378C44.8693 14.3366 44.1454 14.0411 43.5408 13.442C42.9377 12.8418 42.6394 12.1091 42.6383 11.2194C42.6394 10.3293 42.9377 9.59699 43.5408 8.99719C44.1454 8.39774 44.8693 8.10183 45.7341 8.10058C46.1619 8.10058 46.5692 8.18419 46.9575 8.35076C47.3463 8.51862 47.6535 8.7386 47.8822 9.01168L47.9608 8.94535L47.8883 8.87269L47.3472 9.41546L47.4196 9.48775L47.4986 9.42198C47.0721 8.91002 46.4734 8.65194 45.7342 8.65346C45.0621 8.65263 44.4708 8.8932 43.9818 9.367C43.488 9.84233 43.2399 10.4682 43.2407 11.2194C43.2399 11.9707 43.488 12.5965 43.9818 13.0719C44.4708 13.5457 45.0621 13.7862 45.7341 13.7854C46.4445 13.7866 47.0498 13.5453 47.5263 13.0668C47.8446 12.7471 48.025 12.3043 48.0722 11.7538L48.0818 11.6422H45.8367V11.107H48.7176V11.0042L48.6166 11.0223C48.6446 11.1781 48.6579 11.3262 48.6579 11.4696H48.8631C48.8631 11.3134 48.8486 11.1528 48.8186 10.9858L48.8034 10.9014H45.6316V11.8477H47.9699V11.745L47.8678 11.7361C47.8225 12.2533 47.6582 12.6428 47.3812 12.9214C46.9404 13.3615 46.3992 13.5786 45.7342 13.5799C45.1102 13.579 44.5807 13.3637 44.1241 12.9242C43.672 12.4861 43.4471 11.9269 43.446 11.2194C43.4471 10.512 43.672 9.95273 44.1241 9.51468C44.5807 9.07506 45.1102 8.85985 45.7342 8.85902C46.428 8.86068 46.952 9.09031 47.3412 9.55403L47.4133 9.63995L48.0334 9.01806L48.0999 8.95145L48.0394 8.87948C47.7872 8.57844 47.4513 8.33949 47.0386 8.1621C46.6249 7.98417 46.1884 7.89502 45.7342 7.89502C44.822 7.89423 44.0347 8.21542 43.3962 8.85103C42.7553 9.48539 42.4322 10.2828 42.4331 11.2194C42.4322 12.1557 42.7553 12.9535 43.3966 13.5883C44.0347 14.2235 44.822 14.5443 45.7342 14.5434C46.6842 14.5443 47.4722 14.2282 48.0703 13.599L47.9961 13.528L48.0686 13.6007C48.6001 13.0687 48.8637 12.3501 48.8631 11.4696H48.7605ZM53.4902 8.89357H50.6864V10.8489H53.2149V11.59H50.6864V13.5453H53.4902V14.3029H49.8961V8.13596H53.4902V8.89357Z" fill="white"/>
<path d="M53.4907 8.89409V8.79131H50.5843V10.9522H53.1128V11.4874L50.5843 11.4877V13.6486H53.3881V14.2006H49.9991V8.23926H53.3881V8.89409H53.4907H53.5933V8.03369H49.7939V14.4061H53.5933V13.443H50.7895V11.6932H53.318V10.7467H50.7895V8.99686H53.5933V8.89409H53.4907ZM56.8268 14.3035H56.0352V8.89404H54.3156V8.13643H58.5463V8.89404H56.8268V14.3035Z" fill="white"/>
<path d="M56.8262 14.3035V14.2006H56.1371V8.79131H54.4176V8.2393H58.4431V8.79131H56.7236V14.3034L56.8262 14.3035L56.9289 14.3034V8.99686H58.6484V8.03369H54.2124V8.99681H55.9319V14.4061H56.9289V14.3034L56.8262 14.3035ZM61.6069 14.3035V8.13643H62.3977V14.3034L61.6069 14.3035Z" fill="white"/>
<path d="M61.6069 14.3035H61.7096V8.23926H62.2951V14.2006H61.6069V14.3035V14.4061H62.5004V8.03369H61.5044V14.4061H61.6069V14.3035ZM65.907 14.3035H65.1154V8.89404H63.3958V8.13643H67.6265V8.89404H65.907V14.3035Z" fill="white"/>
<path d="M65.9076 14.3027V14.1999H65.2187V8.79055H63.4991V8.23855H67.5246V8.79055H65.8051V14.3027H65.9076H66.0103V8.99612H67.7298V8.03294H63.2939V8.99607H65.0134V14.4054H66.0103V14.3027H65.9076ZM71.706 12.9894C72.1617 13.4515 72.7194 13.6823 73.3787 13.6823C74.0381 13.6823 74.596 13.4515 75.051 12.9894C75.5071 12.5273 75.7356 11.9366 75.7356 11.2192C75.7356 10.5018 75.5071 9.9111 75.051 9.44899C74.596 8.98687 74.0381 8.75601 73.3787 8.75601C72.7194 8.75601 72.1617 8.98687 71.706 9.44899C71.251 9.9111 71.0226 10.5018 71.0226 11.2192C71.0226 11.9366 71.251 12.5273 71.706 12.9894ZM75.6361 13.5057C75.0308 14.1292 74.2781 14.4404 73.3787 14.4404C72.4784 14.4404 71.726 14.1292 71.1221 13.5057C70.5164 12.883 70.215 12.1206 70.215 11.2192C70.215 10.3178 70.5164 9.55532 71.1221 8.93269C71.726 8.30909 72.4784 7.99756 73.3787 7.99756C74.2734 7.99756 75.0241 8.31075 75.6322 8.93671C76.2394 9.56263 76.5433 10.3234 76.5433 11.2192C76.5433 12.1206 76.2402 12.883 75.6361 13.5057Z" fill="white"/>
<path d="M71.7055 12.9897L71.6324 13.0619C72.1051 13.5425 72.6948 13.7866 73.3781 13.7854C74.0611 13.7866 74.6515 13.5425 75.1233 13.0619C75.5991 12.5809 75.8383 11.9586 75.8375 11.2194C75.8383 10.4804 75.5991 9.85799 75.1233 9.37694C74.6515 8.89635 74.0611 8.65226 73.3781 8.65346C72.6948 8.65226 72.1051 8.89635 71.6324 9.37694C71.1579 9.85799 70.9182 10.4804 70.9194 11.2194C70.9182 11.9585 71.1579 12.5809 71.6324 13.0619L71.7055 12.9897L71.7784 12.9174C71.3431 12.4737 71.1254 11.9156 71.1247 11.2194C71.1254 10.5233 71.3431 9.96521 71.7784 9.52148C72.2176 9.07788 72.7423 8.86027 73.3781 8.85906C74.0134 8.86027 74.5393 9.07788 74.9774 9.52148C75.4135 9.96521 75.6312 10.5233 75.6319 11.2194C75.6312 11.9156 75.4135 12.4737 74.9774 12.9174C74.5393 13.3611 74.0134 13.5786 73.3781 13.5798C72.7423 13.5786 72.2176 13.3611 71.7784 12.9174L71.7055 12.9897ZM75.6355 13.5059L75.5622 13.4345C74.9738 14.0383 74.2543 14.3367 73.3781 14.3378C72.5014 14.3367 71.782 14.0383 71.1947 13.4345C70.6076 12.8286 70.3179 12.0979 70.317 11.2194C70.3179 10.3409 70.6076 9.61025 71.1947 9.00439C71.782 8.40051 72.5014 8.10183 73.3781 8.10063C74.2487 8.10183 74.9664 8.40175 75.5581 9.00878C76.1474 9.61746 76.4387 10.347 76.44 11.2194C76.4387 12.0979 76.1481 12.8286 75.5622 13.4345L75.6355 13.5059L75.7093 13.5773C76.3314 12.9375 76.646 12.1437 76.6452 11.2194C76.646 10.3005 76.3301 9.50831 75.7053 8.86554C75.0799 8.22022 74.2967 7.89391 73.3781 7.89502C72.4547 7.89391 71.669 8.21869 71.0476 8.86151C70.4245 9.50189 70.1109 10.2952 70.1118 11.2194C70.1109 12.1437 70.4245 12.9375 71.0476 13.5777C71.669 14.2205 72.4547 14.5443 73.3781 14.5434C74.3012 14.5443 75.0868 14.2201 75.7093 13.5773L75.6355 13.5059ZM77.6528 14.3029V8.13591H78.6157L81.6078 12.9334H81.6419L81.6078 11.7449V8.13591H82.3994V14.3029H81.5738L78.4433 9.27291H78.4092L78.4433 10.4618V14.3029H77.6528Z" fill="white"/>
<path d="M77.6532 14.3035H77.7559V8.23926H78.5591L81.5512 13.0368H81.7476L81.7107 11.7439V8.2393H82.2972V14.2006H81.631L78.5005 9.17069H78.3042L78.341 10.464V14.2006H77.6532V14.3035V14.4061H78.5462V10.4607L78.5122 9.27069L78.4096 9.27347V9.37625H78.4437V9.27347L78.3566 9.32811L81.5172 14.4061H82.5025V8.03369H81.5056V11.7467L81.5396 12.9367L81.6423 12.934V12.8312H81.6082V12.934L81.6952 12.8794L78.6728 8.03369H77.5507V14.4061H77.6532V14.3035ZM109.833 31.7764H111.748V18.9275H109.833V31.7764ZM127.079 23.556L124.884 29.1266H124.818L122.54 23.5559H120.478L123.894 31.3419L121.946 35.673H123.944L129.208 23.5559L127.079 23.556ZM116.22 30.3171C115.592 30.3171 114.718 30.003 114.718 29.2258C114.718 28.234 115.808 27.8539 116.748 27.8539C117.59 27.8539 117.985 28.0357 118.497 28.2839C118.349 29.4738 117.325 30.3171 116.22 30.3171ZM116.451 23.2748C115.065 23.2748 113.629 23.8866 113.035 25.2421L114.735 25.9528C115.098 25.2421 115.774 25.0104 116.484 25.0104C117.474 25.0104 118.481 25.6059 118.497 26.6638V26.7959C118.15 26.5976 117.409 26.3001 116.501 26.3001C114.669 26.3001 112.803 27.3081 112.803 29.1928C112.803 30.9121 114.306 32.0197 115.988 32.0197C117.276 32.0197 117.985 31.4412 118.432 30.7635H118.497V31.7552H120.345V26.8288C120.345 24.5479 118.646 23.2748 116.451 23.2748ZM104.618 25.12H101.895V20.7157H104.618C106.05 20.7157 106.862 21.9029 106.862 22.9178C106.862 23.9135 106.05 25.12 104.618 25.12ZM104.569 18.9275H99.9811V31.7764H101.895V26.9084H104.569C106.691 26.9084 108.777 25.3694 108.777 22.9178C108.777 20.4664 106.691 18.9275 104.569 18.9275ZM79.5511 30.3194C78.2283 30.3194 77.1208 29.2101 77.1208 27.6865C77.1208 26.1467 78.2283 25.0205 79.5511 25.0205C80.857 25.0205 81.882 26.1467 81.882 27.6865C81.882 29.2101 80.857 30.3194 79.5511 30.3194ZM81.7496 24.2754H81.6836C81.2539 23.7622 80.4269 23.2985 79.3856 23.2985C77.2035 23.2985 75.2034 25.2193 75.2034 27.6865C75.2034 30.1372 77.2035 32.0415 79.3856 32.0415C80.4269 32.0415 81.2539 31.5777 81.6836 31.0481H81.7496V31.6773C81.7496 33.3499 80.857 34.2441 79.4189 34.2441C78.2451 34.2441 77.5178 33.3993 77.2199 32.6874L75.5506 33.3828C76.0299 34.5419 77.3029 35.966 79.4189 35.966C81.6671 35.966 83.5683 34.6411 83.5683 31.4123V23.5635H81.7496V24.2754ZM84.8906 31.7764H86.8082V18.9269H84.8906V31.7764ZM89.635 27.5375C89.5854 25.8483 90.9411 24.9876 91.9163 24.9876C92.6772 24.9876 93.3216 25.3682 93.5361 25.9152L89.635 27.5375ZM95.5863 26.0804C95.223 25.1031 94.1148 23.2985 91.8501 23.2985C89.6019 23.2985 87.734 25.0702 87.734 27.67C87.734 30.1207 89.5854 32.0415 92.065 32.0415C94.0656 32.0415 95.223 30.8161 95.7022 30.1042L94.2144 29.1104C93.7187 29.8392 93.0405 30.3194 92.065 30.3194C91.0897 30.3194 90.3955 29.8722 89.949 28.9948L95.7843 26.5771L95.5863 26.0804ZM49.0948 24.6399V26.4943H53.525C53.3928 27.5375 53.0456 28.2992 52.5165 28.829C51.8721 29.475 50.8636 30.1869 49.0948 30.1869C46.367 30.1869 44.2347 27.9847 44.2347 25.2525C44.2347 22.5204 46.367 20.3179 49.0948 20.3179C50.5662 20.3179 51.6404 20.8976 52.4339 21.6426L53.7399 20.3347C52.6324 19.2747 51.161 18.4633 49.0948 18.4633C45.3586 18.4633 42.2178 21.5103 42.2178 25.2525C42.2178 28.9948 45.3586 32.0415 49.0948 32.0415C51.1117 32.0415 52.6324 31.3794 53.8225 30.1372C55.0458 28.9118 55.4262 27.1898 55.4262 25.799C55.4262 25.3682 55.3933 24.9712 55.3268 24.6399H49.0948ZM60.463 30.3194C59.1403 30.3194 57.9996 29.2265 57.9996 27.67C57.9996 26.0969 59.1403 25.0205 60.463 25.0205C61.7852 25.0205 62.926 26.0969 62.926 27.67C62.926 29.2266 61.7852 30.3194 60.463 30.3194ZM60.463 23.2985C58.0492 23.2985 56.0819 25.1364 56.0819 27.67C56.0819 30.1869 58.0492 32.0415 60.463 32.0415C62.8764 32.0415 64.8435 30.1869 64.8435 27.67C64.8435 25.1364 62.8764 23.2985 60.463 23.2985ZM70.0194 30.3194C68.6972 30.3194 67.5563 29.2265 67.5563 27.67C67.5563 26.0969 68.6972 25.0205 70.0194 25.0205C71.3418 25.0205 72.4825 26.0969 72.4825 27.67C72.4825 29.2266 71.3418 30.3194 70.0194 30.3194ZM70.0194 23.2985C67.6057 23.2985 65.6389 25.1364 65.6389 27.67C65.6389 30.1869 67.6057 32.0415 70.0194 32.0415C72.4329 32.0415 74.4002 30.1869 74.4002 27.67C74.4002 25.1364 72.4329 23.2985 70.0194 23.2985Z" fill="white"/>
<path d="M10.8868 8.7648C10.5425 9.076 10.3369 9.59507 10.3369 10.2841V10.1283V32.8649V32.7152C10.3369 33.3515 10.5132 33.8429 10.8118 34.1593L10.888 34.2324C11.1297 34.4508 11.4396 34.5671 11.7947 34.5668C12.1418 34.5668 12.5322 34.4559 12.9443 34.222L27.8386 25.7453L32.9547 22.8332C33.6045 22.4634 33.9692 21.9865 34.0301 21.5005V21.4986C33.9692 21.0116 33.6045 20.535 32.9547 20.1652L27.8381 17.2535L12.9443 8.77681C12.5314 8.54238 12.1407 8.43115 11.7927 8.43115C11.438 8.43115 11.1284 8.54677 10.8868 8.7648Z" fill="#00C1FF"/>
<path d="M10.8881 34.2318L10.8118 34.1587C10.5132 33.8423 10.3369 33.3509 10.3369 32.7146V32.8643V10.1333V10.2835C10.3369 9.59444 10.5425 9.07536 10.8868 8.76416L23.6001 21.4984L10.8881 34.2318Z" fill="url(#paint0_linear_1438_6064)"/>
<path d="M27.8384 25.7445L23.6001 21.4983L27.8381 17.2529L32.9546 20.1645C33.6043 20.5343 33.969 21.0109 34.0301 21.4979V21.4998C33.969 21.9858 33.6043 22.4628 32.9546 22.8325L27.8384 25.7445Z" fill="url(#paint1_linear_1438_6064)"/>
<path d="M11.7953 34.5664C11.4402 34.5668 11.1303 34.4508 10.8887 34.2323L23.6008 21.4985L27.8392 25.7448L12.9448 34.2216C12.5328 34.4556 12.1423 34.5664 11.7953 34.5664Z" fill="url(#paint2_linear_1438_6064)"/>
<path d="M23.6002 21.4986L10.8867 8.76432C11.1284 8.54629 11.4379 8.43066 11.7926 8.43066C12.1405 8.43066 12.5313 8.54186 12.9442 8.77633L27.8381 17.2531L23.6002 21.4986Z" fill="url(#paint3_linear_1438_6064)"/>
<path d="M11.7953 34.7159C11.4402 34.7159 11.1299 34.5998 10.8882 34.3814C10.8872 34.3804 10.8857 34.3799 10.8846 34.379L10.8185 34.3143C10.8164 34.3123 10.8145 34.31 10.812 34.3076L10.8882 34.2313C11.1299 34.4496 11.4397 34.5657 11.7949 34.5653C12.1419 34.5653 12.5324 34.4545 12.9445 34.2205L27.8388 25.7437L27.9342 25.8393L27.8375 25.8942L12.9444 34.3706C12.5689 34.5838 12.2117 34.695 11.889 34.7136C11.8578 34.715 11.8265 34.7159 11.7953 34.7159Z" fill="url(#paint4_linear_1438_6064)"/>
<path d="M10.8112 34.3088C10.513 33.9923 10.3369 33.5012 10.3369 32.8645V32.7148C10.3369 33.3511 10.513 33.8425 10.8112 34.159L10.8874 34.232L10.8112 34.3088Z" fill="url(#paint5_linear_1438_6064)"/>
<path d="M27.9338 25.8402L27.8384 25.7446L32.9544 22.8327C33.6042 22.463 33.9691 21.986 34.03 21.5C34.03 21.6784 33.9902 21.8567 33.9113 22.0301C33.7522 22.3799 33.4332 22.7102 32.9545 22.9827L27.9338 25.8402Z" fill="url(#paint6_linear_1438_6064)"/>
<path d="M34.0304 21.498C33.9694 21.011 33.6046 20.5343 32.9549 20.1645L27.8384 17.2529L27.9338 17.1572L32.9549 20.0147C33.6712 20.4228 34.03 20.9602 34.0304 21.498Z" fill="url(#paint7_linear_1438_6064)"/>
<path d="M10.3369 10.2837V10.1267C10.3369 10.07 10.3384 10.0147 10.3414 9.96088V9.95843L10.3416 9.95607V9.95003C10.3725 9.40195 10.5422 8.97443 10.8112 8.68896L10.8862 8.76439C10.5422 9.07564 10.3369 9.59471 10.3369 10.2837Z" fill="url(#paint8_linear_1438_6064)"/>
<path d="M27.8383 17.2525L12.9445 8.77558C12.5316 8.54115 12.1408 8.42996 11.7929 8.42996C11.4381 8.42996 11.1286 8.54558 10.887 8.76362L10.812 8.68814C10.8354 8.66329 10.8598 8.63933 10.885 8.6163C10.8858 8.61547 10.887 8.61464 10.8878 8.61385C11.1275 8.39748 11.4337 8.28186 11.7853 8.27979H11.7929C12.1408 8.27979 12.5316 8.39102 12.9445 8.62554L27.9342 17.1564L27.8383 17.2525Z" fill="url(#paint9_linear_1438_6064)"/>
</g>
</g>
<defs>
<linearGradient id="paint0_linear_1438_6064" x1="18.4615" y1="9.89308" x2="7.50493" y2="20.8668" gradientUnits="userSpaceOnUse">
<stop stop-color="#00A0FF"/>
<stop offset="0.00657" stop-color="#00A1FF"/>
<stop offset="0.2601" stop-color="#00BEFF"/>
<stop offset="0.5122" stop-color="#00D2FF"/>
<stop offset="0.7604" stop-color="#00DFFF"/>
<stop offset="1" stop-color="#00E3FF"/>
</linearGradient>
<linearGradient id="paint1_linear_1438_6064" x1="34.8217" y1="21.425" x2="9.99271" y2="21.425" gradientUnits="userSpaceOnUse">
<stop stop-color="#FFE000"/>
<stop offset="0.4087" stop-color="#FFBD00"/>
<stop offset="0.7754" stop-color="#FFA500"/>
<stop offset="1" stop-color="#FF9C00"/>
</linearGradient>
<linearGradient id="paint2_linear_1438_6064" x1="25.589" y1="25.5357" x2="7.02218" y2="43.9957" gradientUnits="userSpaceOnUse">
<stop stop-color="#FF3A44"/>
<stop offset="1" stop-color="#C31162"/>
</linearGradient>
<linearGradient id="paint3_linear_1438_6064" x1="7.61012" y1="6.87641" x2="15.8849" y2="15.1162" gradientUnits="userSpaceOnUse">
<stop stop-color="#32A071"/>
<stop offset="0.0685" stop-color="#2DA771"/>
<stop offset="0.4762" stop-color="#15CF74"/>
<stop offset="0.8009" stop-color="#06E775"/>
<stop offset="1" stop-color="#00F076"/>
</linearGradient>
<linearGradient id="paint4_linear_1438_6064" x1="25.5793" y1="28.48" x2="10.7101" y2="43.3725" gradientUnits="userSpaceOnUse">
<stop stop-color="#CC2E36"/>
<stop offset="1" stop-color="#9C0E4E"/>
</linearGradient>
<linearGradient id="paint5_linear_1438_6064" x1="12.0285" y1="9.89321" x2="2.37582" y2="19.5495" gradientUnits="userSpaceOnUse">
<stop stop-color="#008DE0"/>
<stop offset="0.00657" stop-color="#008DE0"/>
<stop offset="0.2601" stop-color="#00A7E0"/>
<stop offset="0.5122" stop-color="#00B8E0"/>
<stop offset="0.7604" stop-color="#00C4E0"/>
<stop offset="1" stop-color="#00C7E0"/>
</linearGradient>
<linearGradient id="paint6_linear_1438_6064" x1="34.8216" y1="21.4991" x2="9.99265" y2="21.4991" gradientUnits="userSpaceOnUse">
<stop stop-color="#E0C500"/>
<stop offset="0.4087" stop-color="#E0A600"/>
<stop offset="0.7754" stop-color="#E09100"/>
<stop offset="1" stop-color="#E08900"/>
</linearGradient>
<linearGradient id="paint7_linear_1438_6064" x1="34.822" y1="21.499" x2="9.99318" y2="21.499" gradientUnits="userSpaceOnUse">
<stop stop-color="#FFE840"/>
<stop offset="0.4087" stop-color="#FFCE40"/>
<stop offset="0.7754" stop-color="#FFBC40"/>
<stop offset="1" stop-color="#FFB540"/>
</linearGradient>
<linearGradient id="paint8_linear_1438_6064" x1="12.018" y1="9.91082" x2="2.72136" y2="18.8081" gradientUnits="userSpaceOnUse">
<stop stop-color="#40B8FF"/>
<stop offset="0.00657" stop-color="#40B9FF"/>
<stop offset="0.2601" stop-color="#40CEFF"/>
<stop offset="0.5122" stop-color="#40DDFF"/>
<stop offset="0.7604" stop-color="#40E7FF"/>
<stop offset="1" stop-color="#40EAFF"/>
</linearGradient>
<linearGradient id="paint9_linear_1438_6064" x1="7.59185" y1="9.56875" x2="14.2316" y2="16.2189" gradientUnits="userSpaceOnUse">
<stop stop-color="#65B895"/>
<stop offset="0.0685" stop-color="#62BD95"/>
<stop offset="0.4762" stop-color="#50DB97"/>
<stop offset="0.8009" stop-color="#44ED98"/>
<stop offset="1" stop-color="#40F498"/>
</linearGradient>
<clipPath id="clip0_1438_6064">
<rect width="139" height="42.08" fill="white" transform="translate(0.0996094 0.0795898)"/>
</clipPath>
<clipPath id="clip1_1438_6064">
<rect width="138.992" height="42.08" fill="white" transform="translate(0.104004 0.0795898)"/>
</clipPath>
</defs>
</svg>
