<svg width="19" height="19" viewBox="0 0 19 19" fill="none" xmlns="http://www.w3.org/2000/svg">
<path fill-rule="evenodd" clip-rule="evenodd" d="M0.741211 9.91699C0.741211 6.32185 0.741211 4.52428 1.5979 3.22954C1.98046 2.65138 2.4756 2.15624 3.05376 1.77368C4.3485 0.916992 6.14607 0.916992 9.74121 0.916992C13.3364 0.916992 15.1339 0.916992 16.4287 1.77368C17.0068 2.15624 17.502 2.65138 17.8845 3.22954C18.7412 4.52428 18.7412 6.32185 18.7412 9.91699C18.7412 13.5121 18.7412 15.3097 17.8845 16.6044C17.502 17.1826 17.0068 17.6777 16.4287 18.0603C15.1339 18.917 13.3364 18.917 9.74121 18.917C6.14607 18.917 4.3485 18.917 3.05376 18.0603C2.4756 17.6777 1.98046 17.1826 1.5979 16.6044C0.741211 15.3097 0.741211 13.5121 0.741211 9.91699ZM14.4005 9.91722C14.4005 12.4905 12.3144 14.5766 9.74105 14.5766C7.16773 14.5766 5.08164 12.4905 5.08164 9.91722C5.08164 7.3439 7.16773 5.25781 9.74105 5.25781C12.3144 5.25781 14.4005 7.3439 14.4005 9.91722ZM9.74105 13.0002C11.4437 13.0002 12.8241 11.6199 12.8241 9.91722C12.8241 8.21452 11.4437 6.83422 9.74105 6.83422C8.03835 6.83422 6.65805 8.21452 6.65805 9.91722C6.65805 11.6199 8.03835 13.0002 9.74105 13.0002ZM14.5845 6.11854C15.1891 6.11854 15.6793 5.62837 15.6793 5.02372C15.6793 4.41906 15.1891 3.92889 14.5845 3.92889C13.9798 3.92889 13.4897 4.41906 13.4897 5.02372C13.4897 5.62837 13.9798 6.11854 14.5845 6.11854Z" fill="#DADADA"/>
</svg>
