<svg width="19" height="18" viewBox="0 0 19 18" fill="none" xmlns="http://www.w3.org/2000/svg">
<path d="M0.741211 2.8368C0.741211 2.25959 0.943919 1.7834 1.34932 1.40823C1.75472 1.03304 2.28176 0.845459 2.9304 0.845459C3.56747 0.845459 4.0829 1.03015 4.47673 1.39957C4.88213 1.78052 5.08484 2.2769 5.08484 2.88875C5.08484 3.44286 4.88793 3.90461 4.49411 4.27403C4.08871 4.65498 3.55588 4.84546 2.89565 4.84546H2.87828C2.24121 4.84546 1.72577 4.65498 1.33194 4.27403C0.938116 3.89308 0.741211 3.41399 0.741211 2.8368ZM0.96708 17.9883V6.42121H4.82422V17.9883H0.96708ZM6.96129 17.9883H10.8184V11.5294C10.8184 11.1254 10.8648 10.8137 10.9574 10.5944C11.1196 10.2019 11.3657 9.86998 11.6958 9.5987C12.026 9.32741 12.44 9.19178 12.9381 9.19178C14.2354 9.19178 14.8841 10.0633 14.8841 11.8065V17.9883H18.7412V11.3563C18.7412 9.64776 18.3358 8.35195 17.525 7.46883C16.7142 6.58572 15.6428 6.14416 14.3107 6.14416C12.8165 6.14416 11.6524 6.78485 10.8184 8.06624V8.10087H10.8011L10.8184 8.06624V6.42121H6.96129C6.98445 6.79062 6.99604 7.93924 6.99604 9.8671C6.99604 11.7949 6.98445 14.502 6.96129 17.9883Z" fill="#DADADA"/>
</svg>
