<svg width="37" height="37" viewBox="0 0 37 37" fill="none" xmlns="http://www.w3.org/2000/svg">
<rect x="1.0874" y="0.833984" width="35" height="35" rx="17.5" fill="#EFEFEF" fill-opacity="0.9"/>
<rect x="1.0874" y="0.833984" width="35" height="35" rx="17.5" stroke="#E0E0E0"/>
<path d="M24.9874 10.834H12.1874C11.3074 10.834 10.5954 11.5652 10.5954 12.459L10.5874 22.209C10.5874 23.1027 11.3074 23.834 12.1874 23.834H24.9874C25.8674 23.834 26.5874 23.1027 26.5874 22.209V12.459C26.5874 11.5652 25.8674 10.834 24.9874 10.834ZM24.6674 14.2871L19.0114 17.8784C18.7554 18.0409 18.4194 18.0409 18.1634 17.8784L12.5074 14.2871C12.4272 14.2414 12.3569 14.1796 12.3009 14.1055C12.2449 14.0314 12.2043 13.9465 12.1815 13.856C12.1587 13.7655 12.1542 13.6712 12.1683 13.5789C12.1825 13.4865 12.2149 13.3981 12.2636 13.3189C12.3124 13.2396 12.3765 13.1713 12.452 13.1179C12.5275 13.0646 12.6129 13.0273 12.703 13.0085C12.7931 12.9896 12.886 12.9895 12.9762 13.0082C13.0663 13.0269 13.1518 13.0639 13.2274 13.1171L18.5874 16.5215L23.9474 13.1171C24.023 13.0639 24.1085 13.0269 24.1986 13.0082C24.2888 12.9895 24.3817 12.9896 24.4718 13.0085C24.5619 13.0273 24.6473 13.0646 24.7228 13.1179C24.7983 13.1713 24.8624 13.2396 24.9112 13.3189C24.9599 13.3981 24.9924 13.4865 25.0065 13.5789C25.0206 13.6712 25.0161 13.7655 24.9933 13.856C24.9706 13.9465 24.9299 14.0314 24.8739 14.1055C24.8179 14.1796 24.7476 14.2414 24.6674 14.2871Z" fill="#C6542D"/>
</svg>
