<svg width="19" height="16" viewBox="0 0 19 16" fill="none" xmlns="http://www.w3.org/2000/svg">
<path d="M12.7683 0.618232V0.61499H13.6123L13.9207 0.676582C14.1262 0.716568 14.3129 0.76897 14.4806 0.833804C14.6483 0.898637 14.8107 0.974282 14.9675 1.06072C15.1244 1.14716 15.2667 1.23524 15.3944 1.32492C15.521 1.41353 15.6346 1.50754 15.7353 1.60694C15.8348 1.70744 15.9901 1.73337 16.2011 1.68475C16.4121 1.63612 16.6393 1.56858 16.8828 1.48214C17.1262 1.3957 17.367 1.29845 17.6051 1.19039C17.8431 1.08233 17.9881 1.01372 18.0401 0.984542C18.0909 0.954297 18.118 0.938089 18.1212 0.935917L18.1244 0.931054L18.1407 0.92295L18.1569 0.914846L18.1731 0.906742L18.1894 0.898637L18.1926 0.893775L18.1975 0.890533L18.2024 0.887291L18.2056 0.882429L18.2218 0.877566L18.2381 0.874325L18.2348 0.898637L18.2299 0.92295L18.2218 0.947263L18.2137 0.971575L18.2056 0.987784L18.1975 1.00399L18.1894 1.0283C18.184 1.04451 18.1786 1.06612 18.1731 1.09314C18.1677 1.12016 18.1163 1.2282 18.0189 1.41731C17.9216 1.60641 17.7998 1.7982 17.6537 1.9927C17.5077 2.18721 17.3767 2.33415 17.261 2.43357C17.1441 2.53407 17.0667 2.6043 17.0289 2.64428C16.991 2.68534 16.945 2.72315 16.8909 2.75774L16.8097 2.81123L16.7935 2.81933L16.7773 2.82744L16.774 2.8323L16.7692 2.83554L16.7643 2.83878L16.761 2.84365L16.7448 2.85175L16.7286 2.85985L16.7254 2.86472L16.7205 2.86796L16.7156 2.8712L16.7124 2.87606L16.7091 2.88093L16.7042 2.88417L16.6994 2.88741L16.6961 2.89227H16.7773L17.2317 2.79502C17.5347 2.73019 17.8242 2.65185 18.1001 2.56L18.5383 2.41412L18.587 2.39792L18.6114 2.38981L18.6276 2.38171L18.6438 2.3736L18.6601 2.3655L18.6763 2.35739L18.7087 2.35253L18.7412 2.34929V2.38171L18.7331 2.38495L18.725 2.38981L18.7218 2.39467L18.7169 2.39792L18.712 2.40116L18.7087 2.40602L18.7055 2.41088L18.7006 2.41412L18.6958 2.41737L18.6925 2.42223L18.6893 2.42709L18.6844 2.43033L18.6763 2.44654L18.6682 2.46275L18.6633 2.46599C18.6611 2.46923 18.5924 2.56107 18.4572 2.74153C18.3219 2.92307 18.2489 3.0149 18.2381 3.01708C18.2272 3.02032 18.2121 3.03653 18.1926 3.0657C18.1742 3.09595 18.0595 3.21644 17.8485 3.42715C17.6375 3.63786 17.4309 3.82532 17.2285 3.98958C17.0251 4.15491 16.9223 4.35805 16.9201 4.59902C16.9169 4.8389 16.9044 5.11013 16.8828 5.41268C16.8611 5.71524 16.8206 6.0421 16.761 6.39329C16.7015 6.74448 16.6096 7.14158 16.4851 7.58461C16.3607 8.02763 16.2092 8.45986 16.0307 8.88128C15.8521 9.3027 15.6655 9.68089 15.4707 10.0159C15.2759 10.3508 15.0974 10.6345 14.9351 10.8668C14.7728 11.0991 14.6078 11.3179 14.44 11.5232C14.2723 11.7286 14.0603 11.9598 13.8038 12.217C13.5463 12.4731 13.4056 12.6135 13.3818 12.6384C13.3569 12.6622 13.2509 12.7508 13.0637 12.9042C12.8776 13.0587 12.6774 13.2132 12.4631 13.3678C12.25 13.5212 12.0541 13.6493 11.8756 13.7519C11.697 13.8546 11.4817 13.9718 11.2296 14.1036C10.9786 14.2365 10.7069 14.3597 10.4148 14.4732C10.1226 14.5866 9.81425 14.692 9.48963 14.7892C9.16502 14.8865 8.85122 14.9621 8.54824 15.0162C8.24528 15.0702 7.90172 15.1161 7.51759 15.1539L6.94139 15.2107V15.2188H5.88639V15.2107L5.74842 15.2026C5.65646 15.1972 5.58071 15.1917 5.52119 15.1863C5.46169 15.181 5.23715 15.1512 4.84761 15.0972C4.45807 15.0432 4.1524 14.9891 3.93057 14.9351C3.70876 14.8811 3.37872 14.7784 2.94049 14.6272C2.50226 14.4759 2.12732 14.323 1.81569 14.1685C1.50515 14.015 1.31038 13.9178 1.23138 13.8767C1.15347 13.8367 1.06583 13.787 0.968443 13.7276L0.822365 13.6384L0.819135 13.6336L0.81425 13.6303L0.80938 13.6271L0.806134 13.6222L0.789903 13.6141L0.773673 13.606L0.770443 13.6012L0.765557 13.5979L0.760688 13.5947L0.757442 13.5898L0.754212 13.585L0.749326 13.5817H0.741211V13.5493L0.757442 13.5525L0.773673 13.5574L0.846711 13.5655C0.895404 13.5709 1.02796 13.579 1.24437 13.5898C1.46079 13.6006 1.69071 13.6006 1.93418 13.5898C2.17764 13.579 2.42652 13.5547 2.6808 13.5169C2.93508 13.4791 3.23536 13.4142 3.58161 13.3224C3.92788 13.2305 4.246 13.1214 4.536 12.995C4.82491 12.8675 5.03049 12.7724 5.15277 12.7097C5.27395 12.6481 5.45898 12.5336 5.70785 12.3661L6.08116 12.1149L6.0844 12.11L6.08927 12.1068L6.09416 12.1035L6.09739 12.0986L6.10063 12.0938L6.1055 12.0905L6.11039 12.0873L6.11362 12.0824L6.12985 12.0776L6.14608 12.0743L6.14933 12.0581L6.1542 12.0419L6.15908 12.0387L6.16231 12.0338L6.03246 12.0257C5.94591 12.0203 5.86204 12.0149 5.78089 12.0095C5.69973 12.0041 5.5726 11.9798 5.39946 11.9366C5.22634 11.8933 5.03969 11.8285 4.8395 11.7421C4.63932 11.6556 4.44455 11.553 4.25519 11.4341C4.06584 11.3152 3.92895 11.2164 3.84455 11.1375C3.76123 11.0597 3.65302 10.9495 3.51993 10.8068C3.38792 10.6631 3.27322 10.5156 3.17584 10.3643C3.07845 10.2131 2.9854 10.0385 2.89668 9.84082L2.76195 9.54582L2.75383 9.52151L2.74572 9.4972L2.74085 9.48099L2.7376 9.46478L2.76195 9.46802L2.7863 9.47289L2.96484 9.4972C3.08387 9.51341 3.27053 9.5188 3.5248 9.51341C3.77909 9.50801 3.95492 9.4972 4.0523 9.48099C4.14969 9.46478 4.20921 9.45397 4.23084 9.44857L4.2633 9.44047L4.30388 9.43236L4.34446 9.42426L4.3477 9.4194L4.35257 9.41616L4.35746 9.41291L4.36069 9.40805L4.32823 9.39995L4.29576 9.39184L4.2633 9.38374L4.23084 9.37564L4.19838 9.36753C4.17674 9.36213 4.13888 9.35132 4.08476 9.33511C4.03067 9.31891 3.88459 9.25947 3.64653 9.15682C3.40849 9.05417 3.21912 8.95422 3.07845 8.85697C2.93743 8.75943 2.80297 8.65277 2.67593 8.53766C2.54933 8.42096 2.41029 8.27076 2.25879 8.08707C2.10731 7.90338 1.97206 7.68996 1.85302 7.44683C1.734 7.20371 1.64473 6.97139 1.58521 6.74987C1.52594 6.52966 1.48683 6.30451 1.46837 6.07722L1.43914 5.73685L1.45537 5.74009L1.4716 5.74495L1.48783 5.75306L1.50406 5.76116L1.52029 5.76926L1.53652 5.77737L1.7881 5.89083C1.95583 5.96647 2.16412 6.03131 2.41299 6.08533C2.66187 6.13935 2.81064 6.16908 2.85934 6.17447L2.93237 6.18258H3.07845L3.07522 6.17772L3.07034 6.17447L3.06547 6.17123L3.06222 6.16637L3.05899 6.16151L3.05411 6.15827L3.04924 6.15502L3.04599 6.15016L3.02976 6.14206L3.01353 6.13395L3.0103 6.12909L3.00541 6.12585L3.00054 6.12261L2.9973 6.11774L2.98107 6.10964L2.96484 6.10154L2.96161 6.09667C2.95836 6.0945 2.91183 6.05993 2.822 5.99294C2.73327 5.92486 2.64022 5.8368 2.54283 5.72874C2.44545 5.62068 2.34806 5.50722 2.25068 5.38837C2.15311 5.26924 2.06622 5.14178 1.99099 5.00747C1.91525 4.8724 1.83517 4.70058 1.75077 4.49204C1.66746 4.28457 1.60416 4.07549 1.56087 3.86478C1.5176 3.65407 1.49325 3.44606 1.48783 3.24075C1.48242 3.03544 1.48783 2.85985 1.50406 2.71398C1.52029 2.5681 1.55275 2.40331 1.60145 2.21962C1.65014 2.03593 1.72048 1.84143 1.81245 1.63612L1.95041 1.32816L1.95852 1.30385L1.96664 1.27953L1.97152 1.27629L1.97475 1.27143L1.978 1.26657L1.98287 1.26333L1.98776 1.26657L1.99099 1.27143L1.99423 1.27629L1.9991 1.27953L2.00399 1.28278L2.00722 1.28764L2.01046 1.2925L2.01533 1.29574L2.02345 1.31195L2.03156 1.32816L2.03645 1.3314L2.03968 1.33626L2.25879 1.57939C2.40487 1.74147 2.57801 1.92247 2.77818 2.12237C2.97837 2.32227 3.08928 2.426 3.11091 2.43357C3.13257 2.44221 3.15961 2.46706 3.19207 2.50813C3.22453 2.54812 3.33274 2.64375 3.51668 2.79502C3.70064 2.94629 3.9414 3.1219 4.23896 3.32179C4.53653 3.52169 4.86655 3.7189 5.22904 3.9134C5.59154 4.1079 5.98108 4.28349 6.39766 4.44017C6.81426 4.59686 7.10641 4.69951 7.27412 4.74813C7.44185 4.79676 7.72859 4.85889 8.13436 4.93453C8.54013 5.01018 8.84582 5.0588 9.0514 5.08041C9.257 5.10201 9.39767 5.11444 9.4734 5.11769L9.58702 5.12093L9.58379 5.09662L9.5789 5.0723L9.54644 4.8697C9.52481 4.73463 9.51398 4.54553 9.51398 4.3024C9.51398 4.05928 9.53292 3.83507 9.57079 3.62975C9.60867 3.42444 9.66548 3.21644 9.74121 3.00573C9.81696 2.79502 9.89109 2.6259 9.96357 2.49841C10.0372 2.37198 10.1335 2.22773 10.2525 2.06564C10.3715 1.90356 10.5257 1.73608 10.7151 1.56318C10.9044 1.39029 11.1208 1.23631 11.3643 1.10124C11.6078 0.966178 11.8323 0.863514 12.0379 0.793283C12.2435 0.723052 12.4166 0.677117 12.5573 0.655511C12.6979 0.633905 12.7683 0.621474 12.7683 0.618232Z" fill="#DADADA"/>
</svg>
