<svg width="22" height="16" viewBox="0 0 22 16" fill="none" xmlns="http://www.w3.org/2000/svg">
<path d="M12.18 14.8969L8.11777 14.821C6.80253 14.7945 5.484 14.8474 4.19455 14.5733C2.23298 14.1638 2.09402 12.1559 1.9486 10.4716C1.74824 8.10377 1.82581 5.69295 2.20392 3.34488C2.41737 2.02736 3.25741 1.24119 4.55649 1.15564C8.94184 0.845165 13.3563 0.881959 17.732 1.02681C18.1941 1.04009 18.6594 1.11266 19.1151 1.19527C21.3644 1.59819 21.4192 3.87359 21.565 5.78904C21.7105 7.72427 21.6491 9.66942 21.3711 11.5915C21.1482 13.1829 20.7215 14.5174 18.9212 14.6462C16.6654 14.8147 14.4614 14.9503 12.1993 14.9072C12.1994 14.8969 12.1864 14.8969 12.18 14.8969ZM9.79179 10.8679C11.4917 9.87053 13.1592 8.88974 14.8493 7.89902C13.1463 6.90161 11.482 5.92082 9.79179 4.93009V10.8679Z" fill="#DADADA"/>
</svg>
